<?xml version="1.0" encoding="UTF-8"?>
<svg id="Layer_1" data-name="Layer 1" xmlns="http://www.w3.org/2000/svg" xmlns:xlink="http://www.w3.org/1999/xlink" viewBox="0 0 194.2 189.37">
  <defs>
    <style>
      .cls-1 {
        stroke: #fbdeeb;
      }

      .cls-1, .cls-2, .cls-3, .cls-4, .cls-5, .cls-6, .cls-7 {
        fill: none;
      }

      .cls-1, .cls-2, .cls-3, .cls-5, .cls-6, .cls-7 {
        stroke-miterlimit: 10;
        stroke-width: .69px;
      }

      .cls-2 {
        stroke: #fff;
      }

      .cls-3 {
        stroke: #fff1e9;
      }

      .cls-4, .cls-8, .cls-9, .cls-10, .cls-11, .cls-12, .cls-13 {
        stroke-width: 0px;
      }

      .cls-14 {
        clip-path: url(#clippath-1);
      }

      .cls-8 {
        fill: #fbdeeb;
      }

      .cls-5 {
        stroke: #bddeb1;
      }

      .cls-9 {
        fill: #e9d4c0;
      }

      .cls-6 {
        stroke: #f9c6d8;
      }

      .cls-10 {
        fill: #fff1e9;
      }

      .cls-15 {
        clip-path: url(#clippath);
      }

      .cls-7 {
        stroke: #e9d4c0;
      }

      .cls-11 {
        fill: #f9c5d8;
      }

      .cls-12 {
        fill: #fff;
      }

      .cls-13 {
        fill: #bddeb1;
      }
    </style>
    <clipPath id="clippath">
      <rect class="cls-4" width="194.2" height="189.37"/>
    </clipPath>
    <clipPath id="clippath-1">
      <rect class="cls-4" width="194.2" height="189.37"/>
    </clipPath>
  </defs>
  <g id="Artwork_1" data-name="Artwork 1">
    <g class="cls-15">
      <g class="cls-14">
        <path class="cls-8" d="M193.86,94.69c0,52.1-43.32,94.34-96.76,94.34S.34,146.79.34,94.69,43.66.34,97.1.34s96.76,42.24,96.76,94.34"/>
        <ellipse class="cls-1" cx="97.1" cy="94.69" rx="96.76" ry="94.34"/>
        <path class="cls-10" d="M170.93,105.36c0,10.51-32.03,19.04-71.55,19.04s-71.55-8.52-71.55-19.04,32.03-19.04,71.55-19.04,71.55,8.52,71.55,19.04"/>
        <ellipse class="cls-3" cx="99.39" cy="105.36" rx="71.55" ry="19.04"/>
        <path class="cls-9" d="M155.38,102.69l-18.06-2.49c-1.14-.16-1.93-1.21-1.78-2.34l.31-2.24c.16-1.14,1.21-1.93,2.34-1.78l18.06,2.49c1.14.16,1.93,1.21,1.78,2.34l-.31,2.24c-.16,1.14-1.21,1.93-2.34,1.78"/>
        <path class="cls-7" d="M155.38,102.69l-18.06-2.49c-1.14-.16-1.93-1.21-1.78-2.34l.31-2.24c.16-1.14,1.21-1.93,2.34-1.78l18.06,2.49c1.14.16,1.93,1.21,1.78,2.34l-.31,2.24c-.16,1.14-1.21,1.93-2.34,1.78Z"/>
        <path class="cls-13" d="M125.99,79.75c8.25,1.58,13.66,9.55,12.08,17.8-1.58,8.25-9.55,13.66-17.8,12.08-8.25-1.58-13.66-9.55-12.08-17.8,1.58-8.25,9.55-13.66,17.8-12.08"/>
        <path class="cls-5" d="M125.99,79.75c8.25,1.58,13.66,9.55,12.08,17.8-1.58,8.25-9.55,13.66-17.8,12.08-8.25-1.58-13.66-9.55-12.08-17.8,1.58-8.25,9.55-13.66,17.8-12.08Z"/>
        <path class="cls-12" d="M99.96,74.76c8.25,1.58,13.66,9.55,12.08,17.8-1.58,8.25-9.55,13.66-17.8,12.08-8.25-1.58-13.66-9.55-12.08-17.8,1.58-8.25,9.55-13.66,17.8-12.08"/>
        <path class="cls-2" d="M99.96,74.76c8.25,1.58,13.66,9.55,12.08,17.8-1.58,8.25-9.55,13.66-17.8,12.08-8.25-1.58-13.66-9.55-12.08-17.8,1.58-8.25,9.55-13.66,17.8-12.08Z"/>
        <path class="cls-11" d="M71.87,69.38c8.25,1.58,13.66,9.55,12.08,17.8-1.58,8.25-9.55,13.66-17.8,12.08-8.25-1.58-13.66-9.55-12.08-17.8,1.58-8.25,9.55-13.66,17.8-12.08"/>
        <path class="cls-6" d="M71.87,69.38c8.25,1.58,13.66,9.55,12.08,17.8-1.58,8.25-9.55,13.66-17.8,12.08-8.25-1.58-13.66-9.55-12.08-17.8,1.58-8.25,9.55-13.66,17.8-12.08Z"/>
      </g>
    </g>
  </g>
</svg>