<?xml version="1.0" encoding="UTF-8"?>
<svg id="Layer_1" data-name="Layer 1" xmlns="http://www.w3.org/2000/svg" xmlns:xlink="http://www.w3.org/1999/xlink" viewBox="0 0 196.19 191.33">
  <defs>
    <style>
      .cls-1 {
        fill: #e3f1e2;
      }

      .cls-1, .cls-2, .cls-3, .cls-4, .cls-5, .cls-6, .cls-7 {
        stroke-width: 0px;
      }

      .cls-8 {
        stroke: #bddfb2;
      }

      .cls-8, .cls-9, .cls-10, .cls-11, .cls-12, .cls-5, .cls-13, .cls-14, .cls-15, .cls-16, .cls-17 {
        fill: none;
      }

      .cls-8, .cls-9, .cls-10, .cls-11, .cls-12, .cls-13, .cls-14, .cls-15, .cls-16, .cls-17 {
        stroke-miterlimit: 10;
      }

      .cls-8, .cls-9, .cls-10, .cls-11, .cls-12, .cls-13, .cls-14, .cls-16, .cls-17 {
        stroke-width: 1.78px;
      }

      .cls-9 {
        stroke: #8d7b6b;
      }

      .cls-10 {
        stroke: #9dd192;
      }

      .cls-2 {
        fill: #9dd192;
      }

      .cls-3 {
        fill: #704e2e;
      }

      .cls-4 {
        fill: #bddfb2;
      }

      .cls-11 {
        stroke: #c2b59b;
      }

      .cls-12 {
        stroke: #d2b8a0;
      }

      .cls-13 {
        stroke: #e3f1e2;
      }

      .cls-18 {
        clip-path: url(#clippath-1);
      }

      .cls-14, .cls-15 {
        stroke: #a57f60;
      }

      .cls-6 {
        fill: #d2b8a0;
      }

      .cls-15 {
        stroke-width: .45px;
      }

      .cls-19 {
        clip-path: url(#clippath);
      }

      .cls-16 {
        stroke: #704e2e;
      }

      .cls-17 {
        stroke: #947257;
      }

      .cls-7 {
        fill: #a57f60;
      }
    </style>
    <clipPath id="clippath">
      <rect class="cls-5" y="0" width="196.19" height="191.33"/>
    </clipPath>
    <clipPath id="clippath-1">
      <rect class="cls-5" y="0" width="196.19" height="191.33"/>
    </clipPath>
  </defs>
  <g id="Artwork_4" data-name="Artwork 4">
    <g class="cls-19">
      <g class="cls-18">
        <path class="cls-1" d="M195.3,95.67c0,52.34-43.52,94.77-97.2,94.77S.89,148.01.89,95.67,44.41.89,98.09.89s97.2,42.43,97.2,94.77"/>
        <ellipse class="cls-13" cx="98.09" cy="95.67" rx="97.2" ry="94.77"/>
        <path class="cls-9" d="M123.05,89.11c0-57.95-59.2-66.27-59.2,0"/>
        <path class="cls-7" d="M78.6,99.11c-.17-.37-.32-.58-.67-.68-2.87-.85-19.63-2.95-25.7-5.13-2.13-1.67-4.74-5.04-6.83-6.91-.32-.25-.84-.44-1.44-.61-1.28-.04-2.56-.07-3.84-.11l10.55,17.68c6.65,1.12,31.78,6.39,27.94-4.25"/>
        <path class="cls-14" d="M78.6,99.11c-.17-.37-.32-.58-.67-.68-2.87-.85-19.63-2.95-25.7-5.13-2.13-1.67-4.74-5.04-6.83-6.91-.32-.25-.84-.44-1.44-.61-1.28-.04-2.56-.07-3.84-.11l10.55,17.68c6.65,1.12,31.78,6.39,27.94-4.25Z"/>
        <path class="cls-7" d="M60.63,99.52c5.55,22.36-8.44,6.02-8.44,6.02l-6.06-11.56,1.42-6.02"/>
        <path class="cls-14" d="M60.63,99.52c5.55,22.36-8.44,6.02-8.44,6.02l-6.06-11.56,1.42-6.02"/>
        <path class="cls-7" d="M56.66,108.64c5.73,0,5.75-8.91,0-8.91s-5.75,8.91,0,8.91"/>
        <path class="cls-7" d="M55.05,107.76c5.73,0,5.75-8.91,0-8.91s-5.75,8.91,0,8.91"/>
        <path class="cls-7" d="M55,107.76c5.73,0,5.75-8.91,0-8.91s-5.75,8.91,0,8.91"/>
        <path class="cls-7" d="M56.54,108.49c5.73,0,5.75-8.91,0-8.91s-5.75,8.91,0,8.91"/>
        <path class="cls-7" d="M57.11,109.06c5.73,0,5.75-8.91,0-8.91s-5.75,8.91,0,8.91"/>
        <path class="cls-7" d="M56.96,108.99c5.73,0,5.75-8.91,0-8.91s-5.75,8.91,0,8.91"/>
        <path class="cls-6" d="M128.36,100.7c0,19.28-15.63,34.91-34.91,34.91s-34.91-15.63-34.91-34.91,15.63-34.91,34.91-34.91,34.91,15.63,34.91,34.91"/>
        <path class="cls-12" d="M128.36,100.7c0,19.28-15.63,34.91-34.91,34.91s-34.91-15.63-34.91-34.91,15.63-34.91,34.91-34.91,34.91,15.63,34.91,34.91Z"/>
        <rect class="cls-3" x="51.05" y="135.62" width="13.16" height="6.54"/>
        <rect class="cls-16" x="51.05" y="135.62" width="13.16" height="6.54"/>
        <rect class="cls-3" x="136.7" y="135.62" width="13.16" height="6.54"/>
        <rect class="cls-16" x="136.7" y="135.62" width="13.16" height="6.54"/>
        <rect class="cls-4" x="120.71" y="96.38" width="28.46" height="18.48"/>
        <rect class="cls-8" x="120.71" y="96.38" width="28.46" height="18.48"/>
        <path class="cls-4" d="M149.17,114.86c0,8.79-6.37,15.91-14.23,15.91s-14.23-7.12-14.23-15.91,6.37-15.91,14.23-15.91,14.23,7.12,14.23,15.91"/>
        <ellipse class="cls-8" cx="134.94" cy="114.86" rx="14.23" ry="15.91"/>
        <rect class="cls-3" x="41.8" y="129.55" width="115.01" height="7.72"/>
        <rect class="cls-16" x="41.8" y="129.55" width="115.01" height="7.72"/>
        <path class="cls-2" d="M138.99,106.73c0,.49-3.95.89-8.83.89s-8.83-.4-8.83-.89,3.95-.89,8.83-.89,8.83.4,8.83.89"/>
        <ellipse class="cls-10" cx="130.16" cy="106.73" rx="8.83" ry=".89"/>
        <rect class="cls-2" x="120.71" y="105.98" width="8.24" height="1.48"/>
        <rect class="cls-10" x="120.71" y="105.98" width="8.24" height="1.48"/>
        <path class="cls-2" d="M130.16,115.75c0-.49,3.95-.89,8.83-.89s8.83.4,8.83.89-3.95.89-8.83.89-8.83-.4-8.83-.89"/>
        <ellipse class="cls-10" cx="138.99" cy="115.75" rx="8.83" ry=".89"/>
        <rect class="cls-2" x="140.2" y="115.01" width="8.24" height="1.48"/>
        <rect class="cls-10" x="140.2" y="115.01" width="8.24" height="1.48"/>
        <path class="cls-14" d="M39.51,85.79c4.23,6.59,8.45,13.17,12.68,19.76"/>
        <line class="cls-15" x1="38.32" y1="84.86" x2="39.57" y2="86.83"/>
        <line class="cls-15" x1="38.26" y1="84.99" x2="39.1" y2="86.36"/>
        <line class="cls-15" x1="38.09" y1="84.77" x2="45.26" y2="84.9"/>
        <line class="cls-15" x1="38.1" y1="84.88" x2="39.15" y2="84.96"/>
        <line class="cls-15" x1="45.04" y1="84.83" x2="45.05" y2="85.68"/>
        <line class="cls-15" x1="38.09" y1="84.77" x2="45.59" y2="85.26"/>
        <line class="cls-15" x1="44.79" y1="84.9" x2="45.6" y2="84.94"/>
        <line class="cls-15" x1="45.22" y1="84.89" x2="45.61" y2="84.91"/>
        <line class="cls-15" x1="45.63" y1="84.71" x2="46.63" y2="89.14"/>
        <line class="cls-15" x1="45.53" y1="84.9" x2="45.81" y2="84.9"/>
        <line class="cls-15" x1="45.84" y1="84.64" x2="46.1" y2="88.14"/>
        <rect class="cls-15" x="38.5" y="84.83" width="7.34" height=".25"/>
        <line class="cls-15" x1="38.07" y1="84.99" x2="39.39" y2="85.1"/>
        <line class="cls-15" x1="45.61" y1="84.91" x2="51.56" y2="92.66"/>
        <line class="cls-15" x1="45.85" y1="84.72" x2="48.86" y2="92.85"/>
        <path class="cls-7" d="M110.79,71.08c0,2.92-7.93,5.29-17.71,5.29s-17.71-2.37-17.71-5.29,7.93-5.29,17.71-5.29,17.71,2.37,17.71,5.29"/>
        <ellipse class="cls-14" cx="93.08" cy="71.08" rx="17.71" ry="5.29"/>
        <path class="cls-14" d="M98.09,62.17c0,2-2.24,3.62-5.01,3.62s-5.01-1.62-5.01-3.62,2.24-3.62,5.01-3.62,5.01,1.62,5.01,3.62Z"/>
        <path class="cls-7" d="M79.54,115.75c0-.2-3.51-.37-7.85-.37s-7.85.16-7.85.37,3.51.37,7.85.37,7.85-.16,7.85-.37"/>
        <path class="cls-17" d="M79.54,115.75c0-.2-3.51-.37-7.85-.37s-7.85.16-7.85.37,3.51.37,7.85.37,7.85-.16,7.85-.37Z"/>
        <path class="cls-7" d="M89.19,120.86c0-.2-3.51-.37-7.85-.37s-7.85.16-7.85.37,3.51.37,7.85.37,7.85-.16,7.85-.37"/>
        <path class="cls-14" d="M89.19,120.86c0-.2-3.51-.37-7.85-.37s-7.85.16-7.85.37,3.51.37,7.85.37,7.85-.16,7.85-.37Z"/>
        <path class="cls-11" d="M36.1,60.47c15.23,0-9.73,7.44,4.93,7.06,14.66-.38-11.09,6.76,2.38,6.6,13.47-.17-13.86,6.14,0,5.76"/>
      </g>
    </g>
  </g>
</svg>