<?xml version="1.0" encoding="UTF-8"?>
<svg id="Layer_1" data-name="Layer 1" xmlns="http://www.w3.org/2000/svg" xmlns:xlink="http://www.w3.org/1999/xlink" viewBox="0 0 195.36 190.53">
  <defs>
    <style>
      .cls-1 {
        stroke: #fff1e9;
      }

      .cls-1, .cls-2, .cls-3, .cls-4, .cls-5, .cls-6 {
        fill: none;
      }

      .cls-1, .cls-3, .cls-4, .cls-5, .cls-6 {
        stroke-miterlimit: 10;
      }

      .cls-1, .cls-3, .cls-4, .cls-6 {
        stroke-width: 1.78px;
      }

      .cls-2, .cls-7, .cls-8, .cls-9, .cls-10 {
        stroke-width: 0px;
      }

      .cls-11 {
        clip-path: url(#clippath-1);
      }

      .cls-3 {
        stroke: #fcd9d3;
      }

      .cls-4, .cls-5 {
        stroke: #a57f60;
      }

      .cls-4, .cls-6 {
        stroke-linecap: round;
      }

      .cls-7 {
        fill: #f6f5bc;
      }

      .cls-5 {
        stroke-width: .44px;
      }

      .cls-8 {
        fill: #fff1e9;
      }

      .cls-12 {
        clip-path: url(#clippath);
      }

      .cls-9 {
        fill: #a57f60;
      }

      .cls-6 {
        stroke: #f6f5bc;
      }

      .cls-10 {
        fill: #fcd9d3;
      }
    </style>
    <clipPath id="clippath">
      <rect class="cls-2" width="195.36" height="190.53"/>
    </clipPath>
    <clipPath id="clippath-1">
      <rect class="cls-2" width="195.36" height="190.53"/>
    </clipPath>
  </defs>
  <g id="Artwork_6" data-name="Artwork 6">
    <g class="cls-12">
      <g class="cls-11">
        <path class="cls-10" d="M194.47,95.26c0,52.12-43.34,94.38-96.79,94.38S.89,147.38.89,95.26,44.22.89,97.68.89s96.79,42.25,96.79,94.38"/>
        <ellipse class="cls-3" cx="97.68" cy="95.26" rx="96.79" ry="94.38"/>
        <path class="cls-7" d="M87.91,63.39c0,8.17-6.62,14.79-14.79,14.79s-14.79-6.62-14.79-14.79,6.62-14.79,14.79-14.79,14.79,6.62,14.79,14.79"/>
        <circle class="cls-6" cx="73.12" cy="63.39" r="14.79"/>
        <path class="cls-8" d="M105.96,72.75c-.68,8.52-7.82,14.86-15.94,14.14-8.12-.71-14.15-8.2-13.47-16.73.68-8.52,7.82-14.85,15.94-14.14,8.12.71,14.15,8.2,13.47,16.73"/>
        <path class="cls-1" d="M105.96,72.75c-.68,8.52-7.82,14.86-15.94,14.14-8.12-.71-14.15-8.2-13.47-16.73.68-8.52,7.82-14.85,15.94-14.14,8.12.71,14.15,8.2,13.47,16.73Z"/>
        <path class="cls-8" d="M84.63,82.27c-.57,7.08-8.17,12.2-16.99,11.42-8.82-.77-15.5-7.15-14.94-14.23.56-7.09,8.17-12.2,16.99-11.43,8.82.78,15.51,7.15,14.94,14.23"/>
        <path class="cls-1" d="M84.63,82.27c-.57,7.08-8.17,12.2-16.99,11.42-8.82-.77-15.5-7.15-14.94-14.23.56-7.09,8.17-12.2,16.99-11.43,8.82.78,15.51,7.15,14.94,14.23Z"/>
        <path class="cls-8" d="M114.62,87.53c-.48,5.98-9.62,10.05-20.42,9.1-10.8-.95-19.17-6.57-18.69-12.54.48-5.98,9.62-10.05,20.42-9.1,10.8.95,19.17,6.57,18.69,12.54"/>
        <path class="cls-1" d="M114.62,87.53c-.48,5.98-9.62,10.05-20.42,9.1-10.8-.95-19.17-6.57-18.69-12.54.48-5.98,9.62-10.05,20.42-9.1,10.8.95,19.17,6.57,18.69,12.54Z"/>
        <path class="cls-8" d="M123.36,83.66c-.58,7.25-9.68,12.36-20.33,11.43-10.65-.94-18.82-7.57-18.24-14.82s9.68-12.36,20.33-11.43c10.65.94,18.82,7.57,18.24,14.82"/>
        <path class="cls-1" d="M123.36,83.66c-.58,7.25-9.68,12.36-20.33,11.43-10.65-.94-18.82-7.57-18.24-14.82s9.68-12.36,20.33-11.43c10.65.94,18.82,7.57,18.24,14.82Z"/>
        <path class="cls-8" d="M143.64,72.93c-.58,7.25-9.68,12.36-20.33,11.43-10.65-.94-18.82-7.57-18.24-14.82s9.68-12.36,20.33-11.43c10.65.94,18.82,7.57,18.24,14.82"/>
        <path class="cls-1" d="M143.64,72.93c-.58,7.25-9.68,12.36-20.33,11.43-10.65-.94-18.82-7.57-18.24-14.82s9.68-12.36,20.33-11.43c10.65.94,18.82,7.57,18.24,14.82Z"/>
        <path class="cls-8" d="M147.22,90.4c-.58,7.25-9.68,12.36-20.33,11.43-10.65-.94-18.82-7.57-18.24-14.82s9.68-12.36,20.33-11.43c10.65.94,18.82,7.57,18.24,14.82"/>
        <path class="cls-1" d="M147.22,90.4c-.58,7.25-9.68,12.36-20.33,11.43-10.65-.94-18.82-7.57-18.24-14.82s9.68-12.36,20.33-11.43c10.65.94,18.82,7.57,18.24,14.82Z"/>
        <path class="cls-8" d="M129.07,102.5c-1.57,7.08-11.29,10.76-21.7,8.22-10.41-2.54-17.58-10.35-16-17.43,1.57-7.08,11.29-10.76,21.7-8.22,10.41,2.54,17.58,10.35,16,17.43"/>
        <path class="cls-1" d="M129.07,102.5c-1.57,7.08-11.29,10.76-21.7,8.22-10.41-2.54-17.58-10.35-16-17.43,1.57-7.08,11.29-10.76,21.7-8.22,10.41,2.54,17.58,10.35,16,17.43Z"/>
        <path class="cls-8" d="M95.06,97.7c0,6.57-6.89,11.89-15.39,11.89s-15.39-5.32-15.39-11.89,6.89-11.89,15.39-11.89,15.39,5.32,15.39,11.89"/>
        <ellipse class="cls-1" cx="79.66" cy="97.7" rx="15.39" ry="11.89"/>
        <path class="cls-9" d="M83.33,123.23c0,2.08-1.65,3.75-3.67,3.75s-3.67-1.67-3.67-3.75,1.63-3.75,3.67-3.75,3.67,1.69,3.67,3.75"/>
        <path class="cls-5" d="M83.33,123.23c0,2.08-1.65,3.75-3.67,3.75s-3.67-1.67-3.67-3.75,1.63-3.75,3.67-3.75,3.67,1.69,3.67,3.75Z"/>
        <polygon class="cls-9" points="79.66 117.22 77.68 120.66 81.65 120.66 79.66 117.22"/>
        <polygon class="cls-4" points="79.66 117.22 77.68 120.66 81.65 120.66 79.66 117.22"/>
        <path class="cls-9" d="M101.04,120.07c0,2.08-1.65,3.75-3.67,3.75s-3.67-1.67-3.67-3.75,1.63-3.75,3.67-3.75,3.67,1.69,3.67,3.75"/>
        <path class="cls-5" d="M101.04,120.07c0,2.08-1.65,3.75-3.67,3.75s-3.67-1.67-3.67-3.75,1.63-3.75,3.67-3.75,3.67,1.69,3.67,3.75Z"/>
        <polygon class="cls-9" points="97.38 114.06 95.39 117.5 99.36 117.5 97.38 114.06"/>
        <polygon class="cls-4" points="97.38 114.06 95.39 117.5 99.36 117.5 97.38 114.06"/>
        <path class="cls-9" d="M117.55,126.67c0,2.08-1.65,3.75-3.67,3.75s-3.67-1.67-3.67-3.75,1.63-3.75,3.67-3.75,3.67,1.69,3.67,3.75"/>
        <path class="cls-5" d="M117.55,126.67c0,2.08-1.65,3.75-3.67,3.75s-3.67-1.67-3.67-3.75,1.63-3.75,3.67-3.75,3.67,1.69,3.67,3.75Z"/>
        <polygon class="cls-9" points="113.89 120.66 111.9 124.1 115.87 124.1 113.89 120.66"/>
        <polygon class="cls-4" points="113.89 120.66 111.9 124.1 115.87 124.1 113.89 120.66"/>
        <path class="cls-9" d="M137.33,115.19c0,2.08-1.65,3.75-3.67,3.75s-3.67-1.67-3.67-3.75,1.63-3.75,3.67-3.75,3.67,1.69,3.67,3.75"/>
        <path class="cls-5" d="M137.33,115.19c0,2.08-1.65,3.75-3.67,3.75s-3.67-1.67-3.67-3.75,1.63-3.75,3.67-3.75,3.67,1.69,3.67,3.75Z"/>
        <polygon class="cls-9" points="133.66 109.18 131.68 112.63 135.65 112.63 133.66 109.18"/>
        <polygon class="cls-4" points="133.66 109.18 131.68 112.63 135.65 112.63 133.66 109.18"/>
        <path class="cls-9" d="M99.36,138.18c0,2.08-1.65,3.75-3.67,3.75s-3.67-1.67-3.67-3.75,1.63-3.75,3.67-3.75,3.67,1.69,3.67,3.75"/>
        <path class="cls-5" d="M99.36,138.18c0,2.08-1.65,3.75-3.67,3.75s-3.67-1.67-3.67-3.75,1.63-3.75,3.67-3.75,3.67,1.69,3.67,3.75Z"/>
        <polygon class="cls-9" points="95.69 132.17 93.71 135.61 97.68 135.61 95.69 132.17"/>
        <polygon class="cls-4" points="95.69 132.17 93.71 135.61 97.68 135.61 95.69 132.17"/>
        <path class="cls-9" d="M131.6,135.02c0,2.08-1.65,3.75-3.67,3.75s-3.67-1.67-3.67-3.75,1.63-3.75,3.67-3.75,3.67,1.69,3.67,3.75"/>
        <path class="cls-5" d="M131.6,135.02c0,2.08-1.65,3.75-3.67,3.75s-3.67-1.67-3.67-3.75,1.63-3.75,3.67-3.75,3.67,1.69,3.67,3.75Z"/>
        <polygon class="cls-9" points="127.93 129.01 125.94 132.45 129.92 132.45 127.93 129.01"/>
        <polygon class="cls-4" points="127.93 129.01 125.94 132.45 129.92 132.45 127.93 129.01"/>
        <path class="cls-9" d="M119.54,149.92c0,2.08-1.65,3.75-3.67,3.75s-3.67-1.67-3.67-3.75,1.63-3.75,3.67-3.75,3.67,1.69,3.67,3.75"/>
        <path class="cls-5" d="M119.54,149.92c0,2.08-1.65,3.75-3.67,3.75s-3.67-1.67-3.67-3.75,1.63-3.75,3.67-3.75,3.67,1.69,3.67,3.75Z"/>
        <polygon class="cls-9" points="115.87 143.91 113.89 147.35 117.86 147.35 115.87 143.91"/>
        <polygon class="cls-4" points="115.87 143.91 113.89 147.35 117.86 147.35 115.87 143.91"/>
      </g>
    </g>
  </g>
</svg>