<?xml version="1.0" encoding="UTF-8"?>
<svg id="Layer_1" data-name="Layer 1" xmlns="http://www.w3.org/2000/svg" xmlns:xlink="http://www.w3.org/1999/xlink" viewBox="0 0 195.01 190.18">
  <defs>
    <style>
      .cls-1 {
        fill: #f6a5bd;
      }

      .cls-1, .cls-2, .cls-3, .cls-4, .cls-5, .cls-6, .cls-7, .cls-8, .cls-9, .cls-10, .cls-11, .cls-12 {
        stroke-width: 0px;
      }

      .cls-2 {
        fill: #f6a9c0;
      }

      .cls-13 {
        stroke: #f7f8f8;
      }

      .cls-13, .cls-14, .cls-7, .cls-15, .cls-16, .cls-17, .cls-18 {
        fill: none;
      }

      .cls-13, .cls-14, .cls-15, .cls-16, .cls-17, .cls-18 {
        stroke-miterlimit: 10;
        stroke-width: 1.77px;
      }

      .cls-3 {
        fill: #f7b2c7;
      }

      .cls-4 {
        fill: #f6a7bf;
      }

      .cls-5 {
        fill: #f7aec4;
      }

      .cls-6 {
        fill: #f59cb7;
      }

      .cls-14 {
        stroke: #f6f6f6;
      }

      .cls-19 {
        clip-path: url(#clippath-1);
      }

      .cls-8 {
        fill: #fbdeeb;
      }

      .cls-15 {
        stroke: #fbdeeb;
      }

      .cls-20 {
        clip-path: url(#clippath);
      }

      .cls-16 {
        stroke: #f7f7f7;
      }

      .cls-17 {
        stroke: #f5f5f6;
      }

      .cls-9 {
        fill: #f496b3;
      }

      .cls-10 {
        fill: #f7acc2;
      }

      .cls-11 {
        fill: #f6abc2;
      }

      .cls-12 {
        fill: #f4afc4;
      }

      .cls-18 {
        stroke: #f6f7f7;
      }
    </style>
    <clipPath id="clippath">
      <rect class="cls-7" y="0" width="195.01" height="190.18"/>
    </clipPath>
    <clipPath id="clippath-1">
      <rect class="cls-7" y="0" width="195.01" height="190.18"/>
    </clipPath>
  </defs>
  <g id="Artwork_8" data-name="Artwork 8">
    <g class="cls-20">
      <g class="cls-19">
        <path class="cls-8" d="M194.12,95.09c0,52.03-43.26,94.21-96.62,94.21S.89,147.12.89,95.09,44.14.89,97.5.89s96.62,42.18,96.62,94.21"/>
        <ellipse class="cls-15" cx="97.5" cy="95.09" rx="96.62" ry="94.21"/>
        <path class="cls-9" d="M107.71,75.98c-2.07,15.94-9.09,28.16-15.66,27.3-6.57-.86-10.22-14.47-8.15-30.4,2.07-15.93,9.09-28.16,15.66-27.3s10.22,14.47,8.15,30.4"/>
        <path class="cls-18" d="M107.71,75.98c-2.07,15.94-9.09,28.16-15.66,27.3-6.57-.86-10.22-14.47-8.15-30.4,2.07-15.93,9.09-28.16,15.66-27.3s10.22,14.47,8.15,30.4Z"/>
        <path class="cls-6" d="M101.31,70.71c3.92,15.58,1.88,29.53-4.56,31.15-6.43,1.61-14.82-9.71-18.73-25.29-3.92-15.58-1.88-29.53,4.55-31.15,6.43-1.61,14.82,9.71,18.73,25.29"/>
        <path class="cls-17" d="M101.31,70.71c3.92,15.58,1.88,29.53-4.56,31.15-6.43,1.61-14.82-9.71-18.73-25.29-3.92-15.58-1.88-29.53,4.55-31.15,6.43-1.61,14.82,9.71,18.73,25.29Z"/>
        <path class="cls-2" d="M84.77,76.98c13.89,8.55,22.29,20.13,18.76,25.86-3.53,5.73-17.65,3.44-31.53-5.1-13.89-8.55-22.29-20.13-18.76-25.86,3.53-5.73,17.65-3.45,31.53,5.1"/>
        <path class="cls-13" d="M84.77,76.98c13.89,8.55,22.29,20.13,18.76,25.86-3.53,5.73-17.65,3.44-31.53-5.1-13.89-8.55-22.29-20.13-18.76-25.86,3.53-5.73,17.65-3.45,31.53,5.1Z"/>
        <path class="cls-10" d="M77.22,80.71c16.06,2.86,28.12,10.55,26.94,17.17-1.18,6.63-15.15,9.68-31.21,6.82-16.06-2.86-28.12-10.55-26.94-17.17,1.18-6.63,15.15-9.68,31.21-6.82"/>
        <path class="cls-16" d="M77.22,80.71c16.06,2.86,28.12,10.55,26.94,17.17-1.18,6.63-15.15,9.68-31.21,6.82-16.06-2.86-28.12-10.55-26.94-17.17,1.18-6.63,15.15-9.68,31.21-6.82Z"/>
        <path class="cls-12" d="M115.43,102.47c-15.51,5.05-29.77,3.95-31.85-2.45-2.08-6.4,8.8-15.68,24.31-20.73,15.51-5.05,29.77-3.95,31.85,2.45,2.08,6.4-8.8,15.68-24.31,20.73"/>
        <path class="cls-14" d="M115.43,102.47c-15.51,5.05-29.77,3.95-31.85-2.45-2.08-6.4,8.8-15.68,24.31-20.73,15.51-5.05,29.77-3.95,31.85,2.45,2.08,6.4-8.8,15.68-24.31,20.73Z"/>
        <path class="cls-11" d="M117.47,94.3c-12.57,10.38-26.24,14.6-30.53,9.41-4.29-5.19,2.43-17.81,15.01-28.2,12.57-10.39,26.24-14.6,30.53-9.41,4.28,5.19-2.44,17.81-15.01,28.2"/>
        <path class="cls-18" d="M117.47,94.3c-12.57,10.38-26.24,14.6-30.53,9.41-4.29-5.19,2.43-17.81,15.01-28.2,12.57-10.39,26.24-14.6,30.53-9.41,4.28,5.19-2.44,17.81-15.01,28.2Z"/>
        <path class="cls-1" d="M72.49,100.93c14.05-11.28,29.75-16.59,35.06-11.85,5.31,4.74-1.77,17.72-15.83,29-14.05,11.28-29.75,16.59-35.06,11.85s1.77-17.72,15.83-29"/>
        <path class="cls-14" d="M72.49,100.93c14.05-11.28,29.75-16.59,35.06-11.85,5.31,4.74-1.77,17.72-15.83,29-14.05,11.28-29.75,16.59-35.06,11.85s1.77-17.72,15.83-29Z"/>
        <path class="cls-4" d="M74.27,109.05c8.35-14.71,20.85-24.44,27.92-21.74,7.07,2.7,6.03,16.81-2.32,31.52-8.35,14.71-20.85,24.44-27.92,21.74-7.07-2.7-6.03-16.81,2.32-31.52"/>
        <path class="cls-14" d="M74.27,109.05c8.35-14.71,20.85-24.44,27.92-21.74,7.07,2.7,6.03,16.81-2.32,31.52-8.35,14.71-20.85,24.44-27.92,21.74-7.07-2.7-6.03-16.81,2.32-31.52Z"/>
        <path class="cls-3" d="M96.2,120.03c-10.88-12.21-14.98-25.26-9.14-29.14,5.83-3.88,19.39,2.88,30.27,15.09,10.88,12.21,14.98,25.26,9.14,29.14-5.83,3.88-19.39-2.88-30.27-15.09"/>
        <path class="cls-16" d="M96.2,120.03c-10.88-12.21-14.98-25.26-9.14-29.14,5.83-3.88,19.39,2.88,30.27,15.09,10.88,12.21,14.98,25.26,9.14,29.14-5.83,3.88-19.39-2.88-30.27-15.09Z"/>
        <path class="cls-5" d="M105.37,119.26c-15.31-7.91-24.66-18.76-20.88-24.21,3.78-5.46,19.26-3.47,34.57,4.45,15.31,7.91,24.66,18.75,20.88,24.21-3.78,5.46-19.26,3.47-34.57-4.45"/>
        <path class="cls-16" d="M105.37,119.26c-15.31-7.91-24.66-18.76-20.88-24.21,3.78-5.46,19.26-3.47,34.57,4.45,15.31,7.91,24.66,18.75,20.88,24.21-3.78,5.46-19.26,3.47-34.57-4.45Z"/>
        <path class="cls-11" d="M106,92.71c0,5.63-4.57,10.2-10.2,10.2s-10.2-4.57-10.2-10.2,4.57-10.2,10.2-10.2,10.2,4.57,10.2,10.2"/>
        <path class="cls-18" d="M106,92.71c0,5.63-4.57,10.2-10.2,10.2s-10.2-4.57-10.2-10.2,4.57-10.2,10.2-10.2,10.2,4.57,10.2,10.2Z"/>
        <line class="cls-18" x1="91.41" y1="70.57" x2="93.29" y2="83.05"/>
        <line class="cls-18" x1="114.47" y1="79.58" x2="103.51" y2="86.63"/>
        <line class="cls-18" x1="110.1" y1="108.43" x2="101.91" y2="100.29"/>
        <line class="cls-18" x1="71.99" y1="88.5" x2="85.6" y2="89.79"/>
        <line class="cls-18" x1="88.6" y1="99.69" x2="80.2" y2="109.03"/>
      </g>
    </g>
  </g>
</svg>