<?xml version="1.0" encoding="UTF-8"?>
<svg id="Layer_1" data-name="Layer 1" xmlns="http://www.w3.org/2000/svg" xmlns:xlink="http://www.w3.org/1999/xlink" viewBox="0 0 194.76 190.01">
  <defs>
    <style>
      .cls-1 {
        fill: #f6a9cb;
      }

      .cls-1, .cls-2, .cls-3, .cls-4, .cls-5, .cls-6, .cls-7, .cls-8, .cls-9, .cls-10, .cls-11, .cls-12, .cls-13, .cls-14 {
        stroke-width: 0px;
      }

      .cls-15 {
        stroke: #5bba47;
        stroke-width: 1.33px;
      }

      .cls-15, .cls-16, .cls-17, .cls-18, .cls-19, .cls-20, .cls-8, .cls-21, .cls-22, .cls-23, .cls-24, .cls-25 {
        fill: none;
      }

      .cls-15, .cls-16, .cls-17, .cls-18, .cls-19, .cls-20, .cls-21, .cls-22, .cls-23, .cls-24, .cls-25 {
        stroke-miterlimit: 10;
      }

      .cls-16 {
        stroke: #facee1;
      }

      .cls-16, .cls-17, .cls-18, .cls-19, .cls-20, .cls-21, .cls-23, .cls-24 {
        stroke-width: .88px;
      }

      .cls-17 {
        stroke: #f8c1d9;
      }

      .cls-2 {
        fill: #7bc474;
      }

      .cls-18 {
        stroke: #8dca7c;
      }

      .cls-3 {
        fill: #704e2e;
      }

      .cls-19 {
        stroke: #88c879;
      }

      .cls-4 {
        fill: #f8bed7;
      }

      .cls-5 {
        fill: #facee1;
      }

      .cls-6 {
        fill: #f3b7d1;
      }

      .cls-20 {
        stroke: #f7b8d3;
      }

      .cls-7 {
        fill: #f9c6dc;
      }

      .cls-21 {
        stroke: #7dbb6f;
      }

      .cls-22 {
        stroke: #d2b8a0;
      }

      .cls-22, .cls-25 {
        stroke-width: 1.77px;
      }

      .cls-26 {
        clip-path: url(#clippath-1);
      }

      .cls-9 {
        fill: #d2b8a0;
      }

      .cls-10 {
        fill: #f7b2d0;
      }

      .cls-23 {
        stroke: #83bb77;
      }

      .cls-11 {
        fill: #7fc27a;
      }

      .cls-24 {
        stroke: #f2bfd6;
      }

      .cls-12 {
        fill: #fff1e9;
      }

      .cls-27 {
        clip-path: url(#clippath);
      }

      .cls-13 {
        fill: #81b97d;
      }

      .cls-25 {
        stroke: #fff1e9;
      }

      .cls-14 {
        fill: #6cb868;
      }
    </style>
    <clipPath id="clippath">
      <rect class="cls-8" y="0" width="194.76" height="190.01"/>
    </clipPath>
    <clipPath id="clippath-1">
      <rect class="cls-8" y="0" width="194.76" height="190.01"/>
    </clipPath>
  </defs>
  <g id="Artwork_10" data-name="Artwork 10">
    <g class="cls-27">
      <g class="cls-26">
        <path class="cls-12" d="M193.52,86.63c4.51,51.77-34.88,97.49-87.97,102.12C52.45,193.37,5.75,155.16,1.24,103.38-3.27,51.61,36.11,5.89,89.21,1.26c53.1-4.63,99.8,33.59,104.31,85.36"/>
        <path class="cls-25" d="M193.52,86.63c4.51,51.77-34.88,97.49-87.97,102.12C52.45,193.37,5.75,155.16,1.24,103.38-3.27,51.61,36.11,5.89,89.21,1.26c53.1-4.63,99.8,33.59,104.31,85.36Z"/>
        <path class="cls-2" d="M118.75,128.18c-6.86,8.46-14.39,13.72-16.83,11.75-2.43-1.97,1.16-10.43,8.02-18.89,6.86-8.46,14.39-13.72,16.83-11.75,2.43,1.97-1.16,10.43-8.02,18.89"/>
        <path class="cls-18" d="M118.75,128.18c-6.86,8.46-14.39,13.72-16.83,11.75-2.43-1.97,1.16-10.43,8.02-18.89,6.86-8.46,14.39-13.72,16.83-11.75,2.43,1.97-1.16,10.43-8.02,18.89Z"/>
        <path class="cls-11" d="M92.44,122.4c7.33,8.53,11.11,17.3,8.45,19.58-2.66,2.28-10.75-2.78-18.08-11.31-7.33-8.53-11.11-17.3-8.45-19.58,2.66-2.28,10.75,2.78,18.08,11.31"/>
        <path class="cls-19" d="M92.44,122.4c7.33,8.53,11.11,17.3,8.45,19.58-2.66,2.28-10.75-2.78-18.08-11.31-7.33-8.53-11.11-17.3-8.45-19.58,2.66-2.28,10.75,2.78,18.08,11.31Z"/>
        <path class="cls-10" d="M95.33,50.63c-2.17,8.72-1.35,16.43,1.83,17.22,3.18.79,7.51-5.63,9.68-14.35,2.17-8.72,1.35-16.43-1.83-17.22-3.18-.79-7.51,5.63-9.68,14.35"/>
        <path class="cls-20" d="M95.33,50.63c-2.17,8.72-1.35,16.43,1.83,17.22,3.18.79,7.51-5.63,9.68-14.35,2.17-8.72,1.35-16.43-1.83-17.22-3.18-.79-7.51,5.63-9.68,14.35Z"/>
        <path class="cls-15" d="M112.02,124.78c-21.84-20-29.93-46.63-18.09-59.56"/>
        <path class="cls-13" d="M107.07,106.85c2.4,10.62,1.69,19.84-1.58,20.57-3.27.74-7.86-7.28-10.25-17.9-2.4-10.63-1.69-19.84,1.58-20.57,3.27-.74,7.86,7.28,10.25,17.9"/>
        <path class="cls-23" d="M107.07,106.85c2.4,10.62,1.69,19.84-1.58,20.57-3.27.74-7.86-7.28-10.25-17.9-2.4-10.63-1.69-19.84,1.58-20.57,3.27-.74,7.86,7.28,10.25,17.9Z"/>
        <path class="cls-14" d="M95.79,112.5c4.95,9.7,6.43,18.86,3.3,20.45-3.12,1.59-9.66-4.98-14.61-14.69-4.95-9.7-6.43-18.86-3.3-20.45,3.12-1.59,9.66,4.98,14.61,14.69"/>
        <path class="cls-21" d="M95.79,112.5c4.95,9.7,6.43,18.86,3.3,20.45-3.12,1.59-9.66-4.98-14.61-14.69-4.95-9.7-6.43-18.86-3.3-20.45,3.12-1.59,9.66,4.98,14.61,14.69Z"/>
        <path class="cls-2" d="M115.98,118.27c-6.86,8.46-14.39,13.72-16.83,11.75-2.43-1.97,1.16-10.43,8.02-18.89,6.86-8.46,14.39-13.72,16.83-11.75,2.43,1.97-1.16,10.43-8.02,18.89"/>
        <path class="cls-18" d="M115.98,118.27c-6.86,8.46-14.39,13.72-16.83,11.75-2.43-1.97,1.16-10.43,8.02-18.89,6.86-8.46,14.39-13.72,16.83-11.75,2.43,1.97-1.16,10.43-8.02,18.89Z"/>
        <path class="cls-9" d="M65.33,124.61c4.64,7.64,10.26,18.89,15.5,26.37,3.89,4.67,13.35,3.09,20.43,3.42,10.91.02,15.92.28,19.68-7.76,3.91-6.79,9.02-15.75,12.62-22.04"/>
        <path class="cls-22" d="M65.33,124.61c4.64,7.64,10.26,18.89,15.5,26.37,3.89,4.67,13.35,3.09,20.43,3.42,10.91.02,15.92.28,19.68-7.76,3.91-6.79,9.02-15.75,12.62-22.04"/>
        <path class="cls-3" d="M65.33,125.09h68.24c2.85,0,2.85-4.42,0-4.42h-68.24c-2.85,0-2.85,4.42,0,4.42"/>
        <path class="cls-5" d="M90.76,56.78c-1.07,5.2-.39,9.74,1.5,10.13,1.9.39,4.3-3.51,5.37-8.72,1.07-5.2.39-9.74-1.5-10.13-1.9-.39-4.3,3.51-5.37,8.72"/>
        <path class="cls-16" d="M90.76,56.78c-1.07,5.2-.39,9.74,1.5,10.13,1.9.39,4.3-3.51,5.37-8.72,1.07-5.2.39-9.74-1.5-10.13-1.9-.39-4.3,3.51-5.37,8.72Z"/>
        <path class="cls-1" d="M85.6,49.52c.54,9.46,3.77,16.97,7.22,16.78,3.45-.19,5.81-8.02,5.28-17.48-.54-9.46-3.77-16.97-7.22-16.77-3.45.19-5.81,8.02-5.28,17.48"/>
        <path class="cls-17" d="M85.6,49.52c.54,9.46,3.77,16.97,7.22,16.78,3.45-.19,5.81-8.02,5.28-17.48-.54-9.46-3.77-16.97-7.22-16.77-3.45.19-5.81,8.02-5.28,17.48Z"/>
        <path class="cls-6" d="M81.76,52.1c2.99,8.99,8.08,15.39,11.35,14.3,3.28-1.09,3.51-9.26.52-18.26-2.99-8.99-8.08-15.39-11.35-14.3-3.28,1.09-3.51,9.26-.52,18.25"/>
        <path class="cls-24" d="M81.76,52.1c2.99,8.99,8.08,15.39,11.35,14.3,3.28-1.09,3.51-9.26.52-18.26-2.99-8.99-8.08-15.39-11.35-14.3-3.28,1.09-3.51,9.26-.52,18.25Z"/>
        <path class="cls-4" d="M76.28,59.7c4.49,8.34,10.6,13.78,13.64,12.14,3.04-1.64,1.86-9.73-2.63-18.07-4.5-8.34-10.6-13.78-13.64-12.14-3.04,1.64-1.86,9.73,2.63,18.07"/>
        <path class="cls-20" d="M76.28,59.7c4.49,8.34,10.6,13.78,13.64,12.14,3.04-1.64,1.86-9.73-2.63-18.07-4.5-8.34-10.6-13.78-13.64-12.14-3.04,1.64-1.86,9.73,2.63,18.07Z"/>
        <path class="cls-7" d="M97.3,56.3c-5.35,6.97-7.63,14.2-5.08,16.15,2.54,1.95,8.94-2.12,14.29-9.09,5.35-6.97,7.63-14.2,5.08-16.15-2.54-1.95-8.94,2.12-14.29,9.09"/>
        <path class="cls-17" d="M97.3,56.3c-5.35,6.97-7.63,14.2-5.08,16.15,2.54,1.95,8.94-2.12,14.29-9.09,5.35-6.97,7.63-14.2,5.08-16.15-2.54-1.95-8.94,2.12-14.29,9.09Z"/>
      </g>
    </g>
  </g>
</svg>