<?xml version="1.0" encoding="UTF-8"?>
<svg id="Layer_1" data-name="Layer 1" xmlns="http://www.w3.org/2000/svg" xmlns:xlink="http://www.w3.org/1999/xlink" viewBox="0 0 193.73 188.94">
  <defs>
    <style>
      .cls-1 {
        stroke: #fbdbe9;
      }

      .cls-1, .cls-2, .cls-3, .cls-4, .cls-5, .cls-6, .cls-7, .cls-8 {
        fill: none;
      }

      .cls-1, .cls-3, .cls-4, .cls-5, .cls-6, .cls-7, .cls-8 {
        stroke-miterlimit: 10;
      }

      .cls-1, .cls-3, .cls-4, .cls-6, .cls-7, .cls-8 {
        stroke-width: 1.76px;
      }

      .cls-2, .cls-9, .cls-10, .cls-11, .cls-12, .cls-13, .cls-14, .cls-15 {
        stroke-width: 0px;
      }

      .cls-16 {
        clip-path: url(#clippath-1);
      }

      .cls-9 {
        fill: #fbdeeb;
      }

      .cls-3 {
        stroke: #fff1e9;
      }

      .cls-4 {
        stroke: #d6c0b3;
      }

      .cls-10 {
        fill: #fafae3;
      }

      .cls-11 {
        fill: #726658;
      }

      .cls-5 {
        stroke-width: .44px;
      }

      .cls-5, .cls-6 {
        stroke: #e9f4e8;
      }

      .cls-12 {
        fill: #fbdbe9;
      }

      .cls-17 {
        clip-path: url(#clippath);
      }

      .cls-13 {
        fill: #e9f4e8;
      }

      .cls-14 {
        fill: #d6c0b3;
      }

      .cls-7 {
        stroke: #726658;
      }

      .cls-15 {
        fill: #d6c1b3;
      }

      .cls-8 {
        stroke: #fbdeeb;
      }
    </style>
    <clipPath id="clippath">
      <rect class="cls-2" y="0" width="193.73" height="188.94"/>
    </clipPath>
    <clipPath id="clippath-1">
      <rect class="cls-2" y="0" width="193.73" height="188.94"/>
    </clipPath>
  </defs>
  <g id="Artwork_12" data-name="Artwork 12">
    <g class="cls-17">
      <g class="cls-16">
        <path class="cls-13" d="M192.85,94.47c0,51.69-42.97,93.59-95.99,93.59S.88,146.16.88,94.47,43.86.88,96.87.88s95.99,41.9,95.99,93.59"/>
        <ellipse class="cls-6" cx="96.87" cy="94.47" rx="95.99" ry="93.59"/>
        <path class="cls-15" d="M134.23,134.53c-1.39,5-4.12,5.82-8.71,6.01-17.64.17-42.77.02-57.84.05-3.6-.49-8.08,1.23-10.57-5.5-2.16-8.2-1.65-17.6-1.86-29.08.02-14.99-.19-36.23.25-50.2.44-13.74,2.42-17.65,7.23-18.33,18.18-.85,46.13-.28,63.81-.23,2.47.24,5.04.46,6.78,3.71,3.07,6.75,2.32,21,2.56,33.49,0,11.32.03,24.43-.02,34.96-.08,11.9-.32,20.41-1.6,24.99l-.04.14Z"/>
        <path class="cls-4" d="M134.23,134.53c-1.39,5-4.12,5.82-8.71,6.01-17.64.17-42.77.02-57.84.05-3.6-.49-8.08,1.23-10.57-5.5-2.16-8.2-1.65-17.6-1.86-29.08.02-14.99-.19-36.23.25-50.2.44-13.74,2.42-17.65,7.23-18.33,18.18-.85,46.13-.28,63.81-.23,2.47.24,5.04.46,6.78,3.71,3.07,6.75,2.32,21,2.56,33.49,0,11.32.03,24.43-.02,34.96-.08,11.9-.32,20.41-1.6,24.99l-.04.14Z"/>
        <rect class="cls-14" x="89.91" y="37.1" width="48.07" height="103.45"/>
        <rect class="cls-4" x="89.91" y="37.1" width="48.07" height="103.45"/>
        <line class="cls-3" x1="70.08" y1="36.64" x2="70.68" y2="140"/>
        <path class="cls-11" d="M68.21,129.73c-1.07-.43-2.27-.69-3.56-.69-4.23,0-7.66,2.59-7.66,5.79s3.43,5.79,7.66,5.79c.1,0,.18-.02.28-.02-1.17-4.53,1.53-7.76,3.28-10.87"/>
        <path class="cls-7" d="M68.21,129.73c-1.07-.43-2.27-.69-3.56-.69-4.23,0-7.66,2.59-7.66,5.79s3.43,5.79,7.66,5.79c.1,0,.18-.02.28-.02-1.17-4.53,1.53-7.76,3.28-10.87Z"/>
        <line class="cls-11" x1="63.97" y1="129.51" x2="94.67" y2="129.9"/>
        <line class="cls-7" x1="63.97" y1="129.51" x2="94.67" y2="129.9"/>
        <line class="cls-11" x1="63.68" y1="140.64" x2="94.23" y2="140.61"/>
        <line class="cls-7" x1="63.68" y1="140.64" x2="94.23" y2="140.61"/>
        <path class="cls-11" d="M67.46,140.35c7.76.05,15.53.11,23.29.17,2.38.02,4.4-2.03,4.4-4.4,0-2.55-2.02-4.2-4.4-4.4-8.65-.74-17.3-1.49-25.95-2.23v8.8c20.83-.57,41.66-.51,62.48.21,5.66.19,5.66-8.61,0-8.8-20.82-.71-41.66-.78-62.48-.21-5.73.16-5.58,8.32,0,8.8,8.65.74,17.3,1.49,25.95,2.23v-8.8c-7.76-.05-15.53-.11-23.29-.17-5.66-.04-5.67,8.76,0,8.8"/>
        <path class="cls-11" d="M86.82,140.48c13.61.33,27.21-.08,40.78-1.24,2.37-.2,4.4-1.88,4.4-4.4,0-2.22-2.02-4.6-4.4-4.4-13.56,1.16-27.17,1.57-40.78,1.24-5.67-.14-5.66,8.66,0,8.8"/>
        <path class="cls-11" d="M88.58,141.03c13.39.79,26.82.65,40.19-.4,2.37-.19,4.4-1.89,4.4-4.4,0-2.24-2.02-4.59-4.4-4.4-13.37,1.05-26.8,1.19-40.19.4-2.37-.14-4.4,2.12-4.4,4.4,0,2.5,2.02,4.26,4.4,4.4"/>
        <path class="cls-11" d="M86.5,139.12c1.39.04,2.78.16,4.16.33.21.03.43.05.64.08-.64-.09-.71-.1-.21-.03.32.05.64.09.96.14.69.1,1.38.2,2.07.29,3.09.42,6.18.8,9.29.5,1.19-.12,2.24-.41,3.11-1.29.76-.76,1.34-2.02,1.29-3.11-.1-2.19-1.95-4.64-4.4-4.4-1.38.13-2.76.15-4.14.07-.75-.04-1.49-.11-2.23-.19-.32-.04-.64-.08-.96-.11-.93-.11.92.13-.26-.04-3.09-.43-6.19-.95-9.32-1.04-2.3-.06-4.5,2.07-4.4,4.4.11,2.44,1.93,4.33,4.4,4.4"/>
        <path class="cls-11" d="M89.6,140.71c4.82.52,9.67.76,14.53.73,2.3-.01,4.51-2.01,4.4-4.4-.11-2.37-1.93-4.42-4.4-4.4-4.85.03-9.7-.21-14.53-.73-1.05-.11-2.4.57-3.11,1.29-.76.76-1.34,2.02-1.29,3.11.05,1.14.42,2.32,1.29,3.11.91.84,1.89,1.16,3.11,1.29"/>
        <path class="cls-11" d="M91.52,140.9c3.84.47,7.72.6,11.58.4,1.17-.06,2.27-.45,3.11-1.29.76-.76,1.34-2.02,1.29-3.11-.1-2.28-1.94-4.53-4.4-4.4-3.87.2-7.74.07-11.58-.4-1.04-.13-2.41.58-3.11,1.29-.76.76-1.34,2.02-1.29,3.11.05,1.14.42,2.32,1.29,3.11.3.23.59.46.89.69.69.4,1.43.6,2.22.6"/>
        <path class="cls-11" d="M94.3,141.36c8.85.32,17.71.26,26.56-.15,2.3-.11,4.51-1.95,4.4-4.4-.1-2.29-1.94-4.51-4.4-4.4-8.85.42-17.7.47-26.56.15-2.3-.08-4.5,2.08-4.4,4.4.11,2.45,1.93,4.31,4.4,4.4"/>
        <path class="cls-11" d="M67.91,137.97c.07-.01.13-.03.2-.04.41-.12.94-.38,1.22-.51.12-.05.24-.12.35-.2.35-.26.71-.51,1.03-.8.05-.04.1-.09.14-.14.28-.33.55-.67.79-1.03.04-.06.08-.12.11-.18.32-.51.49-1.05.52-1.64.13-.58.11-1.17-.08-1.75-.14-.57-.4-1.07-.79-1.5-.31-.48-.72-.86-1.23-1.13l-1.05-.44c-.78-.21-1.56-.21-2.34,0l-1.05.44c-.66.39-1.19.92-1.58,1.58-.05.09-.1.17-.16.24.23-.3.46-.59.69-.89-.09.11-.18.21-.29.29.3-.23.59-.46.89-.69-.12.09-.25.17-.39.23l1.05-.44c-.12.05-.24.08-.37.11-.57.14-1.07.4-1.5.79-.48.31-.86.72-1.13,1.23-.32.51-.5,1.05-.52,1.64-.13.58-.1,1.17.08,1.75l.44,1.05c.39.66.92,1.19,1.58,1.58l1.05.44c.78.21,1.56.21,2.34,0"/>
        <path class="cls-11" d="M67.63,128.87s-.05,0-.08,0c.39.05.78.11,1.17.16-.03,0-.05-.01-.08-.02l1.05.44s-.05-.02-.07-.04l.89.69s-.04-.03-.05-.05l.69.89s-.01-.02-.02-.03c-.88,2.15-1.75,4.31-2.63,6.46.18-.05.37-.09.56-.11-.39.05-.78.1-1.17.16.49-.06.99-.03,1.48.03-.39-.05-.78-.1-1.17-.16.34.05.68.11,1.02.17.58.18,1.17.21,1.75.08.59-.03,1.13-.2,1.64-.52.51-.28.92-.65,1.23-1.13.39-.43.65-.92.79-1.5.05-.39.11-.78.16-1.17,0-.79-.2-1.53-.6-2.22-.23-.3-.46-.59-.69-.89-.55-.55-1.2-.92-1.94-1.13-.26-.05-.53-.1-.79-.14-.63-.1-1.27-.2-1.91-.24-.27-.02-.53-.02-.8,0-.62.05-1.28.12-1.89.29-.74.21-1.39.59-1.94,1.13-.43.4-.73.87-.91,1.42-.27.52-.4,1.09-.38,1.7,0,.8.2,1.53.6,2.22.45.72.97,1.27,1.71,1.7.62.36,1.66.71,2.39.63.61.02,1.17-.1,1.7-.38.55-.18,1.02-.48,1.42-.91.43-.4.73-.87.91-1.42.27-.52.4-1.09.38-1.7-.05-.39-.11-.78-.16-1.17-.21-.74-.59-1.39-1.13-1.94-.3-.23-.59-.46-.89-.69-.69-.4-1.43-.6-2.22-.6"/>
        <path class="cls-11" d="M66.28,137.18c.19,0,.37,0,.56.02.61.02,1.17-.1,1.7-.38.55-.18,1.02-.48,1.42-.91.23-.3.46-.59.69-.89.4-.69.6-1.43.6-2.22,0-.02,0-.03,0-.05-.43,1.04-.86,2.08-1.29,3.11.01-.01.03-.02.04-.04-.65.38-1.29.75-1.94,1.13.02,0,.04-.01.06-.02-.39.05-.78.1-1.17.16.49-.02,1.02.1,1.51.17-.39-.05-.78-.11-1.17-.16,1.58.21,3.14.51,4.68.88,1.13.27,2.37.15,3.39-.44.91-.54,1.78-1.58,2.02-2.63.26-1.13.2-2.39-.44-3.39-.61-.95-1.51-1.75-2.63-2.02-1.24-.3-2.5-.55-3.77-.74-.96-.15-1.92-.28-2.88-.39-.65-.08-1.24-.06-1.89.09-.75.17-1.52.65-2.05,1.18-.55.55-.92,1.2-1.13,1.94-.08.4-.13.81-.16,1.22l4.4-4.4c-.19-.02-.37-.03-.56-.02-1.15.04-2.29.47-3.11,1.29-.76.76-1.34,2.02-1.29,3.11.05,1.14.42,2.32,1.29,3.11.85.78,1.93,1.32,3.11,1.29"/>
        <path class="cls-11" d="M70.55,134.24c.24-1.08.2-1.47.01-2.54,0-.04-.02-.08-.03-.12-.13-.39-.29-.78-.49-1.14.15.35.3.7.44,1.05,0-.01,0-.02,0-.03v2.34s0-.01,0-.02l-.44,1.05s0,0,0-.01l-1.58,1.58s0,0,.01,0l-1.05.44s0,0,.01,0c-.39.05-.78.1-1.17.16.01,0,.02,0,.03,0-.39-.05-.78-.11-1.17-.16.24.04.48.09.7.18l-1.05-.44c.11.04.21.1.3.17-.3-.23-.59-.46-.89-.69.06.05.12.1.17.17.4.43.87.73,1.42.91.52.28,1.09.4,1.7.38.61.02,1.17-.1,1.7-.38.55-.18,1.02-.48,1.42-.91.23-.3.46-.59.69-.89.4-.68.6-1.43.6-2.22-.05-.39-.11-.78-.16-1.17-.21-.74-.59-1.39-1.13-1.94-.05-.06-.1-.11-.15-.15-.31-.26-.63-.51-.96-.74-.03-.02-.06-.04-.08-.05-.03-.02-.07-.03-.1-.05-.37-.17-.75-.33-1.13-.48-.07-.03-.14-.05-.21-.07-.14-.04-.28-.07-.42-.1-.41-.08-.83-.16-1.25-.17-.72,0-1.62.21-2.23.6-.16.1-.32.22-.46.35-.48.31-.86.72-1.13,1.23-.2.33-.37.7-.46,1.08-.05.39-.1.78-.16,1.17.04.4.1.79.16,1.19.11.4.32.76.48,1.14l-.44-1.05s.03.09.04.14c-.05-.39-.11-.78-.16-1.17,0,.05,0,.1,0,.14.05-.39.1-.78.16-1.17,0,.02,0,.04-.01.06-.18.58-.21,1.17-.08,1.75.03.58.2,1.13.52,1.64.28.51.65.92,1.13,1.24.42.39.92.65,1.5.79.39.05.78.11,1.17.16.8,0,1.53-.2,2.22-.6.3-.23.59-.46.89-.69.55-.55.92-1.2,1.13-1.94"/>
        <line class="cls-7" x1="67.32" y1="36.36" x2="68.21" y2="129.73"/>
        <path class="cls-11" d="M127.01,139.97c2.2,0,4.4-.09,6.6-.24,1.18-.08,2.26-.44,3.11-1.29.76-.76,1.34-2.02,1.29-3.11-.05-1.14-.42-2.32-1.29-3.11-.83-.76-1.95-1.37-3.11-1.29-2.2.15-4.4.23-6.6.24-1.13,0-2.31.49-3.11,1.29-.76.76-1.34,2.02-1.29,3.11.05,1.14.42,2.32,1.29,3.11.86.79,1.92,1.29,3.11,1.29"/>
        <path class="cls-11" d="M127.9,139.39l6.15-.31c1.16-.06,2.27-.45,3.11-1.29.43-.4.73-.87.91-1.42.28-.52.4-1.09.38-1.7-.05-1.14-.42-2.32-1.29-3.11-.84-.77-1.94-1.35-3.11-1.29l-6.15.31c-1.16.06-2.27.45-3.11,1.29-.43.4-.73.87-.91,1.42-.27.52-.4,1.09-.38,1.7.05,1.14.42,2.32,1.29,3.11.84.77,1.94,1.35,3.11,1.29"/>
        <path class="cls-11" d="M128.62,138.93c1.95-.26,3.91-.38,5.88-.37,1.13,0,2.32-.49,3.11-1.29.43-.4.73-.87.91-1.42.27-.52.4-1.09.38-1.7-.05-1.14-.42-2.32-1.29-3.11-.86-.79-1.92-1.28-3.11-1.29-1.96,0-3.93.12-5.88.37-.61-.02-1.17.1-1.7.38-.55.18-1.02.48-1.42.91-.43.4-.73.87-.91,1.42-.27.52-.4,1.09-.38,1.7.05,1.14.42,2.32,1.29,3.11.3.23.59.46.89.69.69.4,1.43.6,2.22.6"/>
        <path class="cls-11" d="M123.86,141.23c3.47.2,6.94.41,10.41.61,1.09.07,2.36-.54,3.11-1.29.76-.76,1.34-2.02,1.29-3.11-.11-2.5-1.93-4.25-4.4-4.4-3.47-.2-6.94-.41-10.41-.61-1.09-.06-2.36.54-3.11,1.29-.76.76-1.34,2.02-1.29,3.11.11,2.5,1.93,4.25,4.4,4.4"/>
        <path class="cls-11" d="M116.62,138.31c1.26,1.15,2.5,2.51,4.23,2.93,1.39.34,2.93.33,4.35.39,2.44.1,4.88.06,7.31-.09,1.17-.07,2.26-.44,3.11-1.29.76-.76,1.34-2.02,1.29-3.11-.1-2.26-1.94-4.55-4.4-4.4-3.39.21-6.9.31-10.28-.1.39.05.78.11,1.17.16-.15-.02-.29-.05-.43-.11l1.05.44c-.13-.05-.26-.12-.37-.2.3.23.59.46.89.69-.59-.48-1.14-1.02-1.7-1.53-1.7-1.55-4.57-1.81-6.22,0-1.55,1.69-1.82,4.57,0,6.22"/>
        <path class="cls-11" d="M113.9,140.25c2.6.6,5.29.95,7.96,1.02v-8.8c-1.07.02-2.13-.04-3.19-.17.39.05.78.1,1.17.16-.12-.02-.25-.03-.37-.05-.39,2.88-.78,5.76-1.17,8.64,1.11.03,2.23.06,3.34.09v-8.8c-.91.08-1.82.16-2.73.24.39,2.88.78,5.76,1.17,8.64.17-.03.35-.06.52-.08-.39.05-.78.11-1.17.16.59-.07,1.17-.06,1.75.01-.39-.05-.78-.11-1.17-.16.17.03.35.06.52.09v-8.49c-.18.04-.35.08-.53.11.39-.05.78-.11,1.17-.16-1.01.13-2.01,0-3.02-.12-1.04-.12-2.08-.26-3.12-.39.39.05.78.11,1.17.16-.94-.13-1.89-.26-2.83-.4-.58-.18-1.17-.21-1.75-.08-.58.03-1.13.2-1.64.52-.91.53-1.78,1.58-2.02,2.63-.26,1.13-.2,2.39.44,3.39.58.9,1.53,1.86,2.63,2.02,1.99.29,3.99.57,5.98.81,1.99.25,3.87.49,5.85,0,1.8-.45,3.31-2.36,3.23-4.24-.04-.78-.24-1.53-.6-2.22-.47-.89-1.63-1.82-2.63-2.02-1.79-.37-3.34-.36-5.13-.02-.99.19-2.17,1.14-2.63,2.02-.47.89-.66,1.8-.52,2.81.12.92.5,1.88,1.21,2.53.82.75,1.96,1.39,3.11,1.29.91-.08,1.82-.16,2.73-.24,1.19-.1,2.24-.42,3.11-1.29.76-.76,1.34-2.02,1.29-3.11-.11-2.44-1.93-4.33-4.4-4.4-1.11-.03-2.23-.06-3.34-.09-2.19-.06-4.04,1.72-4.32,3.82-.12.94,0,1.99.52,2.81.58.89,1.53,1.86,2.63,2.02,1.58.23,3.13.41,4.73.38,1.14-.02,2.3-.48,3.11-1.29.76-.76,1.34-2.02,1.29-3.11-.11-2.44-1.93-4.33-4.4-4.4-1.24-.03-2.47-.13-3.69-.29.39.05.78.1,1.17.16-1.04-.14-2.07-.33-3.1-.57-1.14-.26-2.36-.16-3.39.44-.91.53-1.78,1.58-2.02,2.63-.26,1.13-.2,2.39.44,3.39.61.94,1.51,1.77,2.63,2.02"/>
        <path class="cls-11" d="M92.62,140.7c.2,0,.4.02.6.05-.39-.05-.78-.1-1.17-.16.48.07.95.2,1.4.38-.35-.15-.7-.3-1.05-.44.57.24,1.11.5,1.68.73.1.04.21.08.32.1.04,0,.07.01.11.02.39.05.78.11,1.17.16.08,0,.15.01.22,0v-8.8c-.85.04-1.71.02-2.56-.08-.61-.02-1.17.1-1.7.38-.55.18-1.02.48-1.42.91-.43.4-.73.87-.91,1.42-.28.52-.4,1.09-.38,1.7.05.39.1.78.16,1.17.21.74.59,1.39,1.13,1.94.3.23.59.46.89.69.69.4,1.43.6,2.22.6.85.1,1.7.12,2.56.08.61.02,1.17-.1,1.7-.38.55-.18,1.02-.48,1.42-.91.43-.4.73-.87.91-1.42.28-.52.4-1.09.38-1.7-.05-.39-.11-.78-.16-1.17-.21-.75-.59-1.39-1.13-1.94-.3-.23-.59-.46-.89-.69-.69-.4-1.43-.6-2.22-.6-.08,0-.15,0-.22,0,.39.05.78.1,1.17.16-.17-.03-.33-.08-.48-.15.35.15.7.3,1.05.44-.75-.33-1.49-.72-2.29-.94-.22-.06-.45-.11-.68-.14-.6-.09-1.22-.2-1.83-.21-.61-.02-1.17.1-1.7.38-.55.18-1.02.48-1.42.91-.43.4-.73.87-.91,1.42-.27.52-.4,1.09-.38,1.7.05.39.11.78.16,1.17.21.74.59,1.39,1.13,1.94.3.23.59.46.89.69.69.4,1.43.6,2.22.6"/>
        <path class="cls-11" d="M127.3,138.51c2.3-.05,4.6-.12,6.89.1.61.02,1.17-.1,1.7-.38.55-.18,1.02-.48,1.42-.91.76-.76,1.34-2.02,1.29-3.11-.05-1.14-.42-2.32-1.29-3.11-.3-.23-.59-.46-.89-.69-.69-.4-1.43-.6-2.22-.6-2.29-.22-4.59-.15-6.89-.1-1.14.02-2.3.48-3.11,1.29-.76.76-1.34,2.02-1.29,3.11.05,1.14.42,2.32,1.29,3.11.85.78,1.93,1.31,3.11,1.29"/>
        <rect class="cls-7" x="134.12" y="130.73" width="3.85" height="10.15"/>
        <rect class="cls-12" x="80.81" y="53.5" width="44.58" height="53.39"/>
        <rect class="cls-1" x="80.81" y="53.5" width="44.58" height="53.39"/>
        <path class="cls-10" d="M97.51,70.38s0,.08,0,.12c.03.38.06.86.18,1.27.12.43.29.85.52,1.23.22.35.48.66.75.97.03.03.05.06.08.09.01.01.03.02.04.04.15.12.3.24.46.36.15.12.31.24.46.35.03.02.07.05.1.07.03.02.07.04.11.05l1.05.44s.02,0,.03.01c.02,0,.04.01.05.02.44.13.91.17,1.37.19.04,0,.08,0,.12,0,.39-.05.78-.11,1.17-.16.01,0,.02,0,.04,0,.02,0,.04,0,.05-.01.02,0,.04-.01.05-.02.01,0,.02,0,.03-.01.35-.15.7-.3,1.05-.44.04-.02.08-.04.11-.06.3-.23.59-.46.89-.69.43-.4.73-.87.91-1.42.2-.34.3-.71.3-1.11.13-.58.11-1.17-.08-1.75-.01-.06-.03-.13-.05-.19-.07-.2-.17-.42-.25-.6-.08-.18-.17-.42-.27-.62-.03-.06-.06-.11-.1-.17-.25-.36-.51-.7-.8-1.03-.04-.05-.09-.1-.14-.14-.33-.29-.67-.56-1.04-.8-.05-.03-.11-.06-.16-.09,0,0-.01,0-.02-.01-.35-.15-.7-.3-1.05-.44-.39-.05-.78-.1-1.17-.16-.39.05-.78.11-1.17.16,0,0-.01,0-.02,0l-1.05.44s-.03.02-.05.03c-.35.22-.71.46-.99.77-.24.26-.59.64-.77,1.02-.47,1.01-.44.88-.56,1.76-.12.86-.13.84.08,1.9.08.42.29.81.49,1.18,0,.01.01.02.02.03.11.15.23.3.34.45.31.48.72.86,1.24,1.13.17.07.35.15.52.22.18.08.36.15.55.23.02,0,.04.02.07.02.06.02.12.03.18.04.17.03.93.18,1.35.17.04,0,.08,0,.11,0,.36-.04.84-.1,1.19-.16.02,0,.04,0,.06,0,.07-.02.14-.04.21-.07.08-.03.79-.3,1.13-.48.03-.02.07-.04.1-.06.37-.24.73-.51,1.05-.82.43-.4.73-.87.91-1.42.28-.52.4-1.09.38-1.7-.05-.39-.11-.78-.16-1.17-.21-.74-.59-1.39-1.13-1.94-.32-.31-.68-.58-1.05-.82-.21-.14-.51-.23-.71-.32-.21-.09-.48-.23-.73-.29-.22-.05-.49-.07-.69-.1-.2-.03-.46-.08-.69-.09-.07,0-.15,0-.22,0-.42.05-.85.09-1.27.17-.03,0-.07.02-.1.02-.43.13-.85.32-1.25.52-.03.02-.06.04-.09.05-.34.22-.66.5-.98.75-.55.55-.92,1.2-1.13,1.94-.21.78-.21,1.56,0,2.34.21.74.59,1.39,1.13,1.94.55.55,1.2.92,1.94,1.13.05.01.1.03.15.05-.35-.15-.7-.3-1.05-.44.09.04.17.09.25.14-.3-.23-.59-.46-.89-.69.08.06.14.13.2.2-.23-.3-.46-.59-.69-.89.06.08.11.17.15.27l-.44-1.05c.04.09.06.18.07.28-.05-.39-.11-.78-.16-1.17,0,.07,0,.13,0,.2-.02.61.1,1.17.38,1.7.18.55.48,1.02.91,1.42.4.43.87.73,1.42.91.52.27,1.09.4,1.7.38.39-.05.78-.11,1.17-.16.74-.21,1.39-.59,1.94-1.13.23-.3.46-.59.69-.89.4-.69.6-1.43.6-2.22,0-.07,0-.13,0-.2-.01-.14-.07-.95-.2-1.35-.01-.03-.02-.06-.03-.09-.14-.35-.3-.74-.46-1.08,0-.01-.01-.03-.02-.04-.03-.06-.07-.12-.11-.18-.21-.29-.48-.63-.7-.91-.01-.02-.02-.03-.04-.04-.02-.02-.04-.05-.07-.07-.31-.3-.68-.55-1.02-.8-.06-.04-.12-.08-.18-.11-.18-.08-.39-.16-.56-.24-.16-.07-.38-.17-.57-.24-.04-.01-.07-.02-.11-.03.65,2.45,1.3,4.9,1.94,7.36,0,0,.01,0,.02-.01-.3.23-.59.46-.89.69.07-.06.15-.1.24-.14l-1.05.44c.1-.04.2-.07.31-.08-.39.05-.78.11-1.17.16.11-.01.23-.01.34,0-.39-.05-.78-.11-1.17-.16.11.02.21.04.31.09l-1.05-.44c.09.04.18.09.26.15-.3-.23-.59-.46-.89-.69.03.03.07.06.1.09v-6.22s-.07.06-.1.09c.3-.23.59-.46.89-.69-.07.05-.15.1-.24.14l1.05-.44c-.09.04-.19.06-.29.08.39-.05.78-.11,1.17-.16-.1.01-.2.01-.3,0,.39.05.78.1,1.17.16-.09-.01-.18-.04-.26-.07.88.67,1.75,1.35,2.63,2.02-.01-.02-.02-.04-.04-.07l.44,1.05s-.02-.07-.03-.11c.05.39.11.78.16,1.17,0-.04,0-.09,0-.13-.05.39-.11.78-.16,1.17,0-.04.02-.09.04-.13-.15.35-.3.7-.44,1.05.02-.04.04-.08.07-.11l-.69.89s.05-.05.08-.08c-.3.23-.59.46-.89.69.02-.02.05-.03.08-.05l-1.05.44s.01,0,.02,0l-3.39-.44c.09.04.18.1.26.15-.3-.23-.59-.46-.89-.69.1.08.2.17.28.28-.23-.3-.46-.59-.69-.89.08.1.14.2.19.32-.15-.35-.3-.7-.44-1.05.04.09.06.17.08.27.67-1.66,1.35-3.31,2.02-4.97-.04.02-.07.04-.11.06l1.05-.44c-.06.02-.11.04-.17.05.39-.05.78-.1,1.17-.16-.07,0-.13,0-.2,0,.39.05.78.1,1.17.16-.07-.01-.14-.03-.21-.06l1.05.44c-.08-.03-.15-.08-.22-.13.3.23.59.46.89.69-.06-.05-.11-.1-.15-.15.23.3.46.59.69.89-.04-.05-.07-.1-.09-.15l.44,1.05c-.02-.05-.04-.11-.05-.17.05.39.11.78.16,1.17,0-.04,0-.09,0-.13.02-.61-.1-1.17-.38-1.7-.18-.55-.48-1.02-.91-1.42-.4-.43-.87-.73-1.42-.91-.52-.27-1.09-.4-1.7-.38-.39.05-.78.11-1.17.16-.74.21-1.39.59-1.94,1.13-.23.3-.46.59-.69.89-.4.69-.6,1.43-.6,2.22"/>
        <path class="cls-10" d="M95.3,79.56c.31.28.64.54.99.76.04.03.08.05.12.07.35.16.77.37,1.17.49.39.11,1.25.18,1.28.18.04,0,.09,0,.14,0,.43,0,.86-.1,1.28-.17.05,0,.09-.02.13-.03.2-.07.45-.19.59-.25.17-.07.4-.15.59-.25.3-.23.59-.46.89-.69.23-.3.46-.59.69-.89l.44-1.05c.18-.59.21-1.17.08-1.75,0-.4-.1-.77-.3-1.11-.11-.37-.29-.7-.57-.97-.2-.33-.46-.59-.79-.79-.43-.39-.92-.65-1.5-.79-.13-.05-.27-.08-.41-.11-.04,0-.07-.01-.11-.02-.4-.06-.82-.12-1.23-.16-.07,0-.14-.01-.21-.02-.14,0-.27,0-.41.02-.47.05-1.06.1-1.55.24-.57.14-1.07.4-1.5.79-.48.31-.86.72-1.13,1.23-.32.51-.49,1.05-.52,1.64-.13.58-.11,1.17.08,1.75.15.35.3.7.44,1.05.39.66.92,1.19,1.58,1.58l1.05.45c.78.21,1.56.21,2.34,0,.12-.03.24-.06.36-.08-.39.05-.78.1-1.17.16.23-.03.47-.03.7,0-.39-.05-.78-.1-1.17-.16.18.02.35.07.52.13-.35-2.68-.7-5.36-1.05-8.04-.02.01-.04.02-.06.03l1.05-.44c-.07.03-.14.05-.22.06.39-.05.78-.1,1.17-.16-.08,0-.15,0-.23,0,.39.05.78.11,1.17.16-.08-.01-.15-.03-.22-.06l1.05.44c-.06-.03-.12-.06-.18-.1l.89.69s-.04-.03-.05-.04c-.4-.43-.87-.73-1.42-.91-.52-.28-1.09-.4-1.7-.38-.61-.02-1.17.1-1.7.38-.55.18-1.02.48-1.42.91-.23.3-.46.59-.69.89-.4.69-.6,1.43-.6,2.22.05.39.1.78.16,1.17.21.74.59,1.39,1.13,1.94"/>
        <path class="cls-10" d="M105.64,81.5c.15.05.31.09.47.12.54.1,1.08.18,1.63.21.16.01.32.01.48,0,.55-.04,1.09-.12,1.63-.21.74-.21,1.39-.59,1.94-1.13.43-.4.73-.87.91-1.42.27-.52.4-1.09.38-1.7,0-.79-.2-1.53-.6-2.22-.26-.35-.51-.72-.81-1.04-.29-.3-.83-.67-1.03-.82-.05-.04-.1-.08-.16-.11-.36-.21-.99-.44-1.23-.53-.47-.18-1.11-.21-1.54-.26-.07,0-.15-.01-.22,0-.46.02-.91.1-1.36.18,1.43,2.45,2.86,4.9,4.28,7.35.11-.1.23-.2.35-.31.43-.4.73-.87.91-1.42.28-.52.4-1.09.38-1.7.02-.61-.1-1.17-.38-1.7-.18-.55-.48-1.02-.91-1.42-.3-.23-.59-.46-.89-.69-.69-.4-1.43-.6-2.22-.6-.39.05-.78.11-1.17.16-.75.21-1.39.59-1.94,1.13-.12.1-.23.2-.35.31-.23.3-.46.59-.69.89-.32.5-.49,1.05-.52,1.64-.11.39-.11.78,0,1.17.03.58.2,1.13.52,1.64.23.3.46.59.69.89.3.23.59.46.89.69.51.32,1.05.5,1.64.52.58.13,1.17.1,1.75-.08.03,0,.05,0,.08-.01-.39.05-.78.1-1.17.16.12-.01.24-.01.36,0-.39-.05-.78-.1-1.17-.16.12.02.23.05.34.1l-1.05-.44c.12.05.23.11.33.19-.3-.23-.59-.46-.89-.69.09.07.16.14.23.23-.23-.3-.46-.59-.69-.89.01.01.02.03.03.04.88-2.15,1.75-4.31,2.63-6.47-.07.01-.14.02-.21.03.39-.05.78-.11,1.17-.16-.35.04-.69.04-1.04,0,.39.05.78.11,1.17.16-.22-.03-.43-.08-.64-.14-.58-.18-1.17-.21-1.75-.08-.58.03-1.13.2-1.64.52-.51.28-.92.65-1.24,1.13-.39.42-.65.92-.79,1.5-.05.39-.11.78-.16,1.17,0,.8.2,1.53.6,2.22.23.3.46.59.69.89.55.55,1.2.92,1.94,1.13"/>
        <path class="cls-10" d="M92.16,86.74c.36.05.83.13,1.2.16.02,0,.03,0,.05,0,.04,0,.08,0,.11,0,.27-.03.93-.11,1.2-.16.02,0,.03,0,.05,0,.04-.01.07-.02.11-.04l1.05-.44s.02,0,.02-.01c.01,0,.03-.02.04-.02.03-.02.06-.04.09-.06l.89-.69s.01-.01.02-.02c.02-.01.03-.03.05-.04.01-.01.02-.02.03-.04.23-.26.5-.64.71-.92l.44-1.05c.18-.58.21-1.17.08-1.75,0-.4-.1-.77-.3-1.11-.18-.55-.48-1.02-.91-1.42-.32-.25-.64-.5-.96-.74-.04-.03-.07-.05-.11-.08-.07-.05-.14-.09-.21-.13-.07-.04-.14-.08-.22-.11-.2-.1-.42-.18-.62-.26-.21-.09-.42-.18-.63-.26-.15-.06-.3-.1-.46-.13-.04,0-.09-.01-.13-.02-.42-.06-.84-.12-1.26-.17-.09-.01-.17-.02-.26-.02-.39.05-.78.1-1.17.16-.57.14-1.07.4-1.5.79-.33.2-.59.46-.79.79-.39.42-.65.92-.79,1.5-.05.39-.11.78-.16,1.17.05.39.1.78.16,1.17.14.57.4,1.07.79,1.5.31.48.72.86,1.24,1.13.02,0,.04.02.05.03.34.15.74.32,1.09.46.04.01.08.03.11.04.09.03.17.05.26.06.37.05.83.12,1.2.16.02,0,.04,0,.06,0,.04,0,.09,0,.14,0,.04,0,.08,0,.12,0,.21-.02.46-.06.64-.09.21-.03.43-.05.64-.09.57-.14,1.07-.4,1.5-.79.48-.31.86-.72,1.13-1.23l.44-1.05c.18-.58.21-1.17.08-1.75,0-.4-.1-.77-.3-1.11-.18-.55-.48-1.02-.91-1.42-.3-.23-.59-.46-.89-.69-.69-.4-1.43-.6-2.22-.6-.21,0-.42,0-.64,0-.61-.02-1.17.1-1.7.38-.55.18-1.02.48-1.42.91-.43.4-.73.87-.91,1.42-.28.52-.4,1.09-.38,1.7.05.39.11.78.16,1.17.21.74.59,1.39,1.13,1.94.3.23.59.46.89.69.69.4,1.43.6,2.22.6.21,0,.42,0,.64,0-.39-2.88-.78-5.76-1.17-8.64-.02,0-.04,0-.06,0,.39-.05.78-.1,1.17-.16-.13.02-.26.02-.39,0,.39.05.78.11,1.17.16-.14-.02-.27-.05-.4-.11l1.05.44s-.05-.02-.08-.04c-.74,2.73-1.48,5.47-2.22,8.2.11,0,.21.01.32.02-.39-.05-.78-.1-1.17-.16.25.04.49.1.73.2l-1.05-.44c.22.1.43.22.63.36-.3-.23-.59-.46-.89-.69.02.02.05.04.07.05-.23-1.78-.46-3.56-.69-5.33,0,0-.01.01-.02.02.23-.3.46-.59.69-.89-.03.04-.07.08-.11.11.3-.23.59-.46.89-.69-.05.04-.1.07-.15.09l1.05-.44c-.06.02-.11.04-.17.05.39-.05.78-.1,1.17-.16-.06,0-.12,0-.18,0,.39.05.78.11,1.17.16,0,0-.02,0-.03,0-.58-.18-1.17-.21-1.75-.08-.58.03-1.13.2-1.64.52-.51.28-.92.65-1.24,1.13-.39.42-.65.92-.79,1.5-.05.39-.11.78-.16,1.17,0,.8.2,1.53.6,2.22.23.3.46.59.69.89.55.55,1.2.92,1.94,1.13"/>
        <path class="cls-10" d="M111.12,86.51c5.66,0,5.67-8.8,0-8.8s-5.67,8.8,0,8.8"/>
        <path class="cls-10" d="M97.04,86.3c3.46.12,6.91.06,10.36-.18,1.18-.08,2.26-.44,3.11-1.29.76-.76,1.34-2.02,1.29-3.11-.05-1.14-.42-2.32-1.29-3.11-.83-.76-1.95-1.37-3.11-1.29-3.45.24-6.91.3-10.36.18-2.3-.08-4.5,2.08-4.4,4.4.11,2.45,1.93,4.32,4.4,4.4"/>
        <path class="cls-10" d="M96.65,85.94c3.45,0,6.89-.15,10.32-.48-.39-2.88-.78-5.76-1.17-8.64-.49.2-.99.33-1.52.4.39-.05.78-.1,1.17-.16-2,.23-4.01-.23-6.02-.16-1.53.05-3.26.11-4.62.89-2.55,1.46-3.27,5.35-1.01,7.42,2.21,2.03,5.51,1.53,8.29,1.44,2.21-.07,4.42-.22,6.62-.42,1.19-.11,2.24-.42,3.11-1.29.76-.76,1.34-2.02,1.29-3.11-.11-2.42-1.93-4.36-4.4-4.4-4.35-.07-8.69.11-13.02.55-1.2.12-2.23.41-3.11,1.29-.76.76-1.34,2.02-1.29,3.11.11,2.44,1.93,4.33,4.4,4.4,5.14.14,10.28.18,15.42.1,2.3-.04,4.51-2,4.4-4.4-.11-2.36-1.93-4.44-4.4-4.4-5.14.08-10.28.04-15.42-.1v8.8c4.32-.44,8.67-.62,13.02-.55v-8.8c-1.9.17-3.81.3-5.72.38-1.85.08-3.76.23-5.61.08.39.05.78.1,1.17.16-.44-.11-.25-.02.58.25l1.58,1.58s-.05-.08-.08-.12c.2.74.4,1.48.6,2.22,0-.05,0-.1,0-.15-.2.74-.4,1.48-.6,2.22.02-.05.05-.1.07-.14-.53.53-1.05,1.05-1.58,1.58-.58.43-1.06.32-.29.21-.39.05-.78.11-1.17.16,1.68-.21,3.31-.13,4.99,0,1.82.15,3.77.14,5.48-.55,1.05-.42,2.07-.96,2.63-2.02.47-.89.66-1.81.52-2.81-.27-1.99-2.14-4.02-4.32-3.81-3.43.33-6.87.48-10.32.48-2.3,0-4.51,2.03-4.4,4.4.11,2.39,1.93,4.4,4.4,4.4"/>
        <path class="cls-10" d="M113.28,87.1c5.66,0,5.67-8.8,0-8.8s-5.67,8.8,0,8.8"/>
        <path class="cls-10" d="M91.57,86.51c5.66,0,5.67-8.8,0-8.8s-5.67,8.8,0,8.8"/>
        <path class="cls-10" d="M91.17,85.14c5.66,0,5.67-8.8,0-8.8s-5.67,8.8,0,8.8"/>
        <path class="cls-10" d="M95.87,81.04c5.66,0,5.67-8.8,0-8.8s-5.67,8.8,0,8.8"/>
        <path class="cls-10" d="M108.58,81.04c5.66,0,5.67-8.8,0-8.8s-5.67,8.8,0,8.8"/>
        <path class="cls-10" d="M110.34,81.23c5.66,0,5.67-8.8,0-8.8s-5.67,8.8,0,8.8"/>
        <path class="cls-10" d="M109.56,80.45c5.66,0,5.67-8.8,0-8.8s-5.67,8.8,0,8.8"/>
        <path class="cls-10" d="M110.54,80.25c5.66,0,5.67-8.8,0-8.8s-5.67,8.8,0,8.8"/>
        <path class="cls-10" d="M106.43,78.69c5.66,0,5.67-8.8,0-8.8s-5.67,8.8,0,8.8"/>
        <path class="cls-10" d="M95.48,80.06c5.66,0,5.67-8.8,0-8.8s-5.67,8.8,0,8.8"/>
        <path class="cls-10" d="M104.67,74.78c5.66,0,5.67-8.8,0-8.8s-5.67,8.8,0,8.8"/>
        <path class="cls-10" d="M103.5,74.19c5.66,0,5.67-8.8,0-8.8s-5.67,8.8,0,8.8"/>
        <path class="cls-10" d="M102.71,74.39c5.66,0,5.67-8.8,0-8.8s-5.67,8.8,0,8.8"/>
        <path class="cls-10" d="M106.63,78.1c5.66,0,5.67-8.8,0-8.8s-5.67,8.8,0,8.8"/>
        <path class="cls-10" d="M88.72,80.58c-.65,1.67.07,3.72,1.31,4.92,1.27,1.22,2.88,1.42,4.56,1.44,1.82.02,3.65.05,5.47.07,3.77.05,7.54.1,11.31.15,2.3.03,4.51-2.05,4.4-4.4-.11-2.41-1.93-4.37-4.4-4.4-2.98-.04-5.96-.08-8.93-.12-1.46-.02-2.92-.04-4.38-.06-.73-.01-1.46-.02-2.19-.03-.36,0-.73-.01-1.09-.01-.18,0-.36,0-.55,0-1.46-.08-.63.5,2.49,1.74.2.74.4,1.48.6,2.22-.04.28-.07.55-.11.83.84-2.15-.92-4.92-3.07-5.41-2.53-.58-4.51.77-5.41,3.07"/>
        <path class="cls-10" d="M90.47,86.85c5.66,0,5.67-8.8,0-8.8s-5.67,8.8,0,8.8"/>
        <path class="cls-10" d="M89.51,87.44c5.66,0,5.67-8.8,0-8.8s-5.67,8.8,0,8.8"/>
        <path class="cls-10" d="M93.18,87.35l2.31.05c2.19.04,4.04-1.71,4.32-3.82.27-2.02-1-4.4-3.15-4.83-2.06-.41-4.17-.43-6.16.3-2.08.76-3.46,2.54-3.15,4.83.28,2.08,2.12,3.9,4.32,3.81,6.16-.23,12.31-.49,18.46-.8,2.3-.11,4.51-1.94,4.4-4.4-.1-2.29-1.94-4.52-4.4-4.4-6.15.31-12.3.57-18.46.8.39,2.88.78,5.76,1.17,8.64.25-.09.51-.18.77-.25.1-.03.21-.05.32-.07.33-.07.21-.05-.37.04.03.04.58-.02.65-.02,1.03-.05-.9-.2.12,0,.39-2.88.78-5.76,1.17-8.64l-2.31-.05c-2.3-.05-4.51,2.06-4.4,4.4.11,2.42,1.93,4.35,4.4,4.4"/>
        <path class="cls-10" d="M103.89,74.09c5.66,0,5.67-8.8,0-8.8s-5.67,8.8,0,8.8"/>
        <rect class="cls-9" x="118.01" y="129.98" width="5.69" height="24.06"/>
        <rect class="cls-8" x="118.01" y="129.98" width="5.69" height="24.06"/>
        <line class="cls-5" x1="117.12" y1="155.01" x2="120.85" y2="152.36"/>
        <line class="cls-5" x1="114.72" y1="152.96" x2="114.75" y2="152.96"/>
        <line class="cls-5" x1="120.85" y1="152.36" x2="124.47" y2="154.79"/>
        <path class="cls-13" d="M125.05,160.03s.01-.06.02-.08c0-.01,0-.03,0-.04.07-.4.11-.8.16-1.21,0-.06.01-.11,0-.17.02-.61-.1-1.17-.38-1.7-.18-.55-.48-1.02-.91-1.42-.4-.43-.87-.73-1.42-.91-.52-.28-1.09-.4-1.7-.38l-1.17.16c-.74.21-1.39.59-1.94,1.13-.23.3-.46.59-.69.89-.4.69-.6,1.43-.6,2.22,0,.06,0,.12,0,.17.05-.39.1-.78.16-1.17,0,.05-.02.11-.03.16-.18.58-.21,1.17-.08,1.75.03.58.2,1.13.52,1.64.28.51.65.92,1.13,1.24.42.39.92.65,1.5.79.39.05.78.11,1.17.16.8,0,1.53-.2,2.22-.6.3-.23.59-.46.89-.69.55-.55.92-1.2,1.13-1.94"/>
        <path class="cls-13" d="M120.81,153.2c-1.15.07-2.21.51-3.03,1.33-.81.81.03,2.06,1.07,1.84.62-.13,1.23-.39,1.74-.75.09-.07.18-.14.27-.2.06-.04.12-.08.19-.12-.04.02-.08.04-.12.04,0,.04-.31-.15.02.03.11.06.21.13.32.2.29.2.58.4.87.6.14.1.29.2.43.3.04.02.32.22.22.15.09.07.18.15.25.24-.05-.07-.05-.05.03.06-.03-.03-.04-.06-.04-.1.06-.09.15-.23.2-.32.12-.04.11-.04-.01,0-.12.02-.14.03-.06.02.1-.01-.23,0-.28,0-.12,0-.25,0-.38,0-.32,0-.64.01-.96.04-.67.05-1.34.14-1.99.26-1.29.25-2.53.68-3.71,1.24-.54.25-.68,1.03-.4,1.5.32.55.97.65,1.51.4.99-.47,2.08-.81,3.19-1.02.55-.11.98-.16,1.55-.2.54-.03,1.09.01,1.63-.04.69-.07,1.31-.33,1.68-.94.38-.63.3-1.5-.11-2.09-.35-.52-.87-.86-1.38-1.22-.5-.35-1-.76-1.54-1.03-.73-.36-1.52-.35-2.2.11-.55.37-.88.59-1.49.73.36.61.71,1.23,1.07,1.84.23-.23.4-.36.75-.52-.1.05.05-.02.07-.02.08-.02.15-.05.23-.07.03,0,.3-.07.21-.05-.07.01.21-.02.21-.02.59-.04,1.1-.48,1.1-1.1,0-.57-.5-1.14-1.1-1.1"/>
        <path class="cls-13" d="M121.79,153.6s-.02-.02-.03-.02c.07.06.15.11.22.17-.05-.04-.1-.09-.14-.14.06.07.11.15.17.22-.04-.06-.08-.12-.11-.18.04.09.07.17.11.26-.03-.07-.05-.15-.06-.23.01.1.03.2.04.29,0-.07,0-.15,0-.22-.01.1-.03.2-.04.29,0-.04.02-.08.03-.13.05-.15.05-.29.02-.44,0-.15-.05-.28-.13-.41-.07-.13-.16-.23-.28-.31-.11-.1-.23-.16-.37-.2-.1-.01-.2-.03-.29-.04-.2,0-.38.05-.55.15-.07.06-.15.11-.22.17-.14.14-.23.3-.28.49-.03.09-.04.18-.05.27-.01.09-.03.18-.03.28,0,.14.03.28.05.42,0,.05.02.09.04.13.04.13.1.25.16.37.02.04.04.08.07.12.08.11.16.22.25.32.1.1.21.18.32.26.13.08.26.12.41.13.15.03.29.02.44-.02.14-.03.27-.1.37-.2.12-.08.21-.18.28-.31l.11-.26c.05-.2.05-.39,0-.58l-.11-.26c-.1-.17-.23-.3-.39-.39"/>
        <path class="cls-13" d="M124.83,156.95c-.02-.24-.05-.48-.08-.72-.04-.37-.08-.74-.29-1.06-.28-.44-.74-.73-1.15-1.05-.36.61-.71,1.23-1.07,1.84.1.02.19.05.29.09l-.26-.11c.15.06.28.14.41.23-.07-.06-.15-.11-.22-.17.15.11.27.24.42.36.29.23.52.38.86.51.41.16.88.18,1.32.19.28,0,.58-.13.78-.32.19-.19.33-.5.32-.78-.03-.61-.48-1.09-1.1-1.1-.2,0-.4-.01-.6-.04.1.01.19.03.29.04-.15-.02-.3-.06-.45-.12.09.04.17.07.26.11-.1-.05-.2-.1-.29-.17.07.06.15.11.22.17-.26-.2-.49-.43-.76-.62-.27-.19-.59-.32-.91-.4-.46-.11-1.01.07-1.24.51-.09.17-.14.36-.15.55-.01.24.12.62.32.78.17.13.34.26.51.4.15.11.3.22.42.37l-.17-.22c.04.06.08.11.11.18-.04-.09-.07-.18-.11-.26.03.08.05.17.06.26-.01-.1-.03-.2-.04-.29.04.28.06.57.09.85.03.3.1.56.32.78.19.19.5.33.78.32.29-.01.58-.11.78-.32.18-.2.35-.49.32-.78"/>
        <path class="cls-13" d="M122.58,154.33s-.01-.05-.02-.08c0-.02-.01-.03-.02-.04-.04-.1-.08-.2-.12-.29-.01-.02-.02-.05-.04-.07-.07-.1-.15-.19-.22-.29.06.07.12.15.17.22-.01-.02-.02-.03-.03-.05.04.09.07.17.11.26,0,0,0-.01,0-.02.01.1.03.2.04.29v-.02c-.01.1-.03.2-.04.29,0,0,0-.01,0-.02-.04.09-.07.17-.11.26,0,0,0-.01.01-.02-.06.07-.11.15-.17.22,0,0,0,0,.02-.01-.08.06-.15.12-.22.17,0,0,.02,0,.02-.01l-.26.11s.06-.02.09-.02c-.1.01-.2.03-.29.04.02,0,.04,0,.07,0-.1-.01-.2-.03-.29-.04.01,0,.02,0,.04.01l-.26-.11s.02,0,.02.01c-.07-.06-.15-.11-.22-.17.02.02.03.03.05.05-.06-.08-.11-.15-.17-.22.08.11.16.22.24.34.07.13.16.23.28.31.11.1.23.16.37.2.15.05.29.05.44.02.15,0,.28-.05.41-.13.07-.06.15-.11.22-.17.14-.14.23-.3.28-.49.01-.1.03-.19.04-.29,0-.2-.05-.38-.15-.55-.06-.09-.12-.17-.18-.25-.08-.11-.16-.22-.25-.33-.07-.08-.17-.15-.26-.21,0,0-.01,0-.02,0l-.26-.11s-.02,0-.04,0c-.07-.01-.24-.05-.35-.04-.11.01-.23.02-.35.05-.02,0-.03,0-.05.01,0,0-.2.07-.28.12-.04.03-.08.06-.12.09-.04.03-.08.06-.12.09-.3.29-.42.74-.3,1.14.07.26.17.37.34.58-.06-.07-.11-.15-.17-.22.03.04.05.08.08.13-.04-.09-.07-.17-.11-.26.02.04.03.09.04.13.03.14.1.27.2.37.08.12.18.21.31.28.13.08.26.12.41.13.15.03.29.03.44-.02l.26-.11c.17-.1.3-.23.39-.39.04-.09.07-.18.11-.26.05-.19.05-.39,0-.58"/>
        <path class="cls-13" d="M124.31,156.85c.14-.04.28-.07.43-.09.14-.04.27-.1.37-.2.12-.08.21-.18.28-.31.08-.13.12-.26.13-.41.03-.15.03-.29-.02-.44-.04-.09-.07-.18-.11-.26-.1-.17-.23-.3-.39-.4l-.26-.11c-.2-.05-.39-.05-.58,0-.14.03-.29.06-.43.09-.14.03-.27.1-.37.2-.12.08-.21.18-.28.31-.08.13-.12.26-.13.41-.03.15-.03.29.02.44.04.09.07.18.11.26.1.17.23.3.39.39l.26.11c.19.05.39.05.58,0"/>
        <path class="cls-13" d="M120.85,154.48s.04,0,.07,0c0-.03,0-.06,0-.1,0-.08,0-.15,0-.23,0-.26,0-.52,0-.78s0-.52,0-.78c0-.06,0-.11,0-.17,0-.05,0-.1,0-.15-.03,0-.06,0-.09,0v2.2s.03-.03.05-.04c0-.03,0-.06,0-.1,0-.08,0-.15,0-.23,0-.26,0-.52,0-.78s0-.52,0-.78c0-.06,0-.11,0-.17,0-.05,0-.1,0-.15-.02,0-.04,0-.07,0v2.2s.09-.03.14-.02v-2.2c-.08.03-.17.04-.25.03,0,0,0,.37,0,.32,0,.26,0,.52,0,.78s0,.52,0,.78c0,.06,0,.12,0,.17,0,.05,0,.1,0,.15.08,0,.17,0,.25-.03,0-.03,0-.06,0-.1,0-.08,0-.15,0-.23,0-.26,0-.52,0-.78s0-.52,0-.78v-.17c0-.05,0-.1,0-.15-.05-.02-.1-.01-.14.02,0,.03,0,.06,0,.1,0,.08,0,.15,0,.23,0,.26,0,.52,0,.78s0,.52,0,.78c0,.06,0,.11,0,.17,0,.05,0,.1,0,.15.02,0,.04,0,.07,0v-2.2s-.04.02-.05.04c0,.03,0,.06,0,.1,0,.08,0,.15,0,.23,0,.26,0,.52,0,.78,0,.26,0,.52,0,.78,0,.06,0,.11,0,.17,0,.05,0,.1,0,.15.03,0,.06,0,.09,0v-2.2s-.04.01-.07,0c0,.03,0,.06,0,.1,0,.08,0,.15,0,.23,0,.26,0,.52,0,.78s0,.52,0,.78c0,.06,0,.11,0,.17,0,.05,0,.1,0,.15"/>
        <path class="cls-13" d="M120.71,154.4s.08-.06.13-.05c.06,0,.1.06.14.1,0-.03,0-.06,0-.09,0-.08,0-.15,0-.23,0-.26,0-.52,0-.78s0-.52,0-.78c0-.06,0-.11,0-.17,0-.05,0-.1,0-.15-.01-.02-.03-.05-.05-.07-.02-.02-.05-.05-.08-.04-.01,0-.02.02-.03.03-.01.01-.02.02-.03.04-.02.03-.04.06-.05.09,0,.03,0,.06,0,.1,0,.08,0,.15,0,.23,0,.26,0,.52,0,.78s0,.52,0,.78v.17c0,.05,0,.1,0,.15.02-.03.03-.06.05-.08.01-.01.02-.03.03-.04,0-.01.02-.03.03-.03.03-.01.06.02.08.04.02.02.04.05.05.07v-2.2s-.08-.09-.14-.1c-.05,0-.08.05-.13.05,0,.03,0,.06,0,.1,0,.08,0,.15,0,.23,0,.26,0,.52,0,.78s0,.52,0,.78c0,.06,0,.11,0,.17,0,.05,0,.1,0,.15"/>
        <path class="cls-13" d="M120.73,154.4s.07-.06.1-.08c0-.03,0-.06,0-.1,0-.08,0-.15,0-.23,0-.26,0-.52,0-.78s0-.52,0-.78c0-.06,0-.11,0-.17,0-.05,0-.1,0-.15-.03.03-.07.06-.1.08,0,.03,0,.06,0,.1,0,.08,0,.15,0,.23,0,.26,0,.52,0,.78s0,.52,0,.78c0,.06,0,.11,0,.17,0,.05,0,.1,0,.15"/>
        <path class="cls-13" d="M120.74,154.43s.05-.05.07-.07c.03-.02.06-.03.1-.01.06.03.12.08.16.13,0-.03,0-.06,0-.1,0-.08,0-.15,0-.23,0-.26,0-.52,0-.78s0-.52,0-.78c0-.06,0-.12,0-.17,0-.05,0-.1,0-.15-.04-.05-.1-.1-.16-.13-.03-.02-.07-.01-.1.01-.03.02-.06.05-.08.07,0,.03,0,.06,0,.1,0,.08,0,.15,0,.23,0,.26,0,.52,0,.78s0,.52,0,.78c0,.06,0,.11,0,.17,0,.05,0,.1,0,.15"/>
        <path class="cls-13" d="M120.74,152.2s0,0,0,0v2.2s.02-.03.04-.03c.04-.01.04-.03.04-.07,0-.17,0-.34,0-.51,0-.23,0-.47,0-.7,0-.21,0-.42,0-.63,0-.06,0-.11,0-.17,0-.05,0-.1,0-.15-.06.05-.1.12-.13.19,0,.03,0,.06,0,.1,0,.08,0,.15,0,.23,0,.26,0,.52,0,.78s0,.52,0,.78c0,.06,0,.12,0,.17,0,.05,0,.1,0,.15.03-.07.07-.14.13-.19,0-.72,0-1.44,0-2.16h0s0-.02,0-.04c0,.03-.05.03-.07.04,0,0,0,.01,0,.02,0,0,0,.02,0,.02,0,.04,0,.09,0,.13,0,.13,0,.26,0,.39,0,.44,0,.89,0,1.33,0,.1,0,.19,0,.28,0,.01,0,.03,0,.05,0-.03,0-.06,0-.1,0-.08,0-.15,0-.23,0-.26,0-.52,0-.78s0-.52,0-.78c0-.06,0-.11,0-.17,0-.05,0-.1,0-.15"/>
        <path class="cls-13" d="M120.7,154.43c.04-.06.1-.1.17-.12,0-.03,0-.06,0-.1,0-.08,0-.15,0-.23,0-.26,0-.52,0-.78s0-.52,0-.78v-.17c0-.05,0-.1,0-.15-.07.02-.12.07-.17.12,0,.03,0,.06,0,.1,0,.08,0,.15,0,.23,0,.26,0,.52,0,.78s0,.52,0,.78c0,.06,0,.11,0,.17,0,.05,0,.1,0,.15"/>
        <path class="cls-13" d="M120.74,154.43s.07-.05.1-.08c0-.03,0-.06,0-.1,0-.08,0-.15,0-.23,0-.26,0-.52,0-.78s0-.52,0-.78v-.17s0-.1,0-.15c-.03.03-.07.05-.1.08,0,.03,0,.06,0,.1,0,.08,0,.15,0,.23,0,.26,0,.52,0,.78s0,.52,0,.78v.17s0,.1,0,.15"/>
      </g>
    </g>
  </g>
</svg>