<?xml version="1.0" encoding="UTF-8"?>
<svg id="Layer_1" data-name="Layer 1" xmlns="http://www.w3.org/2000/svg" xmlns:xlink="http://www.w3.org/1999/xlink" viewBox="0 0 191.89 187.14">
  <defs>
    <style>
      .cls-1 {
        stroke: #fef5f1;
        stroke-width: 1.74px;
      }

      .cls-1, .cls-2, .cls-3, .cls-4, .cls-5, .cls-6 {
        fill: none;
      }

      .cls-1, .cls-2, .cls-4, .cls-5, .cls-6 {
        stroke-miterlimit: 10;
      }

      .cls-2 {
        stroke: #f7d7dd;
      }

      .cls-2, .cls-4, .cls-5, .cls-6 {
        stroke-width: .44px;
      }

      .cls-7 {
        fill: #f7aab8;
      }

      .cls-7, .cls-8, .cls-9, .cls-3, .cls-10, .cls-11, .cls-12, .cls-13 {
        stroke-width: 0px;
      }

      .cls-8 {
        fill: #cee7ce;
      }

      .cls-9 {
        fill: #f6d7dd;
      }

      .cls-10 {
        fill: #f48da0;
      }

      .cls-4 {
        stroke: #f5d7dd;
      }

      .cls-14 {
        clip-path: url(#clippath-1);
      }

      .cls-5 {
        stroke: #cee7ce;
      }

      .cls-6 {
        stroke: #f7b1be;
      }

      .cls-11 {
        fill: #f59bac;
      }

      .cls-15 {
        clip-path: url(#clippath);
      }

      .cls-12 {
        fill: #f8bac4;
      }

      .cls-13 {
        fill: #fcf4f1;
      }
    </style>
    <clipPath id="clippath">
      <rect class="cls-3" y="0" width="191.89" height="187.14"/>
    </clipPath>
    <clipPath id="clippath-1">
      <rect class="cls-3" y="0" width="191.89" height="187.14"/>
    </clipPath>
  </defs>
  <g id="Artwork_14" data-name="Artwork 14">
    <g class="cls-15">
      <g class="cls-14">
        <path class="cls-13" d="M191.02,93.57c0,51.2-42.56,92.7-95.07,92.7S.87,144.77.87,93.57,43.44.87,95.94.87s95.07,41.5,95.07,92.7"/>
        <ellipse class="cls-1" cx="95.94" cy="93.57" rx="95.07" ry="92.7"/>
        <path class="cls-8" d="M136.66,130.76c0,4.28-17.91,7.75-40,7.75s-40-3.47-40-7.75,17.91-7.75,40-7.75,40,3.47,40,7.75"/>
        <path class="cls-5" d="M136.66,130.76c0,4.28-17.91,7.75-40,7.75s-40-3.47-40-7.75,17.91-7.75,40-7.75,40,3.47,40,7.75Z"/>
        <path class="cls-9" d="M121.1,95.06c-7.85,18.91-18.91,32.29-24.7,29.89-5.8-2.4-4.13-19.69,3.71-38.6,7.85-18.91,18.91-32.29,24.7-29.89,5.8,2.41,4.13,19.69-3.71,38.6"/>
        <path class="cls-4" d="M121.1,95.06c-7.85,18.91-18.91,32.29-24.7,29.89-5.8-2.4-4.13-19.69,3.71-38.6,7.85-18.91,18.91-32.29,24.7-29.89,5.8,2.41,4.13,19.69-3.71,38.6Z"/>
        <path class="cls-9" d="M72.22,94.7c7.85,18.91,18.91,32.29,24.7,29.89,5.8-2.4,4.13-19.69-3.71-38.6-7.85-18.91-18.91-32.29-24.7-29.89-5.8,2.41-4.13,19.69,3.71,38.6"/>
        <path class="cls-2" d="M72.22,94.7c7.85,18.91,18.91,32.29,24.7,29.89,5.8-2.4,4.13-19.69-3.71-38.6-7.85-18.91-18.91-32.29-24.7-29.89-5.8,2.41-4.13,19.69,3.71,38.6Z"/>
        <path class="cls-12" d="M106.75,87.18c0,21.29-4.5,38.55-10.06,38.55-13.23-.97-13.22-76.17,0-77.1,5.55,0,10.06,17.26,10.06,38.55"/>
        <path class="cls-6" d="M106.75,87.18c0,21.29-4.5,38.55-10.06,38.55-13.23-.97-13.22-76.17,0-77.1,5.55,0,10.06,17.26,10.06,38.55Z"/>
        <path class="cls-10" d="M134.91,120.29c-18.33,9.13-35.45,11.98-38.25,6.36-2.8-5.62,9.79-17.57,28.12-26.7,18.33-9.13,35.45-11.98,38.25-6.36,2.8,5.62-9.79,17.57-28.12,26.7"/>
        <path class="cls-6" d="M134.91,120.29c-18.33,9.13-35.45,11.98-38.25,6.36-2.8-5.62,9.79-17.57,28.12-26.7,18.33-9.13,35.45-11.98,38.25-6.36,2.8,5.62-9.79,17.57-28.12,26.7Z"/>
        <path class="cls-11" d="M58.08,120.23c18.21,9.35,35.3,12.41,38.17,6.83,2.87-5.58-9.58-17.69-27.79-27.04-18.21-9.35-35.3-12.41-38.17-6.82-2.87,5.58,9.58,17.69,27.79,27.04"/>
        <path class="cls-6" d="M58.08,120.23c18.21,9.35,35.3,12.41,38.17,6.83,2.87-5.58-9.58-17.69-27.79-27.04-18.21-9.35-35.3-12.41-38.17-6.82-2.87,5.58,9.58,17.69,27.79,27.04Z"/>
        <path class="cls-7" d="M127.49,105.56c-14.48,14.48-29.81,22.62-34.25,18.18-4.44-4.44,3.7-19.77,18.18-34.25,14.48-14.48,29.81-22.62,34.25-18.18,4.44,4.44-3.7,19.77-18.18,34.25"/>
        <ellipse class="cls-6" cx="119.46" cy="97.53" rx="37.07" ry="11.36" transform="translate(-33.97 113.04) rotate(-45)"/>
        <path class="cls-7" d="M65.74,104.93c13.34,15.53,28.01,24.81,32.78,20.72,4.76-4.09-2.2-19.99-15.54-35.53-13.34-15.53-28.01-24.81-32.78-20.72-4.76,4.09,2.2,19.99,15.54,35.53"/>
        <path class="cls-6" d="M65.74,104.93c13.34,15.53,28.01,24.81,32.78,20.72,4.76-4.09-2.2-19.99-15.54-35.53-13.34-15.53-28.01-24.81-32.78-20.72-4.76,4.09,2.2,19.99,15.54,35.53Z"/>
      </g>
    </g>
  </g>
</svg>