<?xml version="1.0" encoding="UTF-8"?>
<svg id="Layer_1" data-name="Layer 1" xmlns="http://www.w3.org/2000/svg" xmlns:xlink="http://www.w3.org/1999/xlink" viewBox="0 0 192.96 188.48">
  <defs>
    <style>
      .cls-1 {
        fill: #7dc57b;
      }

      .cls-1, .cls-2, .cls-3, .cls-4, .cls-5, .cls-6 {
        stroke-width: 0px;
      }

      .cls-7 {
        stroke: #fbdeeb;
      }

      .cls-7, .cls-2, .cls-8, .cls-9, .cls-10, .cls-11 {
        fill: none;
      }

      .cls-7, .cls-8, .cls-9, .cls-10, .cls-11 {
        stroke-miterlimit: 10;
      }

      .cls-7, .cls-10 {
        stroke-width: 1.75px;
      }

      .cls-12 {
        clip-path: url(#clippath-1);
      }

      .cls-3 {
        fill: #fbdeeb;
      }

      .cls-8 {
        stroke: #9fd4a8;
      }

      .cls-8, .cls-9 {
        stroke-width: 1.32px;
      }

      .cls-4 {
        fill: #7cc57a;
      }

      .cls-5 {
        fill: #84c885;
      }

      .cls-9, .cls-11 {
        stroke: #d5ebd8;
      }

      .cls-10 {
        stroke: #fff;
      }

      .cls-13 {
        clip-path: url(#clippath);
      }

      .cls-6 {
        fill: #fffafc;
      }

      .cls-11 {
        stroke-width: .88px;
      }
    </style>
    <clipPath id="clippath">
      <rect class="cls-2" width="192.96" height="188.48"/>
    </clipPath>
    <clipPath id="clippath-1">
      <rect class="cls-2" y="0" width="192.96" height="188.48"/>
    </clipPath>
  </defs>
  <g id="Artwork_16" data-name="Artwork 16">
    <g class="cls-13">
      <g class="cls-12">
        <path class="cls-3" d="M190.66,111.02c-9.03,50.71-58.52,84.31-110.54,75.05C28.11,176.8-6.73,128.18,2.3,77.46,11.34,26.75,60.83-6.85,112.84,2.41c52.01,9.26,86.85,57.89,77.82,108.6"/>
        <path class="cls-7" d="M190.66,111.02c-9.03,50.71-58.52,84.31-110.54,75.05C28.11,176.8-6.73,128.18,2.3,77.46,11.34,26.75,60.83-6.85,112.84,2.41c52.01,9.26,86.85,57.89,77.82,108.6Z"/>
        <path class="cls-4" d="M55.32,76.63l39.11,45.22-18.2-8.01-21.94-12.9c-18.81-17.04,1.02-24.31,1.02-24.31-5.3-18.2,11.68-17.11,11.68-17.11,3.39-20.37,18.33-9.78,18.33-9.78,11.2-18.33,20.64-.54,20.64-.54,17.93-8.22,18.88,10.32,18.88,10.32,16.84-1.09,11.68,17.65,11.68,17.65,26.62,10.86-12.36,32.05-12.36,32.05l-28.49,12.63"/>
        <path class="cls-9" d="M55.32,76.63l39.11,45.22-18.2-8.01-21.94-12.9c-18.81-17.04,1.02-24.31,1.02-24.31-5.3-18.2,11.68-17.11,11.68-17.11,3.39-20.37,18.33-9.78,18.33-9.78,11.2-18.33,20.64-.54,20.64-.54,17.93-8.22,18.88,10.32,18.88,10.32,16.84-1.09,11.68,17.65,11.68,17.65,26.62,10.86-12.36,32.05-12.36,32.05l-28.49,12.63"/>
        <polyline class="cls-4" points="67.33 59.79 94.35 120.63 84.92 48.52"/>
        <polyline class="cls-9" points="67.33 59.79 94.35 120.63 84.92 48.52"/>
        <polyline class="cls-4" points="106.06 49.47 96.01 119.68 125.62 58.56"/>
        <polyline class="cls-9" points="106.06 49.47 96.01 119.68 125.62 58.56"/>
        <line class="cls-4" x1="136.64" y1="77.58" x2="95.69" y2="121.85"/>
        <line class="cls-9" x1="136.64" y1="77.58" x2="95.69" y2="121.85"/>
        <path class="cls-5" d="M94.97,122.67l-12.63,1.49s-14.53-.21-3.8-8.56"/>
        <path class="cls-8" d="M94.97,122.67l-12.63,1.49s-14.53-.21-3.8-8.56"/>
        <path class="cls-5" d="M96.01,122.67l12.63,1.49s14.53-.21,3.8-8.56"/>
        <path class="cls-8" d="M96.01,122.67l12.63,1.49s14.53-.21,3.8-8.56"/>
        <path class="cls-1" d="M44.89,121.53s5.36,15.43,15.83,10.59c0,0,5.89,8.17,15.56,3.92,0,0,5.17,6.93,16.35,1.83,0,0,5.89,7.46,16.35-.92,0,0,7.32,4.38,14.26-2.88,0,0,7.32.72,11.38-5.62,0,0,10.66-1.18,11.51-9.55"/>
        <path class="cls-11" d="M44.89,121.53s5.36,15.43,15.83,10.59c0,0,5.89,8.17,15.56,3.92,0,0,5.17,6.93,16.35,1.83,0,0,5.89,7.46,16.35-.92,0,0,7.32,4.38,14.26-2.88,0,0,7.32.72,11.38-5.62,0,0,10.66-1.18,11.51-9.55"/>
        <path class="cls-1" d="M77.19,113.31l-31.39,6.97s-1.92,6.1,10.64,4.53c0,0,2.53,5.93,14.13,2.79,0,0,8.72,5.23,18.31,2.09,0,0,9.94,4.19,17.61.18,0,0,12.9-.09,16.92-4.53,0,0,11.16,1.48,11.51-2.88,0,0,11.6-2.53,10.29-3.75-1.31-1.22-32.26-6.63-32.26-6.63l-35.75,1.22Z"/>
        <path class="cls-11" d="M77.19,113.31l-31.39,6.97s-1.92,6.1,10.64,4.53c0,0,2.53,5.93,14.13,2.79,0,0,8.72,5.23,18.31,2.09,0,0,9.94,4.19,17.61.18,0,0,12.9-.09,16.92-4.53,0,0,11.16,1.48,11.51-2.88,0,0,11.6-2.53,10.29-3.75-1.31-1.22-32.26-6.63-32.26-6.63l-35.75,1.22Z"/>
        <path class="cls-6" d="M108.11,107.49c0,7.26-5.88,13.14-13.14,13.14s-13.14-5.88-13.14-13.14,5.88-13.14,13.14-13.14,13.14,5.88,13.14,13.14"/>
        <circle class="cls-10" cx="94.97" cy="107.49" r="13.14"/>
      </g>
    </g>
  </g>
</svg>