<?xml version="1.0" encoding="UTF-8"?>
<svg id="Layer_1" data-name="Layer 1" xmlns="http://www.w3.org/2000/svg" xmlns:xlink="http://www.w3.org/1999/xlink" viewBox="0 0 191.31 186.57">
  <defs>
    <style>
      .cls-1 {
        fill: #a58c79;
      }

      .cls-1, .cls-2, .cls-3, .cls-4, .cls-5, .cls-6, .cls-7, .cls-8 {
        stroke-width: 0px;
      }

      .cls-2 {
        fill: #fff1ea;
      }

      .cls-9 {
        opacity: .28;
      }

      .cls-3 {
        fill: #cdad96;
      }

      .cls-10 {
        clip-path: url(#clippath-2);
      }

      .cls-4 {
        fill: #f1ef95;
      }

      .cls-5, .cls-11, .cls-12, .cls-13, .cls-14, .cls-15 {
        fill: none;
      }

      .cls-11 {
        stroke: #fff1ea;
      }

      .cls-11, .cls-12, .cls-13, .cls-14, .cls-15 {
        stroke-miterlimit: 10;
        stroke-width: 1.74px;
      }

      .cls-6 {
        fill: #f0b4d2;
      }

      .cls-16 {
        clip-path: url(#clippath-1);
      }

      .cls-7 {
        fill: #fbdeeb;
      }

      .cls-12 {
        stroke: #cdad95;
      }

      .cls-13 {
        stroke: #f0b4d2;
      }

      .cls-8 {
        fill: #fffef2;
      }

      .cls-17 {
        clip-path: url(#clippath);
      }

      .cls-18 {
        clip-path: url(#clippath-3);
      }

      .cls-14 {
        stroke: #a58c79;
      }

      .cls-15 {
        stroke: #fbdeeb;
      }
    </style>
    <clipPath id="clippath">
      <rect class="cls-5" width="191.31" height="186.57"/>
    </clipPath>
    <clipPath id="clippath-1">
      <rect class="cls-5" width="191.31" height="186.57"/>
    </clipPath>
    <clipPath id="clippath-2">
      <rect class="cls-5" width="191.31" height="186.57"/>
    </clipPath>
    <clipPath id="clippath-3">
      <rect class="cls-5" x="57.18" y="48.15" width="77.55" height="63.65"/>
    </clipPath>
  </defs>
  <g id="Artwork_18" data-name="Artwork 18">
    <g class="cls-17">
      <g class="cls-16">
        <g class="cls-10">
          <path class="cls-7" d="M190.44,93.29c0,51.04-42.44,92.42-94.78,92.42S.87,144.32.87,93.29,43.31.87,95.65.87s94.78,41.38,94.78,92.42"/>
          <ellipse class="cls-15" cx="95.65" cy="93.29" rx="94.78" ry="92.42"/>
          <g class="cls-9">
            <g class="cls-18">
              <path class="cls-4" d="M75.83,52.56c14.12,5.49,28.25,10.98,42.37,16.47,4.4,1.71,9.32,4.06,11.38,10.56,2.27,7.15-.25,16.36-4.34,20.93-4.09,4.58-9.27,5.61-14.23,6.18-10.68,1.23-21.43.95-32.08-.84-4.65-.78-9.52-2.01-13.2-6.67-3.68-4.66-5.57-13.86-2.83-19.99,1.45-3.26,3.84-5.01,6.18-6.38,9.9-5.79,20.8-7.03,31.11-3.53,1.92,3.84-1.14,9.06-3.95,11.02-10.86,7.58-23.96,6.13-34.08-3.78.36-8.68,7.28-11.71,12.67-11.81,13.18-.23,26.39,3.31,38.82,10.39"/>
              <path class="cls-4" d="M74.68,56.75c14.12,5.49,28.27,10.92,42.37,16.47,3.82,1.5,7.43,3.84,8.61,8.46,1.24,4.83.02,10.53-2.68,14.67-3.01,4.62-8.52,5.68-13.66,6.19-7.44.75-14.95.76-22.39.04-5.2-.51-12.02-.81-16.2-4.4-3.74-3.22-5.04-8.7-4.75-13.46.39-6.5,6.49-9.41,12.01-11.25,6.95-2.33,14.09-2.26,21.03.01-.87-.67-1.73-1.33-2.6-2,.85,1.98-2.01,4.85-3.25,5.65-2.8,1.81-5.95,3.14-9.29,3.52-7.09.82-13.64-2.38-18.66-7.2.42,1.02.85,2.05,1.27,3.07.21-3.42,1.73-5.44,4.5-6.69-.32.14,1.18-.38,1.54-.47.36-.09.72-.16,1.09-.23.47-.08-.43.01.35-.03,2.43-.13,4.88-.03,7.3.15,10.65.8,20.9,4.39,30.16,9.61,4.88,2.75,9.26-4.75,4.39-7.5-11.62-6.55-24.58-10.62-37.97-10.97-4.63-.12-9.37.35-13.26,3.12-2.01,1.43-3.75,3.24-4.88,5.45-1.22,2.37-2.49,6.06-1.76,8.72.78,2.84,4.95,5.33,7.28,6.84,2.43,1.57,5.13,2.81,7.89,3.67,5.32,1.65,11.2,1.69,16.54.09,5.35-1.61,10.96-4.62,13.65-9.73,1.46-2.77,2.18-5.89,1.52-8.99-.39-1.82-1.27-3.44-2.99-4.24-1.5-.7-3.25-1.07-4.86-1.41-6.33-1.32-12.9-1.17-19.14.52-5.62,1.52-12.25,4.23-16.16,8.73-7.39,8.51-5.25,24.2,3.15,31.38,4.56,3.89,10.1,5.15,15.88,5.97,7.1,1.01,14.25,1.48,21.42,1.22,6.14-.23,12.85-.48,18.59-2.88,5.57-2.33,9.48-6.62,11.77-12.13,4.41-10.56,2.54-23.86-8.2-29.68-5.43-2.94-11.6-4.78-17.35-7.01-6.66-2.59-13.33-5.18-19.99-7.77-3.33-1.29-6.66-2.59-9.99-3.88-2.19-.85-4.77.94-5.34,3.03-.68,2.46.84,4.49,3.03,5.34"/>
            </g>
          </g>
          <path class="cls-2" d="M106.69,108.11c0,16.83-5.03,30.48-11.24,30.48s-11.24-13.65-11.24-30.48,5.03-30.48,11.24-30.48,11.24,13.65,11.24,30.48"/>
          <ellipse class="cls-11" cx="95.44" cy="108.11" rx="11.24" ry="30.48"/>
          <polygon class="cls-14" points="126.68 101.79 126.68 101.79 126.68 58.23 126.68 101.79"/>
          <path class="cls-2" d="M114.92,123.4c0,9.24-8.72,16.73-19.48,16.73s-19.48-7.49-19.48-16.73,8.72-16.73,19.48-16.73,19.48,7.49,19.48,16.73"/>
          <path class="cls-11" d="M114.92,123.4c0,9.24-8.72,16.73-19.48,16.73s-19.48-7.49-19.48-16.73,8.72-16.73,19.48-16.73,19.48,7.49,19.48,16.73Z"/>
          <path class="cls-3" d="M66.79,32.33c2.26-2.42,5.33-2.73,10.12-2.81,9.99-.05,21.83,0,32.07-.02,7.26.03,15.13-1.28,18.53,9.35,2.97,7.54,5.61,16.24,8.28,24.08,2.37,8.58,8.15,19.15-1.43,18.31-17.42-.88-63.94,1.97-81.96-1.13-.76-.75-.97-2.02-.7-4.04.36-2.7,1.61-6.88,3.23-12.08,3.29-9.27,6.91-25.31,11.62-31.42l.23-.25Z"/>
          <path class="cls-12" d="M66.79,32.33c2.26-2.42,5.33-2.73,10.12-2.81,9.99-.05,21.83,0,32.07-.02,7.26.03,15.13-1.28,18.53,9.35,2.97,7.54,5.61,16.24,8.28,24.08,2.37,8.58,8.15,19.15-1.43,18.31-17.42-.88-63.94,1.97-81.96-1.13-.76-.75-.97-2.02-.7-4.04.36-2.7,1.61-6.88,3.23-12.08,3.29-9.27,6.91-25.31,11.62-31.42l.23-.25Z"/>
          <path class="cls-1" d="M129.78,101.79c0,1.71-1.39,3.09-3.09,3.09s-3.09-1.39-3.09-3.09,1.39-3.09,3.09-3.09,3.09,1.39,3.09,3.09"/>
          <circle class="cls-14" cx="126.68" cy="101.79" r="3.09"/>
          <path class="cls-6" d="M124.4,146.13c-2.72,3.36-6.64,2.43-13.85,2.63-12.04-.08-27.02.17-39.37-.11-7.13.31-9.8-7.46-4.97-11.18,1.87-1.26,4.37-1.35,6.8-1.43,10.65-.05,31.96-.04,42.86,0,7.67-.47,11.69,4.01,8.65,9.93l-.11.17Z"/>
          <path class="cls-13" d="M124.4,146.13c-2.72,3.36-6.64,2.43-13.85,2.63-12.04-.08-27.02.17-39.37-.11-7.13.31-9.8-7.46-4.97-11.18,1.87-1.26,4.37-1.35,6.8-1.43,10.65-.05,31.96-.04,42.86,0,7.67-.47,11.69,4.01,8.65,9.93l-.11.17Z"/>
          <path class="cls-8" d="M64.91,53.16c-3.17,8.2-3.83,15.59-1.49,16.49,2.34.91,6.81-5.01,9.98-13.21,3.17-8.2,3.83-15.59,1.49-16.49-2.34-.91-6.81,5.01-9.98,13.21"/>
          <path class="cls-12" d="M64.91,53.16c-3.17,8.2-3.83,15.59-1.49,16.49,2.34.91,6.81-5.01,9.98-13.21,3.17-8.2,3.83-15.59,1.49-16.49-2.34-.91-6.81,5.01-9.98,13.21Z"/>
        </g>
      </g>
    </g>
  </g>
</svg>