<?xml version="1.0" encoding="UTF-8"?>
<svg id="Layer_1" data-name="Layer 1" xmlns="http://www.w3.org/2000/svg" xmlns:xlink="http://www.w3.org/1999/xlink" viewBox="0 0 197.16 192.29">
  <defs>
    <style>
      .cls-1 {
        stroke: #bddeb1;
      }

      .cls-1, .cls-2, .cls-3, .cls-4, .cls-5, .cls-6 {
        fill: none;
      }

      .cls-1, .cls-2, .cls-4, .cls-5, .cls-6 {
        stroke-miterlimit: 10;
        stroke-width: 1.79px;
      }

      .cls-2 {
        stroke: #e9d4c0;
      }

      .cls-3, .cls-7, .cls-8, .cls-9, .cls-10, .cls-11 {
        stroke-width: 0px;
      }

      .cls-12 {
        clip-path: url(#clippath-1);
      }

      .cls-7 {
        fill: #fbdeeb;
      }

      .cls-4 {
        stroke: #fbdeeb;
      }

      .cls-8 {
        fill: #e9d4c0;
      }

      .cls-13 {
        clip-path: url(#clippath);
      }

      .cls-5 {
        stroke: #f9c6d8;
      }

      .cls-9 {
        fill: #f9c5d8;
      }

      .cls-6 {
        stroke: #fff;
      }

      .cls-10 {
        fill: #fff;
      }

      .cls-11 {
        fill: #bddeb1;
      }
    </style>
    <clipPath id="clippath">
      <rect class="cls-3" y="0" width="197.16" height="192.29"/>
    </clipPath>
    <clipPath id="clippath-1">
      <rect class="cls-3" y="0" width="197.16" height="192.29"/>
    </clipPath>
  </defs>
  <g id="Artwork_2" data-name="Artwork 2">
    <g class="cls-13">
      <g class="cls-12">
        <path class="cls-7" d="M196.27,96.14c0,52.6-43.74,95.25-97.69,95.25S.89,148.75.89,96.14,44.63.9,98.58.9s97.69,42.64,97.69,95.25"/>
        <ellipse class="cls-4" cx="98.58" cy="96.14" rx="97.69" ry="95.25"/>
        <path class="cls-8" d="M120.22,145.48l-9.01-16.05c-.57-1.01-.21-2.29.8-2.86l1.99-1.12c1.01-.57,2.29-.21,2.86.8l9,16.05c.57,1.01.21,2.29-.8,2.86l-1.99,1.12c-1.01.57-2.29.21-2.86-.8"/>
        <path class="cls-2" d="M120.22,145.48l-9.01-16.05c-.57-1.01-.21-2.29.8-2.86l1.99-1.12c1.01-.57,2.29-.21,2.86.8l9,16.05c.57,1.01.21,2.29-.8,2.86l-1.99,1.12c-1.01.57-2.29.21-2.86-.8Z"/>
        <path class="cls-11" d="M120.76,107.84c3.76,7.6.64,16.81-6.96,20.57-7.6,3.76-16.81.64-20.57-6.96-3.76-7.6-.64-16.81,6.96-20.57,7.6-3.76,16.81-.64,20.57,6.96"/>
        <path class="cls-1" d="M120.76,107.84c3.76,7.6.64,16.81-6.96,20.57-7.6,3.76-16.81.64-20.57-6.96-3.76-7.6-.64-16.81,6.96-20.57,7.6-3.76,16.81-.64,20.57,6.96Z"/>
        <path class="cls-10" d="M108.91,83.86c3.76,7.6.64,16.81-6.96,20.57-7.6,3.76-16.81.64-20.57-6.96-3.76-7.6-.64-16.81,6.96-20.57,7.6-3.76,16.81-.64,20.57,6.96"/>
        <path class="cls-6" d="M108.91,83.86c3.76,7.6.64,16.81-6.96,20.57-7.6,3.76-16.81.64-20.57-6.96-3.76-7.6-.64-16.81,6.96-20.57,7.6-3.76,16.81-.64,20.57,6.96Z"/>
        <path class="cls-9" d="M96.12,57.97c3.76,7.6.64,16.81-6.96,20.57-7.6,3.76-16.81.64-20.57-6.96-3.76-7.6-.64-16.81,6.96-20.57,7.6-3.76,16.81-.64,20.57,6.96"/>
        <path class="cls-5" d="M96.12,57.97c3.76,7.6.64,16.81-6.96,20.57-7.6,3.76-16.81.64-20.57-6.96-3.76-7.6-.64-16.81,6.96-20.57,7.6-3.76,16.81-.64,20.57,6.96Z"/>
      </g>
    </g>
  </g>
</svg>