<?xml version="1.0" encoding="UTF-8"?>
<svg id="Layer_1" data-name="Layer 1" xmlns="http://www.w3.org/2000/svg" xmlns:xlink="http://www.w3.org/1999/xlink" viewBox="0 0 195.16 190.33">
  <defs>
    <style>
      .cls-1 {
        stroke-width: .44px;
      }

      .cls-1, .cls-2, .cls-3, .cls-4, .cls-5 {
        fill: none;
      }

      .cls-1, .cls-3, .cls-4, .cls-5 {
        stroke-miterlimit: 10;
      }

      .cls-1, .cls-4 {
        stroke: #a57f60;
      }

      .cls-2, .cls-6, .cls-7, .cls-8 {
        stroke-width: 0px;
      }

      .cls-9 {
        clip-path: url(#clippath-1);
      }

      .cls-3 {
        stroke: #fcd9d3;
      }

      .cls-3, .cls-4, .cls-5 {
        stroke-width: 1.77px;
      }

      .cls-4 {
        stroke-linecap: round;
      }

      .cls-6 {
        fill: #fff1e9;
      }

      .cls-10 {
        clip-path: url(#clippath);
      }

      .cls-7 {
        fill: #a57f60;
      }

      .cls-5 {
        stroke: #fff1e9;
      }

      .cls-8 {
        fill: #fcd9d3;
      }
    </style>
    <clipPath id="clippath">
      <rect class="cls-2" y="0" width="195.16" height="190.33"/>
    </clipPath>
    <clipPath id="clippath-1">
      <rect class="cls-2" y="0" width="195.16" height="190.33"/>
    </clipPath>
  </defs>
  <g id="Artwork_5" data-name="Artwork 5">
    <g class="cls-10">
      <g class="cls-9">
        <path class="cls-8" d="M194.27,95.17c0,52.07-43.29,94.28-96.69,94.28S.89,147.23.89,95.17,44.18.89,97.58.89s96.69,42.21,96.69,94.28"/>
        <ellipse class="cls-3" cx="97.58" cy="95.17" rx="96.69" ry="94.28"/>
        <path class="cls-6" d="M99.61,72.67c-.68,8.51-7.81,14.84-15.92,14.13-8.11-.71-14.14-8.19-13.46-16.71.68-8.51,7.81-14.84,15.92-14.13,8.11.71,14.14,8.19,13.46,16.71"/>
        <path class="cls-5" d="M99.61,72.67c-.68,8.51-7.81,14.84-15.92,14.13-8.11-.71-14.14-8.19-13.46-16.71.68-8.51,7.81-14.84,15.92-14.13,8.11.71,14.14,8.19,13.46,16.71Z"/>
        <path class="cls-6" d="M78.3,82.19c-.57,7.08-8.16,12.19-16.97,11.41-8.81-.77-15.49-7.14-14.92-14.22.56-7.08,8.16-12.19,16.97-11.41,8.81.77,15.49,7.14,14.93,14.22"/>
        <path class="cls-5" d="M78.3,82.19c-.57,7.08-8.16,12.19-16.97,11.41-8.81-.77-15.49-7.14-14.92-14.22.56-7.08,8.16-12.19,16.97-11.41,8.81.77,15.49,7.14,14.93,14.22Z"/>
        <path class="cls-6" d="M108.26,87.45c-.48,5.97-9.61,10.04-20.4,9.09-10.79-.95-19.15-6.56-18.68-12.53.48-5.97,9.61-10.04,20.4-9.09,10.79.95,19.15,6.56,18.68,12.53"/>
        <path class="cls-5" d="M108.26,87.45c-.48,5.97-9.61,10.04-20.4,9.09-10.79-.95-19.15-6.56-18.68-12.53.48-5.97,9.61-10.04,20.4-9.09,10.79.95,19.15,6.56,18.68,12.53Z"/>
        <path class="cls-6" d="M116.99,83.58c-.58,7.24-9.67,12.35-20.31,11.42-10.64-.94-18.8-7.56-18.22-14.8s9.67-12.35,20.31-11.41c10.64.93,18.8,7.56,18.22,14.8"/>
        <path class="cls-5" d="M116.99,83.58c-.58,7.24-9.67,12.35-20.31,11.42-10.64-.94-18.8-7.56-18.22-14.8s9.67-12.35,20.31-11.41c10.64.93,18.8,7.56,18.22,14.8Z"/>
        <path class="cls-6" d="M137.25,72.85c-.58,7.24-9.67,12.35-20.31,11.42-10.64-.94-18.8-7.56-18.22-14.8.58-7.24,9.67-12.35,20.31-11.41,10.64.93,18.8,7.56,18.22,14.8"/>
        <path class="cls-5" d="M137.25,72.85c-.58,7.24-9.67,12.35-20.31,11.42-10.64-.94-18.8-7.56-18.22-14.8.58-7.24,9.67-12.35,20.31-11.41,10.64.93,18.8,7.56,18.22,14.8Z"/>
        <path class="cls-6" d="M140.82,90.31c-.58,7.24-9.67,12.35-20.31,11.42-10.64-.94-18.8-7.56-18.22-14.8.58-7.24,9.67-12.35,20.31-11.41,10.64.93,18.8,7.56,18.22,14.8"/>
        <path class="cls-5" d="M140.82,90.31c-.58,7.24-9.67,12.35-20.31,11.42-10.64-.94-18.8-7.56-18.22-14.8.58-7.24,9.67-12.35,20.31-11.41,10.64.93,18.8,7.56,18.22,14.8Z"/>
        <path class="cls-6" d="M122.69,102.4c-1.57,7.08-11.27,10.75-21.67,8.21-10.4-2.54-17.56-10.34-15.99-17.41,1.57-7.08,11.27-10.75,21.67-8.21,10.4,2.54,17.56,10.34,15.99,17.41"/>
        <path class="cls-5" d="M122.69,102.4c-1.57,7.08-11.27,10.75-21.67,8.21-10.4-2.54-17.56-10.34-15.99-17.41,1.57-7.08,11.27-10.75,21.67-8.21,10.4,2.54,17.56,10.34,15.99,17.41Z"/>
        <path class="cls-6" d="M88.72,97.6c0,6.56-6.89,11.88-15.38,11.88s-15.38-5.32-15.38-11.88,6.89-11.88,15.38-11.88,15.38,5.32,15.38,11.88"/>
        <ellipse class="cls-5" cx="73.34" cy="97.6" rx="15.38" ry="11.88"/>
        <path class="cls-7" d="M77,123.11c0,2.08-1.65,3.74-3.67,3.74s-3.67-1.67-3.67-3.74,1.63-3.74,3.67-3.74,3.67,1.69,3.67,3.74"/>
        <path class="cls-1" d="M77,123.11c0,2.08-1.65,3.74-3.67,3.74s-3.67-1.67-3.67-3.74,1.63-3.74,3.67-3.74,3.67,1.69,3.67,3.74Z"/>
        <polygon class="cls-7" points="73.34 117.1 71.35 120.54 75.32 120.54 73.34 117.1"/>
        <polygon class="cls-4" points="73.34 117.1 71.35 120.54 75.32 120.54 73.34 117.1"/>
        <path class="cls-7" d="M94.7,119.95c0,2.08-1.65,3.74-3.67,3.74s-3.67-1.67-3.67-3.74,1.63-3.75,3.67-3.75,3.67,1.69,3.67,3.75"/>
        <path class="cls-1" d="M94.7,119.95c0,2.08-1.65,3.74-3.67,3.74s-3.67-1.67-3.67-3.74,1.63-3.75,3.67-3.75,3.67,1.69,3.67,3.75Z"/>
        <polygon class="cls-7" points="91.03 113.95 89.05 117.38 93.02 117.38 91.03 113.95"/>
        <polygon class="cls-4" points="91.03 113.95 89.05 117.38 93.02 117.38 91.03 113.95"/>
        <path class="cls-7" d="M111.19,126.54c0,2.08-1.65,3.74-3.67,3.74s-3.67-1.67-3.67-3.74,1.63-3.74,3.67-3.74,3.67,1.69,3.67,3.74"/>
        <path class="cls-1" d="M111.19,126.54c0,2.08-1.65,3.74-3.67,3.74s-3.67-1.67-3.67-3.74,1.63-3.74,3.67-3.74,3.67,1.69,3.67,3.74Z"/>
        <polygon class="cls-7" points="107.53 120.54 105.54 123.98 109.51 123.98 107.53 120.54"/>
        <polygon class="cls-4" points="107.53 120.54 105.54 123.98 109.51 123.98 107.53 120.54"/>
        <path class="cls-7" d="M130.95,115.08c0,2.08-1.65,3.74-3.67,3.74s-3.67-1.67-3.67-3.74,1.63-3.74,3.67-3.74,3.67,1.69,3.67,3.74"/>
        <path class="cls-1" d="M130.95,115.08c0,2.08-1.65,3.74-3.67,3.74s-3.67-1.67-3.67-3.74,1.63-3.74,3.67-3.74,3.67,1.69,3.67,3.74Z"/>
        <polygon class="cls-7" points="127.29 109.07 125.3 112.51 129.27 112.51 127.29 109.07"/>
        <polygon class="cls-4" points="127.29 109.07 125.3 112.51 129.27 112.51 127.29 109.07"/>
        <path class="cls-7" d="M93.02,138.04c0,2.08-1.65,3.74-3.67,3.74s-3.67-1.67-3.67-3.74,1.63-3.74,3.67-3.74,3.67,1.69,3.67,3.74"/>
        <path class="cls-1" d="M93.02,138.04c0,2.08-1.65,3.74-3.67,3.74s-3.67-1.67-3.67-3.74,1.63-3.74,3.67-3.74,3.67,1.69,3.67,3.74Z"/>
        <polygon class="cls-7" points="89.35 132.03 87.37 135.47 91.34 135.47 89.35 132.03"/>
        <polygon class="cls-4" points="89.35 132.03 87.37 135.47 91.34 135.47 89.35 132.03"/>
        <path class="cls-7" d="M125.22,134.88c0,2.08-1.65,3.74-3.67,3.74s-3.67-1.67-3.67-3.74,1.63-3.74,3.67-3.74,3.67,1.69,3.67,3.74"/>
        <path class="cls-1" d="M125.22,134.88c0,2.08-1.65,3.74-3.67,3.74s-3.67-1.67-3.67-3.74,1.63-3.74,3.67-3.74,3.67,1.69,3.67,3.74Z"/>
        <polygon class="cls-7" points="121.56 128.88 119.57 132.31 123.54 132.31 121.56 128.88"/>
        <polygon class="cls-4" points="121.56 128.88 119.57 132.31 123.54 132.31 121.56 128.88"/>
        <path class="cls-7" d="M109.21,148.77c0,2.08-1.65,3.74-3.67,3.74s-3.67-1.67-3.67-3.74,1.63-3.74,3.67-3.74,3.67,1.69,3.67,3.74"/>
        <path class="cls-1" d="M109.21,148.77c0,2.08-1.65,3.74-3.67,3.74s-3.67-1.67-3.67-3.74,1.63-3.74,3.67-3.74,3.67,1.69,3.67,3.74Z"/>
        <polygon class="cls-7" points="105.54 142.76 103.56 146.2 107.53 146.2 105.54 142.76"/>
        <polygon class="cls-4" points="105.54 142.76 103.56 146.2 107.53 146.2 105.54 142.76"/>
      </g>
    </g>
  </g>
</svg>