<?xml version="1.0" encoding="UTF-8"?>
<svg id="Layer_1" data-name="Layer 1" xmlns="http://www.w3.org/2000/svg" xmlns:xlink="http://www.w3.org/1999/xlink" viewBox="0 0 194.5 189.68">
  <defs>
    <style>
      .cls-1 {
        stroke: #f7acc2;
      }

      .cls-1, .cls-2, .cls-3, .cls-4, .cls-5, .cls-6, .cls-7, .cls-8, .cls-9 {
        stroke-miterlimit: 10;
        stroke-width: 1.77px;
      }

      .cls-1, .cls-2, .cls-3, .cls-4, .cls-5, .cls-6, .cls-7, .cls-8, .cls-9, .cls-10 {
        fill: none;
      }

      .cls-11 {
        fill: #f6a5bd;
      }

      .cls-11, .cls-12, .cls-13, .cls-14, .cls-15, .cls-16, .cls-17, .cls-10, .cls-18, .cls-19, .cls-20, .cls-21, .cls-22, .cls-23 {
        stroke-width: 0px;
      }

      .cls-12 {
        fill: #f6a9c0;
      }

      .cls-2 {
        stroke: #f7aec4;
      }

      .cls-3 {
        stroke: #f5a0ba;
      }

      .cls-13 {
        fill: #f7b2c7;
      }

      .cls-4 {
        stroke: #f3f3f3;
      }

      .cls-14 {
        fill: #f2e8ea;
      }

      .cls-5 {
        stroke: #f6a9c0;
      }

      .cls-6 {
        stroke: #f7b6c9;
      }

      .cls-7 {
        stroke: #f2f2f2;
      }

      .cls-15 {
        fill: #f6a7bf;
      }

      .cls-16 {
        fill: #f7aec4;
      }

      .cls-8 {
        stroke: #fef0f6;
      }

      .cls-17 {
        fill: #f59cb7;
      }

      .cls-9 {
        stroke: #f6a7bf;
      }

      .cls-24 {
        clip-path: url(#clippath-1);
      }

      .cls-25 {
        clip-path: url(#clippath);
      }

      .cls-18 {
        fill: #fef0f6;
      }

      .cls-19 {
        fill: #f496b3;
      }

      .cls-20 {
        fill: #f7acc2;
      }

      .cls-21 {
        fill: #f6abc2;
      }

      .cls-22 {
        fill: #f4afc4;
      }

      .cls-23 {
        fill: #f3f3f4;
      }
    </style>
    <clipPath id="clippath">
      <rect class="cls-10" y="0" width="194.5" height="189.68"/>
    </clipPath>
    <clipPath id="clippath-1">
      <rect class="cls-10" y="0" width="194.5" height="189.68"/>
    </clipPath>
  </defs>
  <g id="Artwork_7" data-name="Artwork 7">
    <g class="cls-25">
      <g class="cls-24">
        <path class="cls-18" d="M193.61,94.84c0,51.89-43.14,93.96-96.37,93.96S.88,146.73.88,94.84,44.03.88,97.25.88s96.37,42.07,96.37,93.96"/>
        <ellipse class="cls-8" cx="97.25" cy="94.84" rx="96.37" ry="93.96"/>
        <path class="cls-19" d="M107.43,75.78c-2.07,15.89-9.06,28.09-15.62,27.23-6.56-.85-10.2-14.43-8.13-30.32,2.07-15.89,9.06-28.09,15.62-27.23s10.2,14.43,8.13,30.32"/>
        <path class="cls-1" d="M107.43,75.78c-2.07,15.89-9.06,28.09-15.62,27.23-6.56-.85-10.2-14.43-8.13-30.32,2.07-15.89,9.06-28.09,15.62-27.23s10.2,14.43,8.13,30.32Z"/>
        <path class="cls-17" d="M101.04,70.52c3.91,15.54,1.87,29.45-4.54,31.06-6.41,1.61-14.78-9.68-18.68-25.23-3.91-15.54-1.87-29.45,4.54-31.06,6.41-1.61,14.78,9.68,18.68,25.23"/>
        <path class="cls-3" d="M101.04,70.52c3.91,15.54,1.87,29.45-4.54,31.06-6.41,1.61-14.78-9.68-18.68-25.23-3.91-15.54-1.87-29.45,4.54-31.06,6.41-1.61,14.78,9.68,18.68,25.23Z"/>
        <path class="cls-12" d="M84.54,76.77c13.85,8.53,22.23,20.07,18.71,25.79-3.52,5.72-17.6,3.44-31.45-5.09-13.85-8.53-22.23-20.08-18.71-25.79,3.52-5.72,17.6-3.44,31.45,5.09"/>
        <path class="cls-6" d="M84.54,76.77c13.85,8.53,22.23,20.07,18.71,25.79-3.52,5.72-17.6,3.44-31.45-5.09-13.85-8.53-22.23-20.08-18.71-25.79,3.52-5.72,17.6-3.44,31.45,5.09Z"/>
        <path class="cls-20" d="M77.02,80.5c16.01,2.85,28.04,10.52,26.86,17.13-1.18,6.61-15.11,9.65-31.13,6.8-16.01-2.85-28.04-10.52-26.86-17.13,1.18-6.61,15.11-9.65,31.13-6.8"/>
        <path class="cls-2" d="M77.02,80.5c16.01,2.85,28.04,10.52,26.86,17.13-1.18,6.61-15.11,9.65-31.13,6.8-16.01-2.85-28.04-10.52-26.86-17.13,1.18-6.61,15.11-9.65,31.13-6.8Z"/>
        <path class="cls-22" d="M115.12,102.2c-15.47,5.04-29.69,3.94-31.77-2.44-2.08-6.38,8.78-15.64,24.24-20.67,15.47-5.03,29.69-3.94,31.77,2.44,2.08,6.38-8.78,15.64-24.24,20.67"/>
        <path class="cls-5" d="M115.12,102.2c-15.47,5.04-29.69,3.94-31.77-2.44-2.08-6.38,8.78-15.64,24.24-20.67,15.47-5.03,29.69-3.94,31.77,2.44,2.08,6.38-8.78,15.64-24.24,20.67Z"/>
        <path class="cls-21" d="M117.16,94.05c-12.54,10.36-26.18,14.56-30.45,9.38-4.27-5.18,2.43-17.77,14.97-28.12,12.54-10.36,26.18-14.56,30.45-9.38,4.27,5.17-2.43,17.77-14.97,28.12"/>
        <path class="cls-1" d="M117.16,94.05c-12.54,10.36-26.18,14.56-30.45,9.38-4.27-5.18,2.43-17.77,14.97-28.12,12.54-10.36,26.18-14.56,30.45-9.38,4.27,5.17-2.43,17.77-14.97,28.12Z"/>
        <path class="cls-11" d="M72.3,100.67c14.02-11.25,29.67-16.54,34.97-11.82,5.3,4.73-1.77,17.68-15.79,28.93-14.02,11.25-29.67,16.54-34.97,11.82s1.77-17.68,15.79-28.93"/>
        <path class="cls-5" d="M72.3,100.67c14.02-11.25,29.67-16.54,34.97-11.82,5.3,4.73-1.77,17.68-15.79,28.93-14.02,11.25-29.67,16.54-34.97,11.82s1.77-17.68,15.79-28.93Z"/>
        <path class="cls-15" d="M74.08,108.76c8.33-14.67,20.8-24.37,27.85-21.68,7.05,2.69,6.01,16.77-2.32,31.43-8.33,14.67-20.8,24.37-27.85,21.68-7.05-2.69-6.01-16.77,2.32-31.43"/>
        <path class="cls-9" d="M74.08,108.76c8.33-14.67,20.8-24.37,27.85-21.68,7.05,2.69,6.01,16.77-2.32,31.43-8.33,14.67-20.8,24.37-27.85,21.68-7.05-2.69-6.01-16.77,2.32-31.43Z"/>
        <path class="cls-13" d="M95.95,119.71c-10.86-12.18-14.94-25.19-9.12-29.06,5.82-3.87,19.34,2.87,30.19,15.05,10.86,12.18,14.94,25.2,9.12,29.06-5.82,3.87-19.34-2.87-30.19-15.05"/>
        <path class="cls-2" d="M95.95,119.71c-10.86-12.18-14.94-25.19-9.12-29.06,5.82-3.87,19.34,2.87,30.19,15.05,10.86,12.18,14.94,25.2,9.12,29.06-5.82,3.87-19.34-2.87-30.19-15.05Z"/>
        <path class="cls-16" d="M105.1,118.95c-15.27-7.89-24.6-18.71-20.82-24.15,3.77-5.44,19.21-3.46,34.48,4.44,15.27,7.89,24.6,18.71,20.83,24.15-3.77,5.44-19.21,3.46-34.48-4.44"/>
        <path class="cls-2" d="M105.1,118.95c-15.27-7.89-24.6-18.71-20.82-24.15,3.77-5.44,19.21-3.46,34.48,4.44,15.27,7.89,24.6,18.71,20.83,24.15-3.77,5.44-19.21,3.46-34.48-4.44Z"/>
        <line class="cls-14" x1="93.78" y1="94.29" x2="109.03" y2="83.89"/>
        <line class="cls-7" x1="93.78" y1="94.29" x2="109.03" y2="83.89"/>
        <line class="cls-7" x1="94.44" y1="94.72" x2="94.44" y2="76.46"/>
        <line class="cls-14" x1="83.73" y1="105.94" x2="94.14" y2="92.88"/>
        <line class="cls-7" x1="83.73" y1="105.94" x2="94.14" y2="92.88"/>
        <line class="cls-14" x1="77.4" y1="85.94" x2="94.83" y2="93.17"/>
        <line class="cls-7" x1="77.4" y1="85.94" x2="94.83" y2="93.17"/>
        <line class="cls-14" x1="95.05" y1="94.18" x2="106.49" y2="104.65"/>
        <line class="cls-7" x1="95.05" y1="94.18" x2="106.49" y2="104.65"/>
        <path class="cls-23" d="M81.24,86.05c0,1.48-1.2,2.68-2.68,2.68s-2.68-1.2-2.68-2.68,1.2-2.68,2.68-2.68,2.68,1.2,2.68,2.68"/>
        <path class="cls-4" d="M81.24,86.05c0,1.48-1.2,2.68-2.68,2.68s-2.68-1.2-2.68-2.68,1.2-2.68,2.68-2.68,2.68,1.2,2.68,2.68Z"/>
        <path class="cls-23" d="M97.12,75.23c0,1.48-1.2,2.68-2.68,2.68s-2.68-1.2-2.68-2.68,1.2-2.68,2.68-2.68,2.68,1.2,2.68,2.68"/>
        <path class="cls-4" d="M97.12,75.23c0,1.48-1.2,2.68-2.68,2.68s-2.68-1.2-2.68-2.68,1.2-2.68,2.68-2.68,2.68,1.2,2.68,2.68Z"/>
        <path class="cls-23" d="M111.72,83.5c0,1.48-1.2,2.68-2.68,2.68s-2.68-1.2-2.68-2.68,1.2-2.68,2.68-2.68,2.68,1.2,2.68,2.68"/>
        <path class="cls-4" d="M111.72,83.5c0,1.48-1.2,2.68-2.68,2.68s-2.68-1.2-2.68-2.68,1.2-2.68,2.68-2.68,2.68,1.2,2.68,2.68Z"/>
        <path class="cls-23" d="M86.11,107.61c0,1.48-1.2,2.68-2.68,2.68s-2.68-1.2-2.68-2.68,1.2-2.68,2.68-2.68,2.68,1.2,2.68,2.68"/>
        <path class="cls-4" d="M86.11,107.61c0,1.48-1.2,2.68-2.68,2.68s-2.68-1.2-2.68-2.68,1.2-2.68,2.68-2.68,2.68,1.2,2.68,2.68Z"/>
        <path class="cls-23" d="M110.63,105.99c0,1.48-1.2,2.68-2.68,2.68s-2.68-1.2-2.68-2.68,1.2-2.68,2.68-2.68,2.68,1.2,2.68,2.68"/>
        <path class="cls-4" d="M110.63,105.99c0,1.48-1.2,2.68-2.68,2.68s-2.68-1.2-2.68-2.68,1.2-2.68,2.68-2.68,2.68,1.2,2.68,2.68Z"/>
      </g>
    </g>
  </g>
</svg>