<?xml version="1.0" encoding="UTF-8"?>
<svg id="Layer_1" data-name="Layer 1" xmlns="http://www.w3.org/2000/svg" xmlns:xlink="http://www.w3.org/1999/xlink" viewBox="0 0 195.01 190.18">
  <defs>
    <style>
      .cls-1 {
        stroke: #facee1;
      }

      .cls-1, .cls-2, .cls-3, .cls-4, .cls-5, .cls-6, .cls-7, .cls-8, .cls-9, .cls-10, .cls-11, .cls-12 {
        fill: none;
      }

      .cls-1, .cls-2, .cls-3, .cls-4, .cls-5, .cls-6, .cls-8, .cls-9, .cls-10, .cls-11, .cls-12 {
        stroke-miterlimit: 10;
      }

      .cls-1, .cls-3, .cls-5, .cls-6, .cls-9, .cls-10, .cls-11, .cls-12 {
        stroke-width: .89px;
      }

      .cls-2 {
        stroke: #fff1e9;
      }

      .cls-2, .cls-8 {
        stroke-width: 1.77px;
      }

      .cls-13 {
        fill: #f6a9cb;
      }

      .cls-13, .cls-14, .cls-15, .cls-16, .cls-17, .cls-18, .cls-19, .cls-7, .cls-20, .cls-21, .cls-22, .cls-23, .cls-24, .cls-25 {
        stroke-width: 0px;
      }

      .cls-3 {
        stroke: #f2bfd6;
      }

      .cls-14 {
        fill: #7bc474;
      }

      .cls-15 {
        fill: #704e2e;
      }

      .cls-4 {
        stroke: #5bba47;
        stroke-width: 1.33px;
      }

      .cls-16 {
        fill: #f8bed7;
      }

      .cls-17 {
        fill: #facee1;
      }

      .cls-5 {
        stroke: #f8c1d9;
      }

      .cls-18 {
        fill: #f3b7d1;
      }

      .cls-6 {
        stroke: #83bb77;
      }

      .cls-19 {
        fill: #f9c6dc;
      }

      .cls-26 {
        clip-path: url(#clippath-1);
      }

      .cls-8 {
        stroke: #d2b8a0;
      }

      .cls-9 {
        stroke: #f7b8d3;
      }

      .cls-20 {
        fill: #d2b8a0;
      }

      .cls-21 {
        fill: #f7b2d0;
      }

      .cls-22 {
        fill: #7fc27a;
      }

      .cls-10 {
        stroke: #7dbb6f;
      }

      .cls-23 {
        fill: #fff1e9;
      }

      .cls-27 {
        clip-path: url(#clippath);
      }

      .cls-24 {
        fill: #81b97d;
      }

      .cls-25 {
        fill: #6cb868;
      }

      .cls-11 {
        stroke: #8dca7c;
      }

      .cls-12 {
        stroke: #88c879;
      }
    </style>
    <clipPath id="clippath">
      <rect class="cls-7" y="0" width="195.01" height="190.18"/>
    </clipPath>
    <clipPath id="clippath-1">
      <rect class="cls-7" y="0" width="195.01" height="190.18"/>
    </clipPath>
  </defs>
  <g id="Artwork_9" data-name="Artwork 9">
    <g class="cls-27">
      <g class="cls-26">
        <path class="cls-23" d="M194.12,95.09c0,52.03-43.26,94.21-96.62,94.21S.89,147.12.89,95.09,44.14.89,97.5.89s96.62,42.18,96.62,94.21"/>
        <ellipse class="cls-2" cx="97.5" cy="95.09" rx="96.62" ry="94.21"/>
        <path class="cls-14" d="M104.17,126.9c-6.87,8.47-14.41,13.73-16.84,11.76-2.43-1.97,1.16-10.44,8.03-18.91,6.87-8.47,14.41-13.74,16.84-11.76,2.43,1.97-1.16,10.44-8.03,18.91"/>
        <path class="cls-11" d="M104.17,126.9c-6.87,8.47-14.41,13.73-16.84,11.76-2.43-1.97,1.16-10.44,8.03-18.91,6.87-8.47,14.41-13.74,16.84-11.76,2.43,1.97-1.16,10.44-8.03,18.91Z"/>
        <path class="cls-22" d="M77.84,121.12c7.34,8.54,11.12,17.32,8.46,19.6-2.66,2.29-10.77-2.78-18.1-11.32-7.34-8.54-11.12-17.32-8.46-19.6,2.66-2.29,10.77,2.78,18.1,11.32"/>
        <path class="cls-12" d="M77.84,121.12c7.34,8.54,11.12,17.32,8.46,19.6-2.66,2.29-10.77-2.78-18.1-11.32-7.34-8.54-11.12-17.32-8.46-19.6,2.66-2.29,10.77,2.78,18.1,11.32Z"/>
        <path class="cls-21" d="M135.64,60.86c-7.9,4.29-13.04,10.11-11.47,12.99,1.56,2.88,9.24,1.74,17.14-2.56,7.9-4.29,13.04-10.11,11.48-12.99-1.57-2.88-9.24-1.74-17.14,2.55"/>
        <path class="cls-9" d="M135.64,60.86c-7.9,4.29-13.04,10.11-11.47,12.99,1.56,2.88,9.24,1.74,17.14-2.56,7.9-4.29,13.04-10.11,11.48-12.99-1.57-2.88-9.24-1.74-17.14,2.55Z"/>
        <path class="cls-4" d="M92.18,123.33c0-29.64,14.2-53.63,31.74-53.63"/>
        <path class="cls-24" d="M92.49,105.55c2.4,10.64,1.69,19.86-1.58,20.6-3.27.74-7.87-7.29-10.27-17.92-2.4-10.64-1.69-19.86,1.58-20.6,3.27-.74,7.87,7.29,10.27,17.92"/>
        <path class="cls-6" d="M92.49,105.55c2.4,10.64,1.69,19.86-1.58,20.6-3.27.74-7.87-7.29-10.27-17.92-2.4-10.64-1.69-19.86,1.58-20.6,3.27-.74,7.87,7.29,10.27,17.92Z"/>
        <path class="cls-25" d="M81.19,111.21c4.95,9.71,6.43,18.88,3.31,20.48-3.13,1.59-9.68-4.99-14.63-14.7-4.95-9.71-6.43-18.88-3.31-20.48,3.13-1.59,9.68,4.99,14.63,14.7"/>
        <path class="cls-10" d="M81.19,111.21c4.95,9.71,6.43,18.88,3.31,20.48-3.13,1.59-9.68-4.99-14.63-14.7-4.95-9.71-6.43-18.88-3.31-20.48,3.13-1.59,9.68,4.99,14.63,14.7Z"/>
        <path class="cls-14" d="M101.4,116.98c-6.87,8.47-14.41,13.73-16.84,11.76-2.43-1.97,1.16-10.44,8.03-18.91,6.87-8.47,14.41-13.74,16.84-11.76,2.43,1.97-1.16,10.44-8.03,18.91"/>
        <path class="cls-11" d="M101.4,116.98c-6.87,8.47-14.41,13.73-16.84,11.76-2.43-1.97,1.16-10.44,8.03-18.91,6.87-8.47,14.41-13.74,16.84-11.76,2.43,1.97-1.16,10.44-8.03,18.91Z"/>
        <path class="cls-20" d="M50.69,123.33c4.65,7.65,10.27,18.92,15.52,26.4,3.89,4.67,13.37,3.1,20.46,3.42,10.92.02,15.93.28,19.7-7.76,3.91-6.8,9.03-15.77,12.64-22.06"/>
        <path class="cls-8" d="M50.69,123.33c4.65,7.65,10.27,18.92,15.52,26.4,3.89,4.67,13.37,3.1,20.46,3.42,10.92.02,15.93.28,19.7-7.76,3.91-6.8,9.03-15.77,12.64-22.06"/>
        <path class="cls-15" d="M50.69,123.8h68.32c2.85,0,2.85-4.43,0-4.43H50.69c-2.85,0-2.85,4.43,0,4.43"/>
        <path class="cls-17" d="M128.01,61.65c-4.56,2.73-7.46,6.3-6.46,7.96,1,1.67,5.5.8,10.07-1.93,4.56-2.73,7.46-6.3,6.46-7.96-1-1.67-5.51-.8-10.07,1.93"/>
        <path class="cls-1" d="M128.01,61.65c-4.56,2.73-7.46,6.3-6.46,7.96,1,1.67,5.5.8,10.07-1.93,4.56-2.73,7.46-6.3,6.46-7.96-1-1.67-5.51-.8-10.07,1.93Z"/>
        <path class="cls-13" d="M129.88,52.92c-6.62,6.79-9.98,14.26-7.51,16.67,2.48,2.41,9.85-1.13,16.48-7.93,6.62-6.79,9.98-14.25,7.51-16.67-2.48-2.41-9.85,1.13-16.47,7.93"/>
        <path class="cls-5" d="M129.88,52.92c-6.62,6.79-9.98,14.26-7.51,16.67,2.48,2.41,9.85-1.13,16.48-7.93,6.62-6.79,9.98-14.25,7.51-16.67-2.48-2.41-9.85,1.13-16.47,7.93Z"/>
        <path class="cls-18" d="M125.38,51.84c-4.61,8.29-5.91,16.37-2.88,18.05,3.02,1.68,9.21-3.67,13.83-11.96,4.61-8.29,5.91-16.37,2.88-18.05-3.02-1.68-9.21,3.67-13.83,11.96"/>
        <path class="cls-3" d="M125.38,51.84c-4.61,8.29-5.91,16.37-2.88,18.05,3.02,1.68,9.21-3.67,13.83-11.96,4.61-8.29,5.91-16.37,2.88-18.05-3.02-1.68-9.21,3.67-13.83,11.96Z"/>
        <path class="cls-16" d="M116.06,52.93c-3.12,8.96-3,17.14.26,18.28,3.27,1.14,8.44-5.2,11.56-14.16s3-17.14-.26-18.28c-3.27-1.14-8.44,5.2-11.56,14.16"/>
        <path class="cls-9" d="M116.06,52.93c-3.12,8.96-3,17.14.26,18.28,3.27,1.14,8.44-5.2,11.56-14.16s3-17.14-.26-18.28c-3.27-1.14-8.44,5.2-11.56,14.16Z"/>
        <path class="cls-19" d="M132.79,66.15c-8.76.76-15.64,3.97-15.37,7.17.28,3.2,7.61,5.17,16.37,4.4,8.77-.76,15.64-3.97,15.37-7.17-.28-3.19-7.61-5.17-16.37-4.4"/>
        <path class="cls-5" d="M132.79,66.15c-8.76.76-15.64,3.97-15.37,7.17.28,3.2,7.61,5.17,16.37,4.4,8.77-.76,15.64-3.97,15.37-7.17-.28-3.19-7.61-5.17-16.37-4.4Z"/>
      </g>
    </g>
  </g>
</svg>