<?xml version="1.0" encoding="UTF-8"?>
<svg id="Layer_1" data-name="Layer 1" xmlns="http://www.w3.org/2000/svg" xmlns:xlink="http://www.w3.org/1999/xlink" viewBox="0 0 194.53 189.72">
  <defs>
    <style>
      .cls-1 {
        stroke: #d6c0b3;
      }

      .cls-1, .cls-2, .cls-3, .cls-4, .cls-5, .cls-6 {
        fill: none;
      }

      .cls-1, .cls-2, .cls-4, .cls-5, .cls-6 {
        stroke-miterlimit: 10;
        stroke-width: 1.77px;
      }

      .cls-2 {
        stroke: #fbdbe9;
      }

      .cls-3, .cls-7, .cls-8, .cls-9, .cls-10, .cls-11, .cls-12 {
        stroke-width: 0px;
      }

      .cls-4 {
        stroke: #726658;
      }

      .cls-13 {
        clip-path: url(#clippath-1);
      }

      .cls-5 {
        stroke: #fff1e9;
      }

      .cls-7 {
        fill: #fafae3;
      }

      .cls-8 {
        fill: #726658;
      }

      .cls-6 {
        stroke: #e9f4e8;
      }

      .cls-9 {
        fill: #fbdbe9;
      }

      .cls-14 {
        clip-path: url(#clippath);
      }

      .cls-10 {
        fill: #e9f4e8;
      }

      .cls-11 {
        fill: #d6c0b3;
      }

      .cls-12 {
        fill: #d6c1b3;
      }
    </style>
    <clipPath id="clippath">
      <rect class="cls-3" width="194.53" height="189.72"/>
    </clipPath>
    <clipPath id="clippath-1">
      <rect class="cls-3" width="194.53" height="189.72"/>
    </clipPath>
  </defs>
  <g id="Artwork_11" data-name="Artwork 11">
    <g class="cls-14">
      <g class="cls-13">
        <path class="cls-10" d="M193.65,94.86c0,51.9-43.15,93.98-96.38,93.98S.88,146.76.88,94.86,44.04.88,97.27.88s96.38,42.08,96.38,93.98"/>
        <ellipse class="cls-6" cx="97.27" cy="94.86" rx="96.38" ry="93.98"/>
        <path class="cls-12" d="M135.05,135.09c-1.39,5.02-4.14,5.84-8.74,6.03-17.72.17-42.95.02-58.08.05-3.62-.5-8.11,1.24-10.61-5.52-2.17-8.23-1.65-17.67-1.87-29.2.02-15.05-.19-36.38.25-50.41.44-13.8,2.43-17.73,7.26-18.4,18.26-.85,46.32-.28,64.08-.23,2.48.24,5.06.46,6.81,3.72,3.08,6.78,2.33,21.09,2.57,33.63,0,11.37.03,24.53-.02,35.1-.08,11.95-.32,20.5-1.6,25.09l-.04.14Z"/>
        <path class="cls-1" d="M135.05,135.09c-1.39,5.02-4.14,5.84-8.74,6.03-17.72.17-42.95.02-58.08.05-3.62-.5-8.11,1.24-10.61-5.52-2.17-8.23-1.65-17.67-1.87-29.2.02-15.05-.19-36.38.25-50.41.44-13.8,2.43-17.73,7.26-18.4,18.26-.85,46.32-.28,64.08-.23,2.48.24,5.06.46,6.81,3.72,3.08,6.78,2.33,21.09,2.57,33.63,0,11.37.03,24.53-.02,35.1-.08,11.95-.32,20.5-1.6,25.09l-.04.14Z"/>
        <rect class="cls-11" x="90.55" y="37.25" width="48.27" height="103.88"/>
        <rect class="cls-1" x="90.55" y="37.25" width="48.27" height="103.88"/>
        <line class="cls-5" x1="70.64" y1="36.79" x2="71.24" y2="140.58"/>
        <path class="cls-8" d="M68.76,130.27c-1.07-.43-2.28-.7-3.58-.7-4.25,0-7.69,2.61-7.69,5.82s3.44,5.82,7.69,5.82c.1,0,.18-.02.28-.02-1.17-4.55,1.54-7.79,3.3-10.92"/>
        <path class="cls-4" d="M68.76,130.27c-1.07-.43-2.28-.7-3.58-.7-4.25,0-7.69,2.61-7.69,5.82s3.44,5.82,7.69,5.82c.1,0,.18-.02.28-.02-1.17-4.55,1.54-7.79,3.3-10.92Z"/>
        <line class="cls-8" x1="64.5" y1="130.05" x2="95.33" y2="130.44"/>
        <line class="cls-4" x1="64.5" y1="130.05" x2="95.33" y2="130.44"/>
        <line class="cls-8" x1="64.21" y1="141.22" x2="94.89" y2="141.19"/>
        <line class="cls-4" x1="64.21" y1="141.22" x2="94.89" y2="141.19"/>
        <path class="cls-8" d="M68,140.93c7.8.05,15.59.11,23.39.17,2.39.02,4.42-2.04,4.42-4.42,0-2.56-2.03-4.21-4.42-4.42-8.69-.75-17.37-1.5-26.06-2.24v8.84c20.91-.58,41.83-.51,62.74.21,5.69.19,5.68-8.64,0-8.84-20.91-.71-41.83-.78-62.74-.21-5.76.16-5.6,8.35,0,8.84,8.69.75,17.37,1.5,26.06,2.24v-8.84c-7.8-.05-15.59-.11-23.39-.17-5.69-.04-5.69,8.8,0,8.84"/>
        <path class="cls-8" d="M87.45,141.06c13.66.34,27.33-.08,40.94-1.24,2.38-.2,4.42-1.88,4.42-4.42,0-2.23-2.03-4.62-4.42-4.42-13.62,1.16-27.28,1.58-40.94,1.24-5.69-.14-5.69,8.7,0,8.84"/>
        <path class="cls-8" d="M89.21,141.61c13.45.79,26.93.65,40.36-.4,2.38-.19,4.42-1.9,4.42-4.42,0-2.25-2.03-4.61-4.42-4.42-13.43,1.06-26.91,1.19-40.36.4-2.38-.14-4.42,2.13-4.42,4.42,0,2.51,2.03,4.28,4.42,4.42"/>
        <path class="cls-8" d="M87.13,139.7c1.4.04,2.79.16,4.18.33.21.03.43.05.64.08-.64-.09-.71-.1-.21-.03.32.05.64.09.96.14.69.1,1.39.2,2.08.29,3.1.42,6.2.81,9.33.5,1.2-.12,2.25-.42,3.12-1.29.77-.77,1.34-2.02,1.29-3.12-.1-2.2-1.95-4.66-4.42-4.42-1.38.13-2.77.15-4.16.07-.75-.04-1.5-.11-2.24-.19-.32-.04-.64-.08-.96-.11-.93-.11.92.13-.27-.04-3.11-.43-6.21-.96-9.36-1.04-2.31-.06-4.52,2.08-4.42,4.42.11,2.45,1.94,4.35,4.42,4.42"/>
        <path class="cls-8" d="M90.24,141.29c4.84.52,9.71.76,14.59.73,2.31-.01,4.52-2.02,4.42-4.42-.11-2.38-1.94-4.43-4.42-4.42-4.87.03-9.74-.21-14.59-.73-1.06-.11-2.41.57-3.12,1.29-.77.77-1.34,2.02-1.29,3.12.05,1.14.43,2.33,1.29,3.12.92.84,1.89,1.16,3.12,1.29"/>
        <path class="cls-8" d="M92.17,141.48c3.86.47,7.75.61,11.63.4,1.17-.06,2.28-.45,3.12-1.29.77-.77,1.34-2.02,1.29-3.12-.1-2.29-1.95-4.55-4.42-4.42-3.88.2-7.77.07-11.63-.4-1.04-.13-2.42.59-3.12,1.29-.77.77-1.34,2.02-1.29,3.12.05,1.14.43,2.33,1.29,3.12.3.23.6.46.89.69.69.4,1.43.6,2.23.6"/>
        <path class="cls-8" d="M94.95,141.94c8.89.32,17.78.27,26.67-.15,2.31-.11,4.53-1.95,4.42-4.42-.1-2.3-1.94-4.53-4.42-4.42-8.88.42-17.78.47-26.67.15-2.31-.08-4.52,2.09-4.42,4.42.11,2.46,1.94,4.33,4.42,4.42"/>
        <path class="cls-8" d="M68.46,138.54c.07-.01.13-.03.2-.04.41-.12.94-.38,1.23-.51.12-.05.24-.12.35-.2.35-.26.71-.51,1.04-.81.05-.04.1-.09.14-.14.28-.33.55-.68.8-1.03.04-.06.08-.12.11-.18.32-.51.5-1.06.52-1.64.13-.59.11-1.17-.08-1.76-.14-.57-.4-1.08-.79-1.5-.31-.48-.72-.86-1.24-1.14l-1.06-.45c-.78-.21-1.57-.21-2.35,0l-1.06.45c-.66.39-1.19.92-1.59,1.59-.05.09-.1.17-.16.25l.69-.89c-.09.11-.19.21-.3.3.3-.23.6-.46.89-.69-.12.09-.25.17-.39.23l1.06-.45c-.12.05-.24.08-.37.11-.58.14-1.08.4-1.5.79-.48.31-.86.72-1.14,1.24-.32.51-.5,1.06-.52,1.64-.13.59-.1,1.18.08,1.76l.45,1.06c.39.66.92,1.19,1.59,1.59l1.06.45c.78.21,1.57.21,2.35,0"/>
        <path class="cls-8" d="M68.17,129.4s-.05,0-.08,0c.39.05.78.11,1.17.16-.03,0-.05-.01-.08-.02l1.06.45s-.05-.02-.07-.04c.3.23.6.46.89.69-.02-.02-.04-.03-.05-.05.23.3.46.6.69.89,0-.01-.01-.02-.02-.03-.88,2.16-1.76,4.33-2.64,6.49.18-.05.37-.09.56-.11-.39.05-.78.1-1.18.16.49-.06.99-.03,1.48.03-.39-.05-.78-.1-1.18-.16.34.05.69.11,1.03.17.59.18,1.18.21,1.76.08.59-.03,1.14-.2,1.64-.52.51-.28.93-.66,1.24-1.14.39-.43.65-.93.79-1.5.05-.39.11-.78.16-1.18,0-.8-.2-1.54-.6-2.23-.23-.3-.46-.6-.69-.89-.55-.55-1.2-.93-1.95-1.14-.27-.05-.53-.1-.8-.14-.64-.1-1.28-.2-1.92-.24-.27-.02-.53-.02-.8,0-.63.05-1.29.12-1.9.29-.75.21-1.4.59-1.95,1.14-.43.4-.74.87-.91,1.42-.28.53-.4,1.09-.38,1.7,0,.8.2,1.54.6,2.23.45.72.97,1.28,1.71,1.71.63.36,1.67.71,2.4.63.61.02,1.18-.1,1.7-.38.55-.18,1.02-.48,1.42-.91.43-.4.74-.87.91-1.42.28-.53.4-1.09.38-1.7-.05-.39-.11-.78-.16-1.18-.21-.75-.59-1.4-1.14-1.95-.3-.23-.6-.46-.89-.69-.69-.4-1.43-.6-2.23-.6"/>
        <path class="cls-8" d="M66.82,137.75c.19,0,.37,0,.56.02.61.02,1.18-.1,1.7-.38.55-.18,1.02-.48,1.42-.91.23-.3.46-.6.69-.89.4-.69.6-1.43.6-2.23,0-.02,0-.03,0-.05-.43,1.04-.86,2.08-1.29,3.12.01-.01.03-.02.04-.04-.65.38-1.3.76-1.95,1.14.02,0,.04-.01.06-.02-.39.05-.78.1-1.17.16.49-.02,1.03.1,1.52.17-.39-.05-.78-.11-1.18-.16,1.58.21,3.15.51,4.7.88,1.14.27,2.38.15,3.4-.45.92-.54,1.79-1.59,2.03-2.64.26-1.13.2-2.4-.45-3.41-.61-.95-1.51-1.76-2.64-2.03-1.25-.3-2.51-.55-3.78-.75-.96-.15-1.92-.28-2.89-.39-.65-.08-1.24-.06-1.9.09-.75.17-1.52.65-2.06,1.19-.55.55-.93,1.2-1.14,1.95-.08.4-.13.81-.16,1.22,1.47-1.47,2.95-2.95,4.42-4.42-.19-.02-.37-.03-.56-.02-1.15.04-2.3.47-3.12,1.29-.77.77-1.34,2.02-1.29,3.12.05,1.14.43,2.33,1.29,3.12.85.78,1.94,1.33,3.12,1.29"/>
        <path class="cls-8" d="M71.1,134.8c.25-1.09.2-1.48.01-2.55,0-.04-.02-.08-.03-.12-.13-.39-.29-.78-.49-1.15l.45,1.06s0-.02,0-.03v2.35s0-.01,0-.02l-.45,1.06s0,0,0-.01l-1.59,1.59s0,0,.01,0l-1.06.45s0,0,.01,0c-.39.05-.78.1-1.18.16.01,0,.02,0,.03,0-.39-.05-.78-.11-1.18-.16.24.04.48.09.71.18l-1.06-.45c.11.04.21.1.3.17-.3-.23-.6-.46-.89-.69.06.05.12.1.17.17.4.43.87.74,1.42.91.53.28,1.09.4,1.7.38.61.02,1.18-.1,1.7-.38.55-.18,1.02-.48,1.42-.91.23-.3.46-.6.69-.89.4-.69.6-1.43.6-2.23-.05-.39-.11-.78-.16-1.18-.21-.75-.59-1.4-1.14-1.95-.05-.06-.1-.11-.15-.16-.31-.26-.63-.52-.97-.74-.03-.02-.06-.04-.08-.05-.03-.02-.07-.03-.1-.05-.37-.17-.75-.33-1.13-.48-.07-.03-.14-.05-.21-.07-.14-.04-.28-.07-.42-.1-.41-.08-.83-.16-1.25-.17-.72,0-1.63.21-2.24.61-.16.1-.32.22-.46.35-.48.31-.86.72-1.14,1.24-.2.34-.37.7-.46,1.08-.05.39-.1.78-.16,1.18.04.4.1.8.16,1.19.11.4.32.76.49,1.14l-.45-1.06s.03.09.04.14c-.05-.39-.11-.78-.16-1.17,0,.05,0,.1,0,.14.05-.39.1-.78.16-1.18,0,.02,0,.04-.01.06-.19.59-.21,1.17-.08,1.76.03.59.2,1.13.52,1.64.28.52.66.93,1.14,1.24.43.39.93.65,1.5.79.39.05.78.11,1.17.16.8,0,1.54-.2,2.23-.6.3-.23.6-.46.89-.69.55-.55.93-1.2,1.14-1.95"/>
        <line class="cls-4" x1="67.87" y1="36.51" x2="68.76" y2="130.27"/>
        <path class="cls-8" d="M127.8,140.55c2.21,0,4.42-.09,6.63-.24,1.18-.08,2.27-.44,3.12-1.29.77-.77,1.34-2.02,1.29-3.12-.05-1.14-.43-2.33-1.29-3.12-.83-.76-1.96-1.37-3.12-1.29-2.21.15-4.42.23-6.63.24-1.13,0-2.32.49-3.12,1.29-.77.77-1.34,2.02-1.29,3.12.05,1.14.43,2.33,1.29,3.12.86.79,1.93,1.3,3.12,1.29"/>
        <path class="cls-8" d="M128.69,139.97c2.06-.1,4.12-.21,6.18-.31,1.17-.06,2.28-.45,3.12-1.29.43-.4.74-.87.91-1.42.28-.53.4-1.09.38-1.7-.05-1.14-.43-2.33-1.29-3.12-.84-.77-1.95-1.35-3.12-1.3-2.06.1-4.12.21-6.18.31-1.17.06-2.28.45-3.12,1.29-.43.4-.74.87-.91,1.42-.28.53-.4,1.09-.38,1.7.05,1.14.43,2.33,1.29,3.12.84.77,1.95,1.35,3.12,1.29"/>
        <path class="cls-8" d="M129.42,139.5c1.96-.26,3.93-.38,5.9-.37,1.13,0,2.33-.49,3.12-1.29.43-.4.74-.87.91-1.42.28-.52.4-1.09.38-1.7-.05-1.14-.43-2.33-1.29-3.12-.87-.8-1.92-1.29-3.12-1.29-1.97,0-3.94.12-5.9.37-.61-.02-1.18.1-1.7.38-.55.18-1.02.48-1.42.91-.43.4-.74.87-.91,1.42-.28.53-.4,1.09-.38,1.7.05,1.14.43,2.33,1.29,3.12.3.23.6.46.89.69.69.4,1.43.6,2.23.6"/>
        <path class="cls-8" d="M124.63,141.81c3.49.21,6.97.41,10.46.62,1.09.07,2.37-.54,3.12-1.29.77-.77,1.35-2.02,1.3-3.12-.11-2.51-1.94-4.27-4.42-4.42-3.49-.21-6.97-.41-10.46-.62-1.09-.06-2.37.54-3.12,1.29-.77.77-1.34,2.02-1.29,3.12.11,2.51,1.94,4.27,4.42,4.42"/>
        <path class="cls-8" d="M117.37,138.88c1.27,1.15,2.52,2.52,4.25,2.94,1.4.34,2.94.33,4.37.39,2.45.1,4.9.06,7.34-.09,1.18-.07,2.27-.44,3.12-1.29.77-.77,1.34-2.02,1.29-3.12-.1-2.27-1.95-4.57-4.42-4.42-3.4.21-6.93.31-10.32-.1.39.05.78.11,1.18.16-.15-.02-.29-.05-.43-.11l1.06.45c-.13-.05-.26-.12-.37-.2.3.23.6.46.89.69-.59-.48-1.14-1.02-1.71-1.54-1.71-1.56-4.58-1.81-6.25,0-1.56,1.7-1.83,4.59,0,6.25"/>
        <path class="cls-8" d="M114.64,140.83c2.61.6,5.31.95,7.99,1.03v-8.84c-1.07.02-2.14-.04-3.2-.17.39.05.78.1,1.18.16-.13-.02-.25-.03-.37-.05-.39,2.89-.78,5.79-1.17,8.68l3.35.09v-8.84c-.92.08-1.83.16-2.74.24.39,2.89.78,5.79,1.17,8.68.17-.03.35-.06.52-.08-.39.05-.78.11-1.18.16.59-.07,1.17-.06,1.76.01-.39-.05-.78-.11-1.17-.16.17.03.35.06.52.09v-8.52c-.18.04-.35.08-.54.11.39-.05.78-.11,1.18-.16-1.01.13-2.02,0-3.03-.12-1.04-.12-2.09-.26-3.13-.4.39.05.78.11,1.17.16-.95-.13-1.89-.26-2.84-.4-.59-.18-1.17-.21-1.76-.08-.59.03-1.13.2-1.64.52-.92.54-1.79,1.59-2.03,2.64-.26,1.13-.2,2.4.45,3.4.58.9,1.53,1.87,2.64,2.03,2,.3,4,.57,6.01.82,2,.25,3.88.49,5.88,0,1.81-.45,3.33-2.37,3.24-4.26-.04-.78-.24-1.54-.6-2.23-.47-.9-1.64-1.82-2.64-2.03-1.8-.37-3.35-.36-5.15-.02-.99.19-2.18,1.15-2.64,2.03-.47.89-.66,1.81-.52,2.82.13.93.51,1.88,1.22,2.54.82.75,1.97,1.39,3.12,1.29.91-.08,1.83-.16,2.74-.24,1.19-.1,2.25-.42,3.12-1.29.77-.77,1.34-2.02,1.29-3.12-.11-2.45-1.94-4.35-4.42-4.42-1.12-.03-2.24-.06-3.35-.09-2.2-.06-4.06,1.73-4.34,3.83-.13.94,0,1.99.52,2.82.58.9,1.53,1.87,2.64,2.03,1.58.23,3.15.41,4.75.38,1.15-.02,2.31-.48,3.12-1.29.77-.77,1.34-2.02,1.29-3.12-.11-2.45-1.94-4.35-4.42-4.42-1.24-.03-2.48-.13-3.71-.3.39.05.78.1,1.17.16-1.04-.14-2.08-.34-3.11-.57-1.15-.26-2.37-.16-3.4.45-.92.54-1.79,1.59-2.03,2.64-.26,1.13-.2,2.4.45,3.4.61.94,1.51,1.77,2.64,2.03"/>
        <path class="cls-8" d="M93.27,141.29c.2,0,.4.02.6.05-.39-.05-.78-.1-1.18-.16.48.07.95.2,1.4.38-.35-.15-.7-.3-1.06-.45.57.24,1.11.5,1.69.74.1.04.21.08.32.1.04,0,.07.01.11.02.39.05.78.11,1.17.16.08,0,.15.01.22,0v-8.84c-.86.04-1.72.02-2.57-.08-.61-.02-1.18.1-1.7.38-.55.18-1.02.48-1.42.91-.43.4-.74.87-.91,1.42-.28.53-.4,1.09-.38,1.7.05.39.1.78.16,1.18.21.75.59,1.4,1.14,1.95.3.23.6.46.89.69.69.4,1.43.6,2.23.6.85.1,1.71.12,2.57.08.61.02,1.18-.1,1.7-.38.55-.18,1.02-.48,1.42-.91.43-.4.74-.87.91-1.42.28-.53.4-1.09.38-1.7-.05-.39-.11-.78-.16-1.17-.21-.75-.59-1.4-1.13-1.95-.3-.23-.6-.46-.89-.69-.69-.4-1.43-.6-2.23-.6-.08,0-.15,0-.22,0,.39.05.78.1,1.18.16-.17-.03-.33-.08-.48-.15.35.15.7.3,1.06.45-.76-.33-1.5-.72-2.3-.94-.22-.06-.45-.11-.68-.14-.61-.09-1.22-.2-1.84-.22-.61-.02-1.18.1-1.7.38-.55.18-1.02.48-1.42.91-.43.4-.74.87-.91,1.42-.28.53-.4,1.09-.38,1.7.05.39.11.78.16,1.18.21.75.59,1.4,1.14,1.95.3.23.6.46.89.69.69.4,1.43.6,2.23.6"/>
        <path class="cls-8" d="M128.09,139.09c2.31-.05,4.62-.12,6.92.1.61.02,1.18-.1,1.7-.38.55-.18,1.02-.48,1.42-.91.77-.77,1.34-2.02,1.29-3.12-.05-1.14-.43-2.33-1.29-3.12-.3-.23-.6-.46-.89-.69-.69-.4-1.43-.6-2.23-.6-2.3-.22-4.61-.15-6.92-.1-1.15.02-2.31.48-3.12,1.29-.77.77-1.34,2.02-1.29,3.12.05,1.14.43,2.33,1.29,3.12.86.78,1.94,1.32,3.12,1.29"/>
        <rect class="cls-4" x="134.94" y="131.27" width="3.87" height="10.19"/>
        <rect class="cls-9" x="81.41" y="53.72" width="44.77" height="53.61"/>
        <rect class="cls-2" x="81.41" y="53.72" width="44.77" height="53.61"/>
        <path class="cls-7" d="M98.18,70.67s0,.08,0,.12c.03.39.06.86.18,1.27.12.43.29.86.52,1.23.22.35.49.66.75.98.03.03.05.06.08.09.01.01.03.02.04.04.15.12.3.24.46.36.15.12.31.24.46.36.03.02.07.05.1.07.03.02.07.04.11.05l1.06.45s.02,0,.03.01c.02,0,.04.01.05.02.44.13.92.17,1.38.19.04,0,.08,0,.12,0,.39-.05.78-.11,1.17-.16.01,0,.02,0,.04,0,.02,0,.04,0,.05-.01.02,0,.03-.01.05-.02.01,0,.02,0,.03-.01l1.06-.45s.08-.04.11-.06c.3-.23.6-.46.89-.69.43-.4.74-.87.91-1.42.2-.34.3-.72.3-1.12.13-.59.11-1.17-.08-1.76-.01-.06-.03-.13-.05-.19-.07-.2-.17-.42-.25-.6-.08-.19-.17-.42-.27-.62-.03-.06-.06-.11-.1-.17-.25-.36-.51-.71-.8-1.03-.04-.05-.09-.1-.14-.14-.33-.29-.68-.56-1.04-.8-.05-.03-.11-.06-.16-.09,0,0-.01,0-.02-.01l-1.06-.45c-.39-.05-.78-.1-1.17-.16-.39.05-.78.11-1.18.16,0,0-.01,0-.02,0l-1.06.45s-.03.02-.05.03c-.35.22-.71.46-.99.78-.24.26-.59.64-.77,1.02-.48,1.02-.44.89-.56,1.77-.12.86-.13.84.08,1.9.08.42.29.82.49,1.19,0,.01.01.02.02.03.11.15.23.3.34.45.31.48.73.86,1.24,1.14.17.07.35.15.53.22.18.08.37.16.55.23.02,0,.04.02.07.02.06.02.12.03.18.04.17.03.93.18,1.36.17.04,0,.08,0,.11,0,.36-.04.84-.1,1.2-.16.02,0,.04,0,.06,0,.07-.02.14-.04.21-.07.08-.03.79-.3,1.14-.48.03-.02.07-.04.1-.06.37-.24.74-.51,1.05-.82.43-.4.74-.87.91-1.42.28-.53.4-1.09.38-1.7-.05-.39-.11-.78-.16-1.18-.21-.75-.59-1.4-1.14-1.95-.32-.31-.69-.58-1.06-.83-.21-.14-.51-.24-.72-.32-.21-.09-.48-.23-.73-.29-.22-.05-.49-.07-.69-.1-.2-.03-.46-.08-.69-.09-.07,0-.15,0-.22,0-.42.05-.85.09-1.27.17-.03,0-.07.02-.1.02-.43.13-.85.32-1.25.52-.03.02-.06.04-.09.05-.34.22-.66.5-.98.75-.55.55-.93,1.2-1.14,1.95-.21.78-.21,1.57,0,2.35.21.75.59,1.4,1.14,1.95.55.55,1.2.93,1.95,1.14.05.01.1.03.15.05-.35-.15-.7-.3-1.06-.45.09.04.17.09.25.14-.3-.23-.6-.46-.89-.69.08.06.14.13.2.21-.23-.3-.46-.6-.69-.89.06.08.11.17.16.27-.15-.35-.3-.7-.45-1.06.04.09.06.18.07.28-.05-.39-.11-.78-.16-1.18,0,.07,0,.13,0,.2-.02.61.1,1.18.38,1.7.18.55.48,1.02.91,1.42.4.43.87.74,1.42.91.53.28,1.09.4,1.7.38.39-.05.78-.11,1.18-.16.75-.21,1.4-.59,1.95-1.14.23-.3.46-.6.69-.89.4-.69.6-1.43.6-2.23,0-.07,0-.13,0-.2-.01-.14-.07-.96-.2-1.36-.01-.03-.02-.06-.03-.09-.14-.35-.31-.74-.46-1.09,0-.01-.01-.03-.02-.04-.03-.06-.07-.12-.11-.18-.21-.29-.48-.63-.7-.91-.01-.02-.02-.03-.04-.04-.02-.02-.04-.05-.07-.07-.31-.31-.68-.55-1.03-.8-.06-.04-.12-.08-.18-.11-.18-.08-.39-.16-.56-.24-.16-.07-.38-.17-.57-.24-.04-.01-.07-.02-.11-.03.65,2.46,1.3,4.92,1.95,7.39,0,0,.01,0,.02-.01l-.89.69c.07-.06.15-.1.24-.14l-1.06.45c.1-.04.2-.07.31-.08-.39.05-.78.11-1.18.16.11-.01.23-.01.34,0-.39-.05-.78-.11-1.18-.16.11.02.21.04.31.09l-1.06-.45c.09.04.18.09.26.15-.3-.23-.6-.46-.89-.69.03.03.07.06.1.09v-6.25s-.07.06-.1.09c.3-.23.6-.46.89-.69-.07.05-.15.1-.24.14l1.06-.45c-.09.04-.19.06-.29.08.39-.05.78-.11,1.18-.16-.1.01-.2.01-.3,0,.39.05.78.1,1.18.16-.09-.01-.18-.04-.27-.07.88.68,1.76,1.35,2.64,2.03-.01-.02-.02-.04-.04-.07l.45,1.06s-.02-.07-.03-.11c.05.39.11.78.16,1.17,0-.04,0-.09,0-.13-.05.39-.11.78-.16,1.17,0-.04.02-.09.04-.13l-.45,1.06s.04-.08.07-.11c-.23.3-.46.6-.69.89.02-.03.05-.05.08-.08l-.89.69s.05-.03.08-.05l-1.06.45s.01,0,.02,0c-1.13-.15-2.27-.3-3.4-.45.09.04.18.1.26.16-.3-.23-.6-.46-.89-.69.1.08.2.17.28.28-.23-.3-.46-.6-.69-.89.08.1.14.21.19.32l-.45-1.06c.04.09.06.17.08.27.68-1.66,1.35-3.33,2.03-4.99-.04.02-.07.04-.11.06.35-.15.7-.3,1.06-.45-.06.02-.11.04-.17.05.39-.05.78-.1,1.18-.16-.07,0-.13,0-.2,0,.39.05.78.1,1.18.16-.07-.01-.14-.03-.21-.06l1.06.45c-.08-.03-.15-.08-.22-.13.3.23.6.46.89.69-.06-.05-.11-.1-.15-.16l.69.89s-.07-.1-.09-.15c.15.35.3.7.45,1.06-.02-.05-.04-.11-.05-.17.05.39.11.78.16,1.18,0-.04,0-.09,0-.13.02-.61-.1-1.18-.38-1.7-.18-.55-.48-1.02-.91-1.42-.4-.43-.87-.74-1.42-.91-.53-.28-1.09-.4-1.7-.38-.39.05-.78.11-1.18.16-.75.21-1.4.59-1.95,1.14-.23.3-.46.6-.69.89-.4.69-.6,1.43-.6,2.23"/>
        <path class="cls-7" d="M95.96,79.89c.31.28.64.54.99.77.04.03.08.05.12.07.35.16.77.38,1.17.49.39.11,1.26.18,1.29.18.04,0,.09,0,.14,0,.43,0,.86-.1,1.29-.17.05,0,.09-.02.13-.03.2-.07.45-.19.59-.25.17-.07.4-.15.59-.25.3-.23.6-.46.89-.69.23-.3.46-.6.69-.89l.45-1.06c.18-.59.21-1.18.08-1.76,0-.4-.1-.77-.3-1.12-.11-.37-.3-.7-.57-.98-.2-.33-.46-.6-.79-.79-.43-.39-.93-.65-1.5-.79-.13-.05-.27-.08-.41-.11-.04,0-.07-.01-.11-.02-.41-.06-.82-.12-1.23-.16-.07,0-.14-.01-.21-.02-.14,0-.27,0-.41.02-.47.05-1.06.1-1.56.24-.57.14-1.07.4-1.5.79-.48.31-.86.72-1.14,1.24-.32.51-.5,1.06-.52,1.64-.13.59-.11,1.17.08,1.76l.45,1.06c.39.66.92,1.19,1.59,1.58l1.06.45c.78.21,1.57.21,2.35,0,.12-.03.24-.06.36-.08-.39.05-.78.1-1.18.16.24-.03.47-.03.7,0-.39-.05-.78-.1-1.18-.16.18.02.35.07.52.13l-1.06-8.08s-.04.02-.06.03l1.06-.45c-.07.03-.14.05-.22.06.39-.05.78-.1,1.18-.16-.08,0-.15,0-.23,0,.39.05.78.11,1.17.16-.08-.01-.15-.03-.22-.06l1.06.45c-.06-.03-.12-.06-.18-.1.3.23.6.46.89.69-.02-.01-.04-.03-.05-.04-.4-.43-.87-.74-1.42-.91-.53-.28-1.09-.4-1.7-.38-.61-.02-1.18.1-1.7.38-.55.18-1.02.48-1.42.91-.23.3-.46.6-.69.89-.4.69-.6,1.43-.6,2.23.05.39.1.78.16,1.18.21.75.59,1.4,1.14,1.95"/>
        <path class="cls-7" d="M106.34,81.84c.16.05.31.09.47.12.54.1,1.09.18,1.64.21.16.01.33.01.49,0,.55-.04,1.1-.12,1.64-.22.75-.21,1.4-.59,1.95-1.14.43-.4.74-.87.91-1.42.28-.53.4-1.09.38-1.7,0-.8-.2-1.54-.6-2.23-.26-.36-.51-.72-.81-1.04-.29-.3-.84-.67-1.04-.82-.05-.04-.1-.08-.16-.11-.37-.21-.99-.44-1.23-.53-.47-.19-1.11-.21-1.55-.26-.07,0-.15-.01-.22,0-.46.02-.91.1-1.37.18,1.43,2.46,2.87,4.92,4.3,7.38.11-.1.23-.21.35-.31.43-.4.74-.87.91-1.42.28-.53.4-1.09.38-1.7.02-.61-.1-1.18-.38-1.7-.18-.55-.48-1.02-.91-1.42-.3-.23-.6-.46-.89-.69-.69-.4-1.43-.6-2.23-.6-.39.05-.78.11-1.17.16-.75.21-1.4.59-1.95,1.14-.12.1-.23.21-.35.31l-.69.89c-.32.51-.5,1.05-.52,1.64-.11.39-.11.78,0,1.18.03.59.2,1.13.52,1.64.23.3.46.6.69.89.3.23.6.46.89.69.51.32,1.06.5,1.64.52.59.13,1.17.1,1.76-.08.03,0,.05,0,.08-.01-.39.05-.78.1-1.18.16.12-.01.24-.01.36,0-.39-.05-.78-.1-1.17-.16.12.02.23.05.34.1l-1.06-.45c.12.05.23.11.33.19-.3-.23-.6-.46-.89-.69.09.07.16.14.23.23-.23-.3-.46-.6-.69-.89.01.01.02.03.03.04.88-2.16,1.76-4.33,2.64-6.49-.07.01-.14.02-.21.03.39-.05.78-.11,1.18-.16-.35.04-.69.04-1.04,0,.39.05.78.11,1.18.16-.22-.03-.43-.08-.64-.14-.59-.19-1.17-.21-1.76-.08-.59.03-1.13.2-1.64.52-.52.28-.93.66-1.24,1.14-.39.43-.65.93-.79,1.5-.05.39-.11.78-.16,1.17,0,.8.2,1.54.6,2.23.23.3.46.6.69.89.55.55,1.2.93,1.95,1.14"/>
        <path class="cls-7" d="M92.81,87.09c.37.05.83.13,1.2.16.02,0,.03,0,.05,0,.04,0,.08,0,.11,0,.27-.03.93-.11,1.2-.16.02,0,.03,0,.05,0,.04-.01.07-.02.11-.04.35-.15.7-.3,1.06-.45,0,0,.02,0,.02-.01.01,0,.03-.02.04-.02.03-.02.06-.04.09-.06.3-.23.6-.46.89-.69,0,0,.01-.01.02-.02.02-.01.03-.03.05-.04.01-.01.02-.02.03-.04.23-.27.5-.65.71-.92l.45-1.06c.18-.59.21-1.18.08-1.76,0-.4-.1-.77-.3-1.12-.18-.55-.48-1.02-.91-1.42-.32-.25-.64-.5-.96-.75-.04-.03-.07-.05-.11-.08-.07-.05-.14-.09-.21-.13-.07-.04-.14-.08-.22-.11-.2-.1-.42-.18-.62-.27-.21-.09-.42-.19-.64-.27-.15-.06-.31-.1-.46-.13-.04,0-.09-.01-.13-.02-.42-.06-.84-.12-1.26-.17-.09-.01-.17-.02-.26-.02-.39.05-.78.1-1.18.16-.57.14-1.08.4-1.5.79-.33.2-.6.46-.79.79-.39.43-.65.93-.79,1.5-.05.39-.11.78-.16,1.18.05.39.1.78.16,1.17.14.58.4,1.08.79,1.5.31.48.72.86,1.24,1.14.02,0,.04.02.05.03.34.16.75.32,1.1.46.04.01.08.03.11.04.09.03.17.05.27.06.37.05.83.12,1.2.16.02,0,.04,0,.06,0,.04,0,.09,0,.14,0,.04,0,.08,0,.12,0,.21-.02.46-.06.65-.09.21-.03.43-.05.65-.09.57-.14,1.07-.4,1.5-.79.48-.31.86-.72,1.14-1.24.15-.35.3-.71.45-1.06.18-.59.21-1.17.08-1.76,0-.4-.1-.77-.3-1.12-.18-.55-.48-1.02-.91-1.42-.3-.23-.6-.46-.89-.69-.69-.4-1.43-.6-2.23-.6-.21,0-.42,0-.64,0-.61-.02-1.18.1-1.7.38-.55.18-1.02.48-1.42.91-.43.4-.74.87-.91,1.42-.28.53-.4,1.09-.38,1.7.05.39.11.78.16,1.18.21.75.59,1.4,1.14,1.95.3.23.6.46.89.69.69.4,1.43.6,2.23.6.21,0,.43,0,.64,0-.39-2.89-.78-5.79-1.17-8.68-.02,0-.04,0-.06,0,.39-.05.78-.1,1.17-.16-.13.02-.26.02-.39,0,.39.05.78.11,1.17.16-.14-.02-.27-.05-.4-.11l1.06.45s-.05-.02-.08-.04c-.74,2.74-1.49,5.49-2.23,8.23.11,0,.21.01.32.02-.39-.05-.78-.1-1.18-.16.25.04.5.1.73.2l-1.06-.45c.22.1.44.22.63.36-.3-.23-.6-.46-.89-.69.02.02.05.04.07.05-.23-1.79-.46-3.57-.69-5.35,0,0-.01.01-.02.02.23-.3.46-.6.69-.89-.03.04-.07.08-.11.11.3-.23.6-.46.89-.69-.05.04-.1.07-.15.09l1.06-.45c-.06.02-.11.04-.17.05.39-.05.78-.1,1.18-.16-.06,0-.12,0-.18,0,.39.05.78.11,1.18.16,0,0-.02,0-.03,0-.59-.19-1.17-.21-1.76-.08-.59.03-1.13.2-1.64.52-.52.28-.93.66-1.24,1.14-.39.43-.65.93-.79,1.5-.05.39-.11.78-.16,1.17,0,.8.2,1.54.6,2.23.23.3.46.6.69.89.55.55,1.2.93,1.95,1.14"/>
        <path class="cls-7" d="M111.85,86.87c5.69,0,5.7-8.84,0-8.84s-5.7,8.84,0,8.84"/>
        <path class="cls-7" d="M97.71,86.65c3.47.12,6.94.06,10.41-.18,1.18-.08,2.27-.44,3.12-1.3.77-.77,1.34-2.02,1.29-3.12-.05-1.14-.43-2.33-1.29-3.12-.83-.76-1.96-1.38-3.12-1.29-3.46.24-6.94.3-10.41.18-2.31-.08-4.52,2.09-4.42,4.42.11,2.46,1.94,4.33,4.42,4.42"/>
        <path class="cls-7" d="M97.32,86.3c3.46,0,6.92-.15,10.36-.48-.39-2.89-.78-5.79-1.18-8.68-.5.2-.99.33-1.52.41.39-.05.78-.1,1.18-.16-2.01.23-4.02-.23-6.04-.16-1.54.05-3.27.11-4.64.89-2.56,1.47-3.28,5.37-1.01,7.45,2.22,2.04,5.54,1.54,8.32,1.44,2.22-.07,4.44-.22,6.65-.42,1.19-.11,2.25-.42,3.12-1.3.77-.77,1.34-2.02,1.29-3.12-.11-2.43-1.94-4.38-4.42-4.42-4.37-.07-8.73.11-13.07.55-1.2.12-2.24.41-3.12,1.3-.77.77-1.34,2.02-1.29,3.12.11,2.45,1.94,4.35,4.42,4.42,5.16.14,10.32.18,15.49.1,2.31-.04,4.53-2.01,4.42-4.42-.11-2.36-1.94-4.46-4.42-4.42-5.16.08-10.33.04-15.49-.1v8.84c4.34-.44,8.71-.62,13.07-.55v-8.84c-1.91.17-3.82.31-5.74.39-1.85.08-3.78.23-5.63.08.39.05.78.1,1.18.16-.44-.11-.25-.02.58.25.53.53,1.06,1.06,1.59,1.58-.02-.04-.05-.08-.08-.12.2.74.4,1.49.6,2.23,0-.05,0-.1,0-.15-.2.74-.4,1.49-.6,2.23.02-.05.05-.1.07-.14l-1.59,1.59c-.58.43-1.06.32-.29.21-.39.05-.78.11-1.17.16,1.68-.21,3.32-.13,5.01,0,1.82.15,3.78.14,5.51-.55,1.06-.42,2.08-.97,2.64-2.03.47-.89.66-1.81.52-2.82-.27-2-2.15-4.04-4.34-3.83-3.44.33-6.9.49-10.36.48-2.31,0-4.52,2.04-4.42,4.42.11,2.4,1.94,4.42,4.42,4.42"/>
        <path class="cls-7" d="M114.01,87.46c5.69,0,5.7-8.84,0-8.84s-5.7,8.84,0,8.84"/>
        <path class="cls-7" d="M92.21,86.87c5.69,0,5.7-8.84,0-8.84s-5.7,8.84,0,8.84"/>
        <path class="cls-7" d="M91.82,85.5c5.69,0,5.7-8.84,0-8.84s-5.7,8.84,0,8.84"/>
        <path class="cls-7" d="M96.53,81.37c5.69,0,5.7-8.84,0-8.84s-5.7,8.84,0,8.84"/>
        <path class="cls-7" d="M109.3,81.37c5.69,0,5.7-8.84,0-8.84s-5.7,8.84,0,8.84"/>
        <path class="cls-7" d="M111.06,81.57c5.69,0,5.7-8.84,0-8.84s-5.7,8.84,0,8.84"/>
        <path class="cls-7" d="M110.28,80.78c5.69,0,5.7-8.84,0-8.84s-5.7,8.84,0,8.84"/>
        <path class="cls-7" d="M111.26,80.59c5.69,0,5.7-8.84,0-8.84s-5.7,8.84,0,8.84"/>
        <path class="cls-7" d="M107.14,79.01c5.69,0,5.7-8.84,0-8.84s-5.7,8.84,0,8.84"/>
        <path class="cls-7" d="M96.14,80.39c5.69,0,5.7-8.84,0-8.84s-5.7,8.84,0,8.84"/>
        <path class="cls-7" d="M105.37,75.09c5.69,0,5.7-8.84,0-8.84s-5.7,8.84,0,8.84"/>
        <path class="cls-7" d="M104.19,74.5c5.69,0,5.7-8.84,0-8.84s-5.7,8.84,0,8.84"/>
        <path class="cls-7" d="M103.41,74.69c5.69,0,5.7-8.84,0-8.84s-5.7,8.84,0,8.84"/>
        <path class="cls-7" d="M107.33,78.43c5.69,0,5.7-8.84,0-8.84s-5.7,8.84,0,8.84"/>
        <path class="cls-7" d="M89.35,80.92c-.66,1.68.07,3.74,1.32,4.94,1.27,1.22,2.9,1.43,4.58,1.45,1.83.02,3.66.05,5.49.07,3.78.05,7.57.1,11.35.15,2.31.03,4.52-2.05,4.42-4.42-.11-2.42-1.94-4.39-4.42-4.42-2.99-.04-5.98-.08-8.97-.12-1.47-.02-2.93-.04-4.39-.06-.73-.01-1.47-.02-2.2-.03-.37,0-.73-.01-1.1-.01-.18,0-.37,0-.55,0-1.47-.08-.63.5,2.5,1.75.2.74.4,1.49.6,2.23-.04.28-.07.55-.11.83.85-2.16-.93-4.94-3.09-5.44-2.54-.58-4.53.78-5.44,3.09"/>
        <path class="cls-7" d="M91.11,87.21c5.69,0,5.7-8.84,0-8.84s-5.7,8.84,0,8.84"/>
        <path class="cls-7" d="M90.15,87.8c5.69,0,5.7-8.84,0-8.84s-5.7,8.84,0,8.84"/>
        <path class="cls-7" d="M93.83,87.71c.77.02,1.54.03,2.32.05,2.2.04,4.05-1.71,4.34-3.83.27-2.03-1-4.42-3.17-4.85-2.06-.41-4.19-.43-6.19.3-2.08.77-3.47,2.55-3.17,4.85.28,2.09,2.13,3.91,4.34,3.83,6.18-.23,12.36-.49,18.54-.8,2.3-.11,4.53-1.95,4.42-4.42-.1-2.3-1.95-4.54-4.42-4.42-6.18.31-12.35.57-18.54.8.39,2.89.78,5.79,1.18,8.68.25-.09.51-.18.77-.25.1-.03.21-.05.32-.07.34-.07.21-.05-.37.04.03.04.58-.02.65-.02,1.04-.05-.9-.2.12,0,.39-2.89.78-5.79,1.18-8.68-.77-.02-1.54-.03-2.32-.05-2.31-.05-4.52,2.06-4.42,4.42.11,2.43,1.94,4.37,4.42,4.42"/>
        <path class="cls-7" d="M104.58,74.4c5.69,0,5.7-8.84,0-8.84s-5.7,8.84,0,8.84"/>
      </g>
    </g>
  </g>
</svg>