<?xml version="1.0" encoding="UTF-8"?>
<svg id="Layer_1" data-name="Layer 1" xmlns="http://www.w3.org/2000/svg" xmlns:xlink="http://www.w3.org/1999/xlink" viewBox="0 0 194.38 189.57">
  <defs>
    <style>
      .cls-1 {
        fill: #f7aab8;
      }

      .cls-1, .cls-2, .cls-3, .cls-4, .cls-5, .cls-6, .cls-7 {
        stroke-width: 0px;
      }

      .cls-2 {
        fill: #f6d7dd;
      }

      .cls-3, .cls-8, .cls-9, .cls-10, .cls-11 {
        fill: none;
      }

      .cls-4 {
        fill: #f48da0;
      }

      .cls-8 {
        stroke: #f5d7dd;
      }

      .cls-8, .cls-9, .cls-10 {
        stroke-width: .44px;
      }

      .cls-8, .cls-9, .cls-10, .cls-11 {
        stroke-miterlimit: 10;
      }

      .cls-12 {
        clip-path: url(#clippath-1);
      }

      .cls-5 {
        fill: #f59bac;
      }

      .cls-9 {
        stroke: #f7b1be;
      }

      .cls-13 {
        clip-path: url(#clippath);
      }

      .cls-6 {
        fill: #f8bac4;
      }

      .cls-10 {
        stroke: #f7d7dd;
      }

      .cls-7 {
        fill: #fcf4f1;
      }

      .cls-11 {
        stroke: #fef5f1;
        stroke-width: 1.77px;
      }
    </style>
    <clipPath id="clippath">
      <rect class="cls-3" width="194.38" height="189.57"/>
    </clipPath>
    <clipPath id="clippath-1">
      <rect class="cls-3" width="194.38" height="189.57"/>
    </clipPath>
  </defs>
  <g id="Artwork_13" data-name="Artwork 13">
    <g class="cls-13">
      <g class="cls-12">
        <path class="cls-7" d="M193.5,94.79c0,51.86-43.12,93.9-96.31,93.9S.88,146.65.88,94.79,44,.88,97.19.88s96.31,42.04,96.31,93.9"/>
        <ellipse class="cls-11" cx="97.19" cy="94.79" rx="96.31" ry="93.9"/>
        <path class="cls-2" d="M115.94,101.58c-5.74,19.93-15.34,34.66-21.45,32.91-6.11-1.76-6.41-19.34-.67-39.27,5.74-19.93,15.34-34.66,21.45-32.91,6.11,1.76,6.41,19.34.67,39.27"/>
        <path class="cls-8" d="M115.94,101.58c-5.74,19.93-15.34,34.66-21.45,32.91-6.11-1.76-6.41-19.34-.67-39.27,5.74-19.93,15.34-34.66,21.45-32.91,6.11,1.76,6.41,19.34.67,39.27Z"/>
        <path class="cls-2" d="M75.5,101.43c4.76,20.19,13.63,35.37,19.82,33.91,6.19-1.46,7.35-19.01,2.59-39.19-4.76-20.19-13.63-35.37-19.82-33.91-6.19,1.46-7.35,19.01-2.59,39.19"/>
        <path class="cls-10" d="M75.5,101.43c4.76,20.19,13.63,35.37,19.82,33.91,6.19-1.46,7.35-19.01,2.59-39.19-4.76-20.19-13.63-35.37-19.82-33.91-6.19,1.46-7.35,19.01-2.59,39.19Z"/>
        <path class="cls-6" d="M106.94,96.54c0,21.57-4.56,39.05-10.19,39.05-13.41-.98-13.39-77.16,0-78.1,5.63,0,10.19,17.48,10.19,39.05"/>
        <path class="cls-9" d="M106.94,96.54c0,21.57-4.56,39.05-10.19,39.05-13.41-.98-13.39-77.16,0-78.1,5.63,0,10.19,17.48,10.19,39.05Z"/>
        <path class="cls-4" d="M127.62,113.7c-13.16,16.03-27.82,25.75-32.73,21.71-4.91-4.03,1.78-20.3,14.94-36.33,13.16-16.03,27.82-25.75,32.73-21.71,4.91,4.04-1.78,20.3-14.94,36.33"/>
        <path class="cls-9" d="M127.62,113.7c-13.16,16.03-27.82,25.75-32.73,21.71-4.91-4.03,1.78-20.3,14.94-36.33,13.16-16.03,27.82-25.75,32.73-21.71,4.91,4.04-1.78,20.3-14.94,36.33Z"/>
        <path class="cls-5" d="M67.75,117.04c14.67,14.67,30.2,22.91,34.69,18.42,4.49-4.49-3.75-20.03-18.42-34.69-14.67-14.67-30.2-22.91-34.69-18.42-4.49,4.49,3.75,20.03,18.42,34.69"/>
        <ellipse class="cls-9" cx="75.89" cy="108.9" rx="11.51" ry="37.55" transform="translate(-54.78 85.56) rotate(-45)"/>
        <path class="cls-1" d="M122.52,104.5c-7.43,19.36-18.27,33.22-24.2,30.94-5.94-2.28-4.72-19.82,2.71-39.18,7.43-19.37,18.27-33.22,24.2-30.94,5.94,2.28,4.72,19.82-2.71,39.18"/>
        <path class="cls-9" d="M122.52,104.5c-7.43,19.36-18.27,33.22-24.2,30.94-5.94-2.28-4.72-19.82,2.71-39.18,7.43-19.37,18.27-33.22,24.2-30.94,5.94,2.28,4.72,19.82-2.71,39.18Z"/>
        <path class="cls-1" d="M70.68,104.47c7.95,19.16,19.15,32.71,25.02,30.27,5.87-2.44,4.19-19.94-3.76-39.1-7.95-19.16-19.15-32.71-25.03-30.27-5.87,2.44-4.19,19.94,3.76,39.1"/>
        <path class="cls-9" d="M70.68,104.47c7.95,19.16,19.15,32.71,25.02,30.27,5.87-2.44,4.19-19.94-3.76-39.1-7.95-19.16-19.15-32.71-25.03-30.27-5.87,2.44-4.19,19.94,3.76,39.1Z"/>
      </g>
    </g>
  </g>
</svg>