<?xml version="1.0" encoding="UTF-8"?>
<svg id="Layer_1" data-name="Layer 1" xmlns="http://www.w3.org/2000/svg" xmlns:xlink="http://www.w3.org/1999/xlink" viewBox="0 0 192.09 187.34">
  <defs>
    <style>
      .cls-1 {
        stroke: #fbdeeb;
      }

      .cls-1, .cls-2, .cls-3, .cls-4, .cls-5, .cls-6 {
        fill: none;
      }

      .cls-1, .cls-2, .cls-4, .cls-5, .cls-6 {
        stroke-miterlimit: 10;
        stroke-width: 1.75px;
      }

      .cls-7 {
        fill: #a58c79;
      }

      .cls-7, .cls-8, .cls-9, .cls-3, .cls-10, .cls-11, .cls-12 {
        stroke-width: 0px;
      }

      .cls-8 {
        fill: #fff1ea;
      }

      .cls-9 {
        fill: #cdad96;
      }

      .cls-2 {
        stroke: #f0b4d2;
      }

      .cls-10 {
        fill: #f0b4d2;
      }

      .cls-13 {
        clip-path: url(#clippath-1);
      }

      .cls-11 {
        fill: #fbdeeb;
      }

      .cls-12 {
        fill: #fffef2;
      }

      .cls-4 {
        stroke: #cdad95;
      }

      .cls-14 {
        clip-path: url(#clippath);
      }

      .cls-5 {
        stroke: #a58c79;
      }

      .cls-6 {
        stroke: #fff1ea;
      }
    </style>
    <clipPath id="clippath">
      <rect class="cls-3" width="192.09" height="187.34"/>
    </clipPath>
    <clipPath id="clippath-1">
      <rect class="cls-3" width="192.09" height="187.34"/>
    </clipPath>
  </defs>
  <g id="Artwork_17" data-name="Artwork 17">
    <g class="cls-14">
      <g class="cls-13">
        <path class="cls-11" d="M191.22,93.67c0,51.25-42.61,92.8-95.17,92.8S.87,144.92.87,93.67,43.48.87,96.05.87s95.17,41.55,95.17,92.8"/>
        <ellipse class="cls-1" cx="96.05" cy="93.67" rx="95.17" ry="92.8"/>
        <path class="cls-8" d="M107.13,108.56c0,16.9-5.05,30.6-11.29,30.6s-11.29-13.7-11.29-30.6,5.05-30.6,11.29-30.6,11.29,13.7,11.29,30.6"/>
        <ellipse class="cls-6" cx="95.84" cy="108.56" rx="11.29" ry="30.6"/>
        <polygon class="cls-5" points="127.21 102.21 127.21 102.21 127.21 58.47 127.21 102.21"/>
        <path class="cls-8" d="M115.4,123.91c0,9.28-8.76,16.8-19.56,16.8s-19.56-7.52-19.56-16.8,8.76-16.8,19.56-16.8,19.56,7.52,19.56,16.8"/>
        <path class="cls-6" d="M115.4,123.91c0,9.28-8.76,16.8-19.56,16.8s-19.56-7.52-19.56-16.8,8.76-16.8,19.56-16.8,19.56,7.52,19.56,16.8Z"/>
        <path class="cls-9" d="M67.07,32.47c2.27-2.43,5.35-2.74,10.16-2.82,10.03-.05,21.92,0,32.21-.02,7.29.03,15.19-1.29,18.61,9.38,2.99,7.57,5.63,16.31,8.31,24.18,2.38,8.62,8.19,19.23-1.43,18.38-17.49-.88-64.2,1.98-82.3-1.13-.77-.75-.98-2.02-.7-4.05.36-2.71,1.61-6.9,3.25-12.13,3.31-9.3,6.94-25.41,11.67-31.55l.23-.25Z"/>
        <path class="cls-4" d="M67.07,32.47c2.27-2.43,5.35-2.74,10.16-2.82,10.03-.05,21.92,0,32.21-.02,7.29.03,15.19-1.29,18.61,9.38,2.99,7.57,5.63,16.31,8.31,24.18,2.38,8.62,8.19,19.23-1.43,18.38-17.49-.88-64.2,1.98-82.3-1.13-.77-.75-.98-2.02-.7-4.05.36-2.71,1.61-6.9,3.25-12.13,3.31-9.3,6.94-25.41,11.67-31.55l.23-.25Z"/>
        <path class="cls-7" d="M130.31,102.21c0,1.72-1.39,3.11-3.11,3.11s-3.11-1.39-3.11-3.11,1.39-3.11,3.11-3.11,3.11,1.39,3.11,3.11"/>
        <circle class="cls-5" cx="127.21" cy="102.21" r="3.11"/>
        <path class="cls-10" d="M124.91,146.73c-2.73,3.37-6.67,2.44-13.91,2.64-12.08-.08-27.14.17-39.53-.11-7.16.32-9.84-7.49-4.99-11.23,1.87-1.27,4.39-1.35,6.83-1.43,10.7-.05,32.09-.04,43.04,0,7.7-.48,11.74,4.03,8.69,9.97l-.12.17Z"/>
        <path class="cls-2" d="M124.91,146.73c-2.73,3.37-6.67,2.44-13.91,2.64-12.08-.08-27.14.17-39.53-.11-7.16.32-9.84-7.49-4.99-11.23,1.87-1.27,4.39-1.35,6.83-1.43,10.7-.05,32.09-.04,43.04,0,7.7-.48,11.74,4.03,8.69,9.97l-.12.17Z"/>
        <path class="cls-12" d="M65.18,53.37c-3.18,8.24-3.85,15.65-1.5,16.56,2.35.91,6.84-5.03,10.02-13.27,3.18-8.24,3.85-15.65,1.5-16.56-2.35-.91-6.84,5.03-10.02,13.27"/>
        <path class="cls-4" d="M65.18,53.37c-3.18,8.24-3.85,15.65-1.5,16.56,2.35.91,6.84-5.03,10.02-13.27,3.18-8.24,3.85-15.65,1.5-16.56-2.35-.91-6.84,5.03-10.02,13.27Z"/>
      </g>
    </g>
  </g>
</svg>