<?xml version="1.0" encoding="UTF-8"?>
<svg id="Layer_1" data-name="Layer 1" xmlns="http://www.w3.org/2000/svg" xmlns:xlink="http://www.w3.org/1999/xlink" viewBox="0 0 195.61 190.77">
  <defs>
    <style>
      .cls-1 {
        fill: #e3f1e2;
      }

      .cls-1, .cls-2, .cls-3, .cls-4, .cls-5, .cls-6, .cls-7 {
        stroke-width: 0px;
      }

      .cls-2 {
        fill: #9dd192;
      }

      .cls-8 {
        stroke: #d2b8a0;
      }

      .cls-8, .cls-9, .cls-5, .cls-10, .cls-11, .cls-12, .cls-13, .cls-14, .cls-15, .cls-16 {
        fill: none;
      }

      .cls-8, .cls-9, .cls-10, .cls-11, .cls-12, .cls-13, .cls-14, .cls-15, .cls-16 {
        stroke-miterlimit: 10;
      }

      .cls-8, .cls-10, .cls-11, .cls-12, .cls-13, .cls-14, .cls-15, .cls-16 {
        stroke-width: 1.78px;
      }

      .cls-3 {
        fill: #704e2e;
      }

      .cls-4 {
        fill: #bddfb2;
      }

      .cls-9 {
        stroke-width: .44px;
      }

      .cls-9, .cls-15 {
        stroke: #a57f60;
      }

      .cls-10 {
        stroke: #947257;
      }

      .cls-11 {
        stroke: #9dd192;
      }

      .cls-17 {
        clip-path: url(#clippath-1);
      }

      .cls-6 {
        fill: #d2b8a0;
      }

      .cls-12 {
        stroke: #e3f1e2;
      }

      .cls-13 {
        stroke: #704e2e;
      }

      .cls-14 {
        stroke: #8d7b6b;
      }

      .cls-18 {
        clip-path: url(#clippath);
      }

      .cls-7 {
        fill: #a57f60;
      }

      .cls-16 {
        stroke: #bddfb2;
      }
    </style>
    <clipPath id="clippath">
      <rect class="cls-5" y="0" width="195.61" height="190.77"/>
    </clipPath>
    <clipPath id="clippath-1">
      <rect class="cls-5" y="0" width="195.61" height="190.77"/>
    </clipPath>
  </defs>
  <g id="Artwork_3" data-name="Artwork 3">
    <g class="cls-18">
      <g class="cls-17">
        <path class="cls-1" d="M194.73,95.39c0,52.19-43.39,94.5-96.92,94.5S.89,147.58.89,95.39,44.28.89,97.81.89s96.92,42.31,96.92,94.5"/>
        <ellipse class="cls-12" cx="97.81" cy="95.39" rx="96.92" ry="94.5"/>
        <path class="cls-14" d="M123.34,82.38c0-57.78-59.02-66.08-59.02,0"/>
        <path class="cls-7" d="M79.03,92.36c-.17-.37-.31-.57-.67-.68-2.86-.85-19.57-2.94-25.63-5.12-2.12-1.66-4.73-5.02-6.81-6.89-.32-.25-.84-.44-1.44-.61-1.28-.04-2.55-.07-3.83-.11l10.51,17.63c6.63,1.11,31.69,6.37,27.86-4.24"/>
        <path class="cls-15" d="M79.03,92.36c-.17-.37-.31-.57-.67-.68-2.86-.85-19.57-2.94-25.63-5.12-2.12-1.66-4.73-5.02-6.81-6.89-.32-.25-.84-.44-1.44-.61-1.28-.04-2.55-.07-3.83-.11l10.51,17.63c6.63,1.11,31.69,6.37,27.86-4.24Z"/>
        <path class="cls-7" d="M61.11,92.76c5.53,22.3-8.41,6.01-8.41,6.01l-6.04-11.53,1.41-6.01"/>
        <path class="cls-15" d="M61.11,92.76c5.53,22.3-8.41,6.01-8.41,6.01l-6.04-11.53,1.41-6.01"/>
        <path class="cls-7" d="M57.15,101.86c5.72,0,5.73-8.89,0-8.89s-5.73,8.89,0,8.89"/>
        <path class="cls-7" d="M55.54,100.98c5.72,0,5.73-8.89,0-8.89s-5.73,8.89,0,8.89"/>
        <path class="cls-7" d="M55.49,100.98c5.72,0,5.73-8.89,0-8.89s-5.73,8.89,0,8.89"/>
        <path class="cls-7" d="M57.03,101.71c5.72,0,5.73-8.89,0-8.89s-5.73,8.89,0,8.89"/>
        <path class="cls-7" d="M57.59,102.28c5.72,0,5.73-8.89,0-8.89s-5.73,8.89,0,8.89"/>
        <path class="cls-7" d="M57.45,102.21c5.72,0,5.73-8.89,0-8.89s-5.73,8.89,0,8.89"/>
        <path class="cls-6" d="M128.64,93.94c0,19.23-15.59,34.81-34.81,34.81s-34.81-15.59-34.81-34.81,15.59-34.81,34.81-34.81,34.81,15.59,34.81,34.81"/>
        <path class="cls-8" d="M128.64,93.94c0,19.23-15.59,34.81-34.81,34.81s-34.81-15.59-34.81-34.81,15.59-34.81,34.81-34.81,34.81,15.59,34.81,34.81Z"/>
        <rect class="cls-3" x="51.56" y="128.76" width="13.12" height="6.52"/>
        <rect class="cls-13" x="51.56" y="128.76" width="13.12" height="6.52"/>
        <rect class="cls-3" x="136.95" y="128.76" width="13.12" height="6.52"/>
        <rect class="cls-13" x="136.95" y="128.76" width="13.12" height="6.52"/>
        <rect class="cls-4" x="121.01" y="89.63" width="28.38" height="18.42"/>
        <rect class="cls-16" x="121.01" y="89.63" width="28.38" height="18.42"/>
        <path class="cls-4" d="M149.39,108.06c0,8.76-6.35,15.86-14.19,15.86s-14.19-7.1-14.19-15.86,6.35-15.86,14.19-15.86,14.19,7.1,14.19,15.86"/>
        <ellipse class="cls-16" cx="135.2" cy="108.06" rx="14.19" ry="15.86"/>
        <rect class="cls-3" x="42.33" y="122.71" width="114.67" height="7.7"/>
        <rect class="cls-13" x="42.33" y="122.71" width="114.67" height="7.7"/>
        <path class="cls-2" d="M139.24,99.95c0,.49-3.94.89-8.8.89s-8.8-.4-8.8-.89,3.94-.89,8.8-.89,8.8.4,8.8.89"/>
        <ellipse class="cls-11" cx="130.44" cy="99.95" rx="8.8" ry=".89"/>
        <rect class="cls-2" x="121.01" y="99.21" width="8.22" height="1.48"/>
        <rect class="cls-11" x="121.01" y="99.21" width="8.22" height="1.48"/>
        <path class="cls-2" d="M130.44,108.95c0-.49,3.94-.89,8.8-.89s8.8.4,8.8.89-3.94.89-8.8.89-8.8-.4-8.8-.89"/>
        <ellipse class="cls-11" cx="139.24" cy="108.95" rx="8.8" ry=".89"/>
        <rect class="cls-2" x="140.45" y="108.21" width="8.22" height="1.48"/>
        <rect class="cls-11" x="140.45" y="108.21" width="8.22" height="1.48"/>
        <path class="cls-15" d="M40.05,79.07c4.21,6.57,8.43,13.13,12.64,19.7"/>
        <line class="cls-9" x1="38.86" y1="78.15" x2="40.11" y2="80.11"/>
        <line class="cls-9" x1="38.8" y1="78.28" x2="39.64" y2="79.65"/>
        <line class="cls-9" x1="38.64" y1="78.06" x2="45.78" y2="78.19"/>
        <line class="cls-9" x1="38.64" y1="78.17" x2="39.69" y2="78.25"/>
        <line class="cls-9" x1="45.56" y1="78.12" x2="45.58" y2="78.96"/>
        <line class="cls-9" x1="38.64" y1="78.06" x2="46.11" y2="78.54"/>
        <line class="cls-9" x1="45.31" y1="78.19" x2="46.12" y2="78.23"/>
        <line class="cls-9" x1="45.75" y1="78.18" x2="46.13" y2="78.2"/>
        <line class="cls-9" x1="46.15" y1="77.99" x2="47.15" y2="82.42"/>
        <line class="cls-9" x1="46.06" y1="78.19" x2="46.33" y2="78.19"/>
        <line class="cls-9" x1="46.36" y1="77.93" x2="46.62" y2="81.42"/>
        <rect class="cls-9" x="39.04" y="78.12" width="7.32" height=".25"/>
        <line class="cls-9" x1="38.61" y1="78.28" x2="39.93" y2="78.39"/>
        <line class="cls-9" x1="46.13" y1="78.2" x2="52.07" y2="85.93"/>
        <line class="cls-9" x1="46.37" y1="78.01" x2="49.37" y2="86.12"/>
        <path class="cls-7" d="M111.12,64.41c0,2.91-7.9,5.28-17.65,5.28s-17.65-2.36-17.65-5.28,7.9-5.28,17.65-5.28,17.65,2.36,17.65,5.28"/>
        <ellipse class="cls-15" cx="93.46" cy="64.41" rx="17.65" ry="5.28"/>
        <path class="cls-15" d="M98.46,55.52c0,1.99-2.24,3.61-5,3.61s-5-1.62-5-3.61,2.24-3.61,5-3.61,5,1.62,5,3.61Z"/>
        <path class="cls-7" d="M79.97,108.95c0-.2-3.5-.37-7.82-.37s-7.82.16-7.82.37,3.5.37,7.82.37,7.82-.16,7.82-.37"/>
        <path class="cls-10" d="M79.97,108.95c0-.2-3.5-.37-7.82-.37s-7.82.16-7.82.37,3.5.37,7.82.37,7.82-.16,7.82-.37Z"/>
        <path class="cls-7" d="M89.59,114.05c0-.2-3.5-.37-7.82-.37s-7.82.16-7.82.37,3.5.37,7.82.37,7.82-.16,7.82-.37"/>
        <path class="cls-15" d="M89.59,114.05c0-.2-3.5-.37-7.82-.37s-7.82.16-7.82.37,3.5.37,7.82.37,7.82-.16,7.82-.37Z"/>
      </g>
    </g>
  </g>
</svg>